<?xml version="1.0" encoding="UTF-8" standalone="no"?>
<!-- Created with Inkscape (http://www.inkscape.org/) -->

<svg
   xmlns:dc="http://purl.org/dc/elements/1.1/"
   xmlns:cc="http://creativecommons.org/ns#"
   xmlns:rdf="http://www.w3.org/1999/02/22-rdf-syntax-ns#"
   xmlns:svg="http://www.w3.org/2000/svg"
   xmlns="http://www.w3.org/2000/svg"
   xmlns:xlink="http://www.w3.org/1999/xlink"
   xmlns:sodipodi="http://sodipodi.sourceforge.net/DTD/sodipodi-0.dtd"
   xmlns:inkscape="http://www.inkscape.org/namespaces/inkscape"
   width="210mm"
   height="297mm"
   viewBox="0 0 210 297"
   version="1.1"
   id="svg8"
   inkscape:version="0.92.5 (2060ec1f9f, 2020-04-08)"
   sodipodi:docname="icons.svg">
  <defs
     id="defs2" />
  <sodipodi:namedview
     id="base"
     pagecolor="#ffffff"
     bordercolor="#666666"
     borderopacity="1.0"
     inkscape:pageopacity="0.0"
     inkscape:pageshadow="2"
     inkscape:zoom="0.7"
     inkscape:cx="102.96129"
     inkscape:cy="491.43032"
     inkscape:document-units="mm"
     inkscape:current-layer="layer1"
     showgrid="false"
     inkscape:window-width="1920"
     inkscape:window-height="1135"
     inkscape:window-x="0"
     inkscape:window-y="0"
     inkscape:window-maximized="1" />
  <metadata
     id="metadata5">
    <rdf:RDF>
      <cc:Work
         rdf:about="">
        <dc:format>image/svg+xml</dc:format>
        <dc:type
           rdf:resource="http://purl.org/dc/dcmitype/StillImage" />
        <dc:title></dc:title>
      </cc:Work>
    </rdf:RDF>
  </metadata>
  <g
     inkscape:label="Layer 1"
     inkscape:groupmode="layer"
     id="layer1">
    <image
       sodipodi:absref="/home/jh1889/work/teaching/SEPwC/images/icons8-downloads-folder-96.png"
       xlink:href="icons8-downloads-folder-96.png"
       width="33.866665"
       height="33.866665"
       preserveAspectRatio="none"
       id="image145"
       x="142.57262"
       y="127.74226" />
    <path
       style="fill:#000000;stroke-width:0.35277775"
       d="m 207.19696,150.06135 -0.94795,-0.98944 v -9.3694 -9.3694 l 0.93005,-0.93005 c 0.89358,-0.89357 1.08419,-0.93005 4.8604,-0.93005 4.23996,0 4.27682,0.0123 7.06125,2.35922 l 1.38641,1.16856 h 6.00261 6.00262 l 0.98944,0.94795 0.98944,0.94794 v 7.62911 7.62911 l -0.98944,0.94794 -0.98944,0.94795 H 220.31863 208.1449 Z m 15.45294,-5.35724 c 1.63701,-1.65428 1.9985,-2.20615 1.66412,-2.54053 -0.33438,-0.33438 -0.73096,-0.13054 -1.82564,0.9384 l -1.39848,1.36557 -0.1003,-4.02852 c -0.0822,-3.30114 -0.19586,-4.02852 -0.62948,-4.02852 -0.43362,0 -0.54728,0.72738 -0.62947,4.02852 l -0.10031,4.02852 -1.39847,-1.36557 c -1.09469,-1.06894 -1.49127,-1.27278 -1.82565,-0.9384 -0.33438,0.33438 0.0271,0.88625 1.66413,2.54053 1.15021,1.16234 2.18061,2.11335 2.28977,2.11335 0.10916,0 1.13956,-0.95101 2.28978,-2.11335 z"
       id="path235"
       inkscape:connector-curvature="0" />
    <image
       sodipodi:absref="/home/jh1889/work/teaching/SEPwC/images/icons8-flow-chart-96.png"
       xlink:href="icons8-flow-chart-96.png"
       width="33.866665"
       height="33.866665"
       preserveAspectRatio="none"
       id="image156"
       x="96.459526"
       y="197.66785" />
    <path
       style="fill:#000000;stroke-width:0.35277775"
       d="m 165.10916,200.63209 c -0.79236,-0.79236 -0.8659,-1.13831 -0.8659,-4.07298 0,-2.93466 0.0736,-3.28062 0.8659,-4.07298 0.54026,-0.54025 1.26996,-0.8659 1.94028,-0.8659 1.02658,0 1.07437,-0.0658 1.07437,-1.48001 0,-1.12548 0.22707,-1.71701 0.94794,-2.46944 0.90574,-0.94538 1.09425,-0.98944 4.23334,-0.98944 h 3.28539 v -1.76389 c 0,-1.73054 -0.0203,-1.76389 -1.07437,-1.76389 -0.67032,0 -1.40003,-0.32565 -1.94028,-0.86591 -0.79236,-0.79236 -0.86591,-1.13831 -0.86591,-4.07298 0,-2.93467 0.0735,-3.28062 0.86591,-4.07298 0.79236,-0.79236 1.13831,-0.86591 4.07298,-0.86591 2.93467,0 3.28062,0.0735 4.07298,0.86591 0.79236,0.79236 0.86591,1.13831 0.86591,4.07298 0,2.93467 -0.0735,3.28062 -0.86591,4.07298 -0.54026,0.54026 -1.26996,0.86591 -1.94028,0.86591 -1.05406,0 -1.07437,0.0333 -1.07437,1.76389 v 1.76389 h 3.28539 c 3.13909,0 3.3276,0.0441 4.23333,0.98944 0.72088,0.75243 0.94795,1.34396 0.94795,2.46944 0,1.41417 0.0478,1.48001 1.07437,1.48001 0.67031,0 1.40002,0.32565 1.94027,0.8659 0.79236,0.79236 0.86591,1.13832 0.86591,4.07298 0,2.93467 -0.0735,3.28062 -0.86591,4.07298 -0.79236,0.79236 -1.13831,0.86591 -4.07298,0.86591 -2.93466,0 -3.28061,-0.0735 -4.07298,-0.86591 -0.79236,-0.79236 -0.8659,-1.13831 -0.8659,-4.07298 0,-2.93466 0.0735,-3.28062 0.8659,-4.07298 0.54026,-0.54025 1.26997,-0.8659 1.94028,-0.8659 0.94151,0 1.07437,-0.12216 1.07437,-0.98778 0,-1.75139 -0.33543,-1.83445 -7.40833,-1.83445 -7.0729,0 -7.40833,0.0831 -7.40833,1.83445 0,0.86562 0.13286,0.98778 1.07436,0.98778 0.67032,0 1.40003,0.32565 1.94028,0.8659 0.79236,0.79236 0.86591,1.13832 0.86591,4.07298 0,2.93467 -0.0736,3.28062 -0.86591,4.07298 -0.79236,0.79236 -1.13831,0.86591 -4.07298,0.86591 -2.93467,0 -3.28062,-0.0735 -4.07298,-0.86591 z"
       id="path237"
       inkscape:connector-curvature="0" />
    <image
       sodipodi:absref="/home/jh1889/work/teaching/SEPwC/images/icons8-computer-96.png"
       xlink:href="icons8-computer-96.png"
       width="33.866665"
       height="33.866665"
       preserveAspectRatio="none"
       id="image167"
       x="89.277977"
       y="85.40892" />
    <path
       style="fill:#000000;stroke-width:0.35277775"
       d="m 175.39656,60.002215 -0.94795,-0.98944 V 48.232265 37.451759 l 0.93005,-0.93005 c 0.91971,-0.919707 0.98718,-0.930051 6.06612,-0.930051 5.09316,0 5.14432,0.0079 6.1255,0.947946 l 0.98945,0.947946 v 10.804105 10.80411 l -0.98945,0.94795 c -0.98085,0.93971 -1.03387,0.94794 -6.10761,0.94794 h -5.11817 z m 6.96436,-3.0927 c 0.3049,-0.3049 0.55436,-0.69044 0.55436,-0.85675 0,-0.3919 -1.01921,-1.41111 -1.41111,-1.41111 -0.3919,0 -1.41111,1.01921 -1.41111,1.41111 0,0.3919 1.01921,1.41111 1.41111,1.41111 0.16631,0 0.55185,-0.24946 0.85675,-0.55436 z m 2.95325,-8.33564 c 0.58654,-0.58653 0.58654,-9.150122 0,-9.736661 -0.57661,-0.576607 -7.0434,-0.576607 -7.62,0 -0.58654,0.586539 -0.58654,9.150131 0,9.736661 0.5766,0.57661 7.04339,0.57661 7.62,0 z M 179.3875,45.822213 V 44.76388 h 2.11667 2.11667 v 1.058333 1.058332 h -2.11667 -2.11667 z m 0,-4.233333 v -1.058333 h 2.11667 2.11667 v 1.058333 1.058333 h -2.11667 -2.11667 z m 9.7992,18.358515 c 0.3929,-0.6904 0.88835,-1.06873 1.4015,-1.07017 0.71701,-0.002 0.79375,-0.17275 0.79375,-1.76612 0,-1.52871 -0.0941,-1.76389 -0.70556,-1.76389 -0.68619,0 -0.70555,-0.23519 -0.70555,-8.56847 0,-7.709255 -0.0669,-8.69975 -0.66753,-9.877773 l -0.66753,-1.309314 h 5.36403 5.36402 l 0.94795,0.989443 0.94794,0.989442 v 7.940389 7.940393 l -0.98944,0.94794 c -0.90927,0.87114 -1.22369,0.94795 -3.88055,0.94795 h -2.89112 v 1.74259 1.74259 l 1.32292,0.10949 c 1.14673,0.0949 1.32292,0.22695 1.32292,0.99144 0,0.87969 -0.01,0.8822 -3.78275,0.98197 l -3.78275,0.10004 z"
       id="path231"
       inkscape:connector-curvature="0" />
    <image
       sodipodi:absref="/home/jh1889/work/teaching/SEPwC/images/icons8-programming-96.png"
       xlink:href="icons8-programming-96.png"
       width="33.866665"
       height="33.866665"
       preserveAspectRatio="none"
       id="image178"
       x="110.06667"
       y="34.760117" />
    <path
       style="fill:#000000;stroke-width:0.35277775"
       d="m 181.02948,21.865051 c -0.41945,-1.09307 0.14596,-1.594023 1.79913,-1.594023 h 1.59857 V 18.507139 16.74325 h -3.63816 c -3.52561,0 -3.66749,-0.03061 -4.58611,-0.989442 l -0.94795,-0.989443 v -8.6638385 -8.663841 l 0.93005,-0.93005 0.93005,-0.93005 h 12.23312 12.23311 l 0.94795,0.989442 0.94794,0.989443 v 8.604447 8.6044475 l -0.94794,0.989443 c -0.91862,0.958831 -1.06051,0.989442 -4.58611,0.989442 h -3.63817 v 1.74456 1.74456 l 1.6757,0.107523 c 1.52354,0.09776 1.67569,0.1876 1.67569,0.989468 v 0.881945 l -8.21065,0.09472 c -7.07608,0.08163 -8.23906,0.02069 -8.41622,-0.440972 z m 11.15881,-3.357912 V 16.74325 h -2.82222 -2.82222 v 1.763889 1.763889 h 2.82222 2.82222 z m -3.26145,-7.14375 c 0.19399,-0.242534 0.84228,-2.5840965 1.44064,-5.2034715 0.95434,-4.177672 1.02463,-4.825933 0.57243,-5.27906705 -0.45264,-0.453571 -0.57539,-0.453571 -1.00657,0 -0.75938,0.79881105 -2.735,9.90774255 -2.27031,10.46765555 0.4751,0.572465 0.81463,0.576464 1.26381,0.01488 z m -3.51188,-2.0990265 c 0.59244,-0.592434 0.54461,-0.78952 -0.48997,-2.019044 l -0.9133,-1.085401 0.9133,-1.0854 c 1.06858,-1.269935 1.10484,-1.49147 0.34705,-2.12038 -0.4909,-0.407413 -0.77257,-0.251588 -2.11667,1.170991 -0.85272,0.902518 -1.55041,1.812479 -1.55041,2.022136 0,0.422656 2.7734,3.540431 3.14938,3.540431 0.13051,0 0.42779,-0.1905 0.66062,-0.423333 z m 10.25618,-1.156285 c 0.80082,-0.868789 1.45604,-1.751155 1.45604,-1.960813 0,-0.209657 -0.69768,-1.119618 -1.55041,-2.022136 -1.3441,-1.422579 -1.62576,-1.578404 -2.11667,-1.170991 -0.75778,0.62891 -0.72153,0.850445 0.34705,2.12038 l 0.91331,1.0854 -0.91331,1.085401 c -1.03457,1.229524 -1.0824,1.42661 -0.48997,2.019044 0.63034,0.630338 0.77063,0.561426 2.35396,-1.156285 z"
       id="path227"
       inkscape:connector-curvature="0" />
    <image
       sodipodi:absref="/home/jh1889/work/teaching/SEPwC/images/icons8-ecology-96.png"
       xlink:href="icons8-ecology-96.png"
       width="33.866665"
       height="33.866665"
       preserveAspectRatio="none"
       id="image189"
       x="25.022026"
       y="19.263092" />
    <path
       style="fill:#000000;stroke-width:0.35277775"
       d="M 73.503772,27.404161 C 73.115716,27.240985 72.480716,26.754574 72.092661,26.323247 71.420353,25.575971 71.387105,25.04242 71.387105,15.000738 V 4.4624603 l 0.978156,-0.978157 0.978157,-0.978156 h 10.567298 10.567297 l 0.978157,0.978156 0.978156,0.978157 V 15.029757 25.597055 l -0.977637,0.978157 -0.977636,0.978156 -10.134863,0.07374 c -5.574175,0.04056 -10.452363,-0.05977 -10.840418,-0.222945 z m 4.31779,-5.054265 c 0.190981,-0.242535 0.447819,-1.211908 0.570753,-2.154163 0.122933,-0.942256 0.655452,-2.506801 1.183375,-3.476769 0.950762,-1.746863 3.702519,-4.511429 4.490526,-4.511429 0.424197,0 1.255611,0.694665 1.255611,1.049092 0,0.111333 -0.935367,1.170252 -2.078592,2.353154 -2.083528,2.155838 -2.959278,4.048218 -2.216952,4.790543 0.217857,0.217858 1.010396,0.264702 1.990852,0.117674 1.828092,-0.27414 3.754278,-1.726241 4.658784,-3.512136 0.304789,-0.601788 1.358501,-1.845801 2.341583,-2.764474 l 1.787422,-1.670313 -0.840796,-0.894987 c -1.07719,-1.146617 -3.98772,-2.5569617 -5.882119,-2.8502777 -2.074713,-0.321234 -4.89136,0.440148 -6.342843,1.7145667 -2.042035,1.792931 -2.372208,2.781329 -2.44243,7.311603 -0.05765,3.719363 0.167345,4.938888 0.911202,4.938888 0.146513,0 0.422643,-0.198437 0.613624,-0.440972 z"
       id="path225"
       inkscape:connector-curvature="0" />
    <image
       sodipodi:absref="/home/jh1889/work/teaching/SEPwC/images/icons8-environment-96.png"
       xlink:href="icons8-environment-96.png"
       width="33.866665"
       height="33.866665"
       preserveAspectRatio="none"
       id="image200"
       x="175.07857"
       y="81.629166" />
    <path
       style="fill:#000000;stroke-width:0.35277775"
       d="m 225.99952,88.387378 c -0.55119,-0.55119 -0.54186,-1.57498 0.0176,-1.9371 0.25389,-0.16432 -0.79694,-0.36591 -2.47695,-0.47518 -2.79168,-0.18157 -2.9747,-0.24655 -4.22999,-1.50183 -1.22719,-1.2272 -1.31227,-1.4517 -1.3154,-3.47101 -0.003,-1.6732 0.13555,-2.24768 0.61401,-2.55331 1.02572,-0.6552 1.8249,0.1496 2.04955,2.06395 0.25216,2.14872 0.9325,2.65337 3.57711,2.65337 1.9651,0 2.03349,-0.03 1.61085,-0.70677 -0.52002,-0.83268 -0.0407,-1.8653 0.95679,-2.06133 0.73428,-0.1443 4.4175,3.34024 4.4175,4.17921 0,0.70613 -3.55114,4.23333 -4.26206,4.23333 -0.29464,0 -0.72621,-0.1905 -0.95905,-0.42333 z m 7.77875,-2.79314 c -0.55769,-0.57217 -0.56548,-1.4568 -0.0176,-2.00464 0.23284,-0.23283 1.18534,-0.42333 2.11667,-0.42333 2.41909,0 3.10444,-0.77947 3.10444,-3.53077 0,-2.03256 -0.029,-2.10152 -0.70677,-1.67826 -0.83267,0.52001 -1.86529,0.0407 -2.06132,-0.9568 -0.14431,-0.73428 3.34024,-4.417503 4.17921,-4.417503 0.83896,0 4.32351,3.683223 4.17921,4.417503 -0.19209,0.97741 -1.22679,1.47797 -2.02487,0.97956 -0.63411,-0.396 -0.67719,-0.26742 -0.79743,2.38041 -0.1222,2.69083 -0.17792,2.84983 -1.44158,4.11349 -1.21672,1.21672 -1.49198,1.32407 -3.7017,1.44361 -1.62679,0.088 -2.52772,-0.015 -2.82822,-0.32327 z M 216.79882,74.213037 c -1.92885,-1.953112 -2.17208,-2.800332 -1.01343,-3.529994 0.45329,-0.285462 0.79385,-0.277035 1.2885,0.03188 0.63955,0.399406 0.67835,0.266114 0.79497,-2.731093 0.12092,-3.107613 0.14085,-3.169235 1.44805,-4.476068 1.24202,-1.241668 1.46135,-1.325286 3.4844,-1.328424 1.6732,-0.0026 2.24768,0.135554 2.55331,0.614012 0.6552,1.025719 -0.1496,1.824905 -2.06395,2.049555 -2.21915,0.260418 -2.65337,0.903537 -2.65337,3.929887 0,2.31808 0.0256,2.389054 0.70678,1.963619 0.83267,-0.520013 1.86529,-0.04071 2.06132,0.956795 0.1443,0.734276 -3.34024,4.417512 -4.17921,4.417512 -0.3043,0 -1.39662,-0.853963 -2.42737,-1.897685 z m 22.60626,-4.170101 c -0.23284,-0.232834 -0.42334,-1.185334 -0.42334,-2.116667 0,-2.507613 -0.74661,-3.104444 -3.88354,-3.104444 -2.38555,0 -2.45692,0.02484 -2.03105,0.706774 0.52002,0.832673 0.0407,1.865295 -0.95679,2.061325 -0.73428,0.144301 -4.4175,-3.340242 -4.4175,-4.17921 0,-0.838968 3.68322,-4.323511 4.4175,-4.17921 0.9975,0.19603 1.47681,1.228651 0.95679,2.061324 -0.42711,0.683924 -0.35462,0.706775 2.24232,0.706775 4.51691,0 6.19105,1.351941 6.4359,5.197272 0.14837,2.330145 -0.23232,3.269394 -1.32516,3.269394 -0.32549,0 -0.7823,-0.1905 -1.01513,-0.423333 z"
       id="path233"
       inkscape:connector-curvature="0" />
    <image
       sodipodi:absref="/home/jh1889/work/teaching/SEPwC/images/icons8-marker-wind-96.png"
       xlink:href="icons8-marker-wind-96.png"
       width="33.866665"
       height="33.866665"
       preserveAspectRatio="none"
       id="image211"
       x="13.68274"
       y="83.519043" />
    <path
       style="fill:#000000;stroke-width:0.35277775"
       d="m -4.0381616,30.992948 c -6.4117614,-6.62796 -7.3534534,-8.36902 -7.0801444,-13.090275 0.279309,-4.824904 3.1125704,-9.1933291 7.2946114,-11.2470961 1.743933,-0.856432 2.390049,-0.974431 5.335601,-0.974431 2.8948502,0 3.6251422,0.12832 5.3609862,0.941981 4.3839434,2.054934 7.0061174,6.0616461 7.2725154,11.1124881 0.259757,4.924953 -0.643447,6.622263 -7.0547304,13.257333 -3.9234212,4.06037 -4.0371682,4.14514 -5.5621212,4.14514 -1.52469303,0 -1.63946503,-0.0855 -5.566718,-4.14514 z m 10.8688712,-6.76383 c 0.567158,-0.56716 1.031196,-1.37312 1.031196,-1.79103 0,-0.4179 -0.464038,-1.22387 -1.031196,-1.79102 l -1.031197,-1.0312 H 0.52390537 c -4.25905797,0 -5.36023097,0.101964 -5.71477697,0.52917 -0.350374,0.42217 -0.350374,0.63616 0,1.05833 0.354361,0.42698 1.452704,0.52917 5.68763997,0.52917 5.01328523,0 5.24847123,0.0316 5.24847123,0.70555 0,0.38806 -0.218687,0.70556 -0.485971,0.70556 -0.267284,0 -0.683597,0.23812 -0.92514,0.52916 -0.350374,0.42218 -0.350374,0.63616 0,1.05834 0.65327,0.78714 1.346886,0.64766 2.496581,-0.50203 z m -0.835917,-7.170889 c 2.140074,-2.142294 0.673027,-5.716603 -2.346333,-5.716603 -1.5227662,0 -3.19488723,1.204164 -3.19488723,2.300771 0,0.972109 1.07654903,1.140458 1.96364803,0.307072 0.8994522,-0.844992 1.8318312,-0.802314 2.4064582,0.110149 0.283191,0.449686 0.283193,0.785036 8e-6,1.234722 -0.33222,0.52755 -1.058206,0.631646 -4.99038023,0.715552 -3.52993897,0.07532 -4.70194697,0.2191 -5.03247397,0.617361 -0.340594,0.410391 -0.334414,0.635397 0.02949,1.073878 0.386892,0.466178 1.23721,0.536556 5.32784997,0.440973 C 4.9303586,18.030595 5.0446306,18.009375 5.9947896,17.058229 Z"
       id="path229"
       inkscape:connector-curvature="0" />
    <image
       sodipodi:absref="/home/jh1889/work/teaching/SEPwC/images/icons8-wind-turbine-96.png"
       xlink:href="icons8-wind-turbine-96.png"
       width="33.866665"
       height="33.866665"
       preserveAspectRatio="none"
       id="image222"
       x="25.400003"
       y="169.69762" />
    <path
       style="fill:#000000;stroke-width:0.35277775"
       d="m 55.153405,178.62423 c -0.188764,-0.49191 0.368649,-5.06249 0.801806,-6.57452 0.09404,-0.32827 0.877588,-0.99178 1.741219,-1.47447 l 1.570238,-0.87762 1.570237,0.87762 c 0.863631,0.48269 1.647179,1.1462 1.741219,1.47447 0.433157,1.51203 0.99057,6.08261 0.801806,6.57452 -0.311775,0.81247 -7.91475,0.81247 -8.226525,0 z m -8.508242,-7.05601 c -0.909286,-0.63689 -1.012121,-1.86705 -0.275202,-3.29209 0.793742,-1.53493 4.527974,-4.79548 6.790363,-5.92902 l 2.049399,-1.02683 v -2.97991 c 0,-1.63896 0.226457,-3.76037 0.503238,-4.71426 0.656399,-2.26218 2.242864,-4.08649 3.553707,-4.08649 1.310842,0 2.897307,1.82431 3.553706,4.08649 0.276781,0.95389 0.503238,3.0753 0.503238,4.71426 v 2.97991 l 2.049399,1.02683 c 2.262389,1.13354 5.996621,4.39409 6.790363,5.92902 1.669838,3.22911 -0.997021,4.71717 -5.865316,3.27275 -2.346188,-0.69611 -5.172229,-2.08233 -6.237641,-3.05967 l -0.793749,-0.72814 -0.79375,0.72814 c -1.848856,1.69602 -6.960595,3.62818 -9.598729,3.62818 -0.794736,0 -1.797798,-0.24712 -2.229026,-0.54917 z m 14.032616,-6.50638 c 0.388055,-0.38806 0.705555,-1.02306 0.705555,-1.41111 0,-0.9086 -1.208065,-2.11667 -2.116666,-2.11667 -0.388056,0 -1.023056,0.3175 -1.411112,0.70556 -0.388055,0.38805 -0.705555,1.02305 -0.705555,1.41111 0,0.38805 0.3175,1.02305 0.705555,1.41111 0.388056,0.38805 1.023056,0.70555 1.411112,0.70555 0.388055,0 1.023055,-0.3175 1.411111,-0.70555 z"
       id="path239"
       inkscape:connector-curvature="0" />
  </g>
</svg>
