<?xml version="1.0" encoding="UTF-8" standalone="no"?>
<!-- Created with Inkscape (http://www.inkscape.org/) -->

<svg
   width="195mm"
   height="195mm"
   viewBox="0 0 195 195"
   version="1.1"
   id="svg5"
   inkscape:version="1.1.2 (0a00cf5339, 2022-02-04)"
   sodipodi:docname="sepwc_logo.svg"
   xmlns:inkscape="http://www.inkscape.org/namespaces/inkscape"
   xmlns:sodipodi="http://sodipodi.sourceforge.net/DTD/sodipodi-0.dtd"
   xmlns="http://www.w3.org/2000/svg"
   xmlns:svg="http://www.w3.org/2000/svg"
   xmlns:ooo="http://xml.openoffice.org/svg/export">
  <sodipodi:namedview
     id="namedview7"
     pagecolor="#ffffff"
     bordercolor="#666666"
     borderopacity="1.0"
     inkscape:pageshadow="2"
     inkscape:pageopacity="0.0"
     inkscape:pagecheckerboard="0"
     inkscape:document-units="mm"
     showgrid="false"
     inkscape:zoom="0.74118967"
     inkscape:cx="455.34903"
     inkscape:cy="400.03256"
     inkscape:window-width="1920"
     inkscape:window-height="1003"
     inkscape:window-x="0"
     inkscape:window-y="0"
     inkscape:window-maximized="1"
     inkscape:current-layer="layer1"
     fit-margin-top="0"
     fit-margin-left="0"
     fit-margin-right="0"
     fit-margin-bottom="0" />
  <defs
     id="defs2">
    <clipPath
       id="presentation_clip_path"
       clipPathUnits="userSpaceOnUse">
   <rect
   x="0"
   y="0"
   width="10000"
   height="7000"
   id="rect20967" />

  </clipPath>
    <clipPath
       id="presentation_clip_path_shrink"
       clipPathUnits="userSpaceOnUse">
   <rect
   x="10"
   y="7"
   width="9980"
   height="6986"
   id="rect20970" />

  </clipPath>
    <g
       ooo:slide="id1"
       ooo:id-list="id3 id4 id5 id6"
       id="g20975" />
    <g
       id="bullet-char-template-57356"
       transform="matrix(4.8828125e-4,0,0,-4.8828125e-4,0,0)">
   <path
   d="M 580,1141 1163,571 580,0 -4,571 Z"
   id="path20979" />

  </g>
    <g
       id="bullet-char-template-57354"
       transform="matrix(4.8828125e-4,0,0,-4.8828125e-4,0,0)">
   <path
   d="M 8,1128 H 1137 V 0 H 8 Z"
   id="path20982" />

  </g>
    <g
       id="bullet-char-template-10146"
       transform="matrix(4.8828125e-4,0,0,-4.8828125e-4,0,0)">
   <path
   d="M 174,0 602,739 174,1481 1456,739 Z M 1358,739 309,1346 659,739 Z"
   id="path20985" />

  </g>
    <g
       id="bullet-char-template-10132"
       transform="matrix(4.8828125e-4,0,0,-4.8828125e-4,0,0)">
   <path
   d="M 2015,739 1276,0 H 717 l 543,543 H 174 v 393 h 1086 l -543,545 h 557 z"
   id="path20988" />

  </g>
    <g
       id="bullet-char-template-10007"
       transform="matrix(4.8828125e-4,0,0,-4.8828125e-4,0,0)">
   <path
   d="m 0,-2 c -7,16 -16,29 -25,39 l 381,530 c -94,256 -141,385 -141,387 0,25 13,38 40,38 9,0 21,-2 34,-5 21,4 42,12 65,25 l 27,-13 111,-251 280,301 64,-25 24,25 c 21,-10 41,-24 62,-43 C 886,937 835,863 770,784 769,783 710,716 594,584 L 774,223 c 0,-27 -21,-55 -63,-84 l 16,-20 C 717,90 699,76 672,76 641,76 570,178 457,381 L 164,-76 c -22,-34 -53,-51 -92,-51 -42,0 -63,17 -64,51 -7,9 -10,24 -10,44 0,9 1,19 2,30 z"
   id="path20991" />

  </g>
    <g
       id="bullet-char-template-10004"
       transform="matrix(4.8828125e-4,0,0,-4.8828125e-4,0,0)">
   <path
   d="M 285,-33 C 182,-33 111,30 74,156 52,228 41,333 41,471 c 0,78 14,145 41,201 34,71 87,106 158,106 53,0 88,-31 106,-94 l 23,-176 c 8,-64 28,-97 59,-98 l 735,706 c 11,11 33,17 66,17 42,0 63,-15 63,-46 V 965 c 0,-36 -10,-64 -30,-84 L 442,47 C 390,-6 338,-33 285,-33 Z"
   id="path20994" />

  </g>
    <g
       id="bullet-char-template-9679"
       transform="matrix(4.8828125e-4,0,0,-4.8828125e-4,0,0)">
   <path
   d="M 813,0 C 632,0 489,54 383,161 276,268 223,411 223,592 c 0,181 53,324 160,431 106,107 249,161 430,161 179,0 323,-54 432,-161 108,-107 162,-251 162,-431 0,-180 -54,-324 -162,-431 C 1136,54 992,0 813,0 Z"
   id="path20997" />

  </g>
    <g
       id="bullet-char-template-8226"
       transform="matrix(4.8828125e-4,0,0,-4.8828125e-4,0,0)">
   <path
   d="m 346,457 c -73,0 -137,26 -191,78 -54,51 -81,114 -81,188 0,73 27,136 81,188 54,52 118,78 191,78 73,0 134,-26 185,-79 51,-51 77,-114 77,-187 0,-75 -25,-137 -76,-188 -50,-52 -112,-78 -186,-78 z"
   id="path21000" />

  </g>
    <g
       id="bullet-char-template-8211"
       transform="matrix(4.8828125e-4,0,0,-4.8828125e-4,0,0)">
   <path
   d="M -4,459 H 1135 V 606 H -4 Z"
   id="path21003" />

  </g>
    <g
       id="bullet-char-template-61548"
       transform="matrix(4.8828125e-4,0,0,-4.8828125e-4,0,0)">
   <path
   d="m 173,740 c 0,163 58,303 173,419 116,115 255,173 419,173 163,0 302,-58 418,-173 116,-116 174,-256 174,-419 0,-163 -58,-303 -174,-418 C 1067,206 928,148 765,148 601,148 462,206 346,322 231,437 173,577 173,740 Z"
   id="path21006" />

  </g>
    <filter
       style="color-interpolation-filters:sRGB"
       inkscape:label="Drop Shadow"
       id="filter29518"
       x="-0.026040764"
       y="-0.11243423"
       width="1.0822213"
       height="1.3550007">
      <feFlood
         flood-opacity="0.501961"
         flood-color="rgb(8,28,15)"
         result="flood"
         id="feFlood29508" />
      <feComposite
         in="flood"
         in2="SourceGraphic"
         operator="in"
         result="composite1"
         id="feComposite29510" />
      <feGaussianBlur
         in="composite1"
         stdDeviation="1.8"
         result="blur"
         id="feGaussianBlur29512" />
      <feOffset
         dx="5"
         dy="5"
         result="offset"
         id="feOffset29514" />
      <feComposite
         in="SourceGraphic"
         in2="offset"
         operator="over"
         result="composite2"
         id="feComposite29516" />
    </filter>
  </defs>
  <g
     inkscape:label="Layer 1"
     inkscape:groupmode="layer"
     id="layer1"
     transform="translate(-8.8654657,-56.795376)">
    <g
       id="g29877"
       transform="translate(0.45944597,2.264547)">
      <g
         id="g21148"
         transform="matrix(0.89163232,0,0,0.89163232,165.14287,11.387005)">
        <g
           style="fill-rule:evenodd;stroke-width:28.222;stroke-linejoin:round"
           id="g21112"
           transform="matrix(0.02418012,0,0,0.02418012,-187.36119,41.27937)">
          <g
             id="g21014">
  <g
   id="id2"
   class="Master_Slide">
   <g
   id="bg-id2"
   class="Background" />

   <g
   id="bo-id2"
   class="BackgroundObjects" />

  </g>

 </g>
          <g
             class="SlideGroup"
             id="g21054">
  <g
   id="g21052">
   <g
   id="container-id1">
    <g
   id="id1"
   class="Slide"
   clip-path="url(#presentation_clip_path)">
     <g
   class="Page"
   id="g21048">
      <g
   class="Group"
   id="g21046">
       <g
   class="com.sun.star.drawing.CustomShape"
   id="g21021">
        <g
   id="id3">
         <rect
   class="BoundingBox"
   stroke="none"
   fill="none"
   x="726"
   y="617"
   width="8551"
   height="4858"
   id="rect21016" />

         <path
   fill="#ffffff"
   stroke="none"
   d="M 5001,5474 H 726 V 617 h 8550 v 4857 z"
   id="path21018" />

        </g>

       </g>

       <g
   class="Group"
   id="g21037">
        <g
   class="com.sun.star.drawing.ClosedBezierShape"
   id="g21028">
         <g
   id="id4">
          <rect
   class="BoundingBox"
   stroke="none"
   fill="none"
   x="1823"
   y="5541"
   width="3204"
   height="1260"
   id="rect21023" />

          <path
   fill="#000000"
   stroke="none"
   d="m 4653,5541 c 0,1037 -2830,1111 -2830,1111 v 148 H 5025 V 5541 Z"
   id="path21025" />

         </g>

        </g>

        <g
   class="com.sun.star.drawing.ClosedBezierShape"
   id="g21035">
         <g
   id="id5">
          <rect
   class="BoundingBox"
   stroke="none"
   fill="none"
   x="4974"
   y="5541"
   width="3204"
   height="1260"
   id="rect21030" />

          <path
   fill="#000000"
   stroke="none"
   d="m 5347,5541 c 0,1037 2830,1111 2830,1111 v 148 H 4975 V 5541 Z"
   id="path21032" />

         </g>

        </g>

       </g>

       <g
   class="com.sun.star.drawing.CustomShape"
   id="g21044">
        <g
   id="id6">
         <rect
   class="BoundingBox"
   stroke="none"
   fill="none"
   x="500"
   y="399"
   width="9002"
   height="5287"
   id="rect21039" />

         <path
   fill="#666666"
   stroke="none"
   d="M 500,399 H 9501 V 5685 H 500 Z M 859,758 H 9141 V 5325 H 859 Z"
   id="path21041" />

        </g>

       </g>

      </g>

     </g>

    </g>

   </g>

  </g>

 </g>
        </g>
        <g
           id="g20840"
           transform="matrix(0.73166405,0,0,0.73166405,-141.4539,-15.394417)">
          <g
             id="g20437"
             transform="translate(9.138574,-73.90892)">
            <circle
               style="fill:#fffffd;fill-opacity:1;stroke:#000000;stroke-width:0.114;stroke-miterlimit:4;stroke-dasharray:none;stroke-opacity:1"
               id="path2738"
               cx="93.391388"
               cy="249.9888"
               r="72.760414" />
            <text
               xml:space="preserve"
               style="font-style:normal;font-weight:normal;font-size:4.23333px;line-height:1.25;font-family:sans-serif;white-space:pre;shape-inside:url(#path2738);fill:#007500;fill-opacity:1;stroke:none;stroke-width:0.264583"
               x="-166.26814"
               y="187.36008"
               id="text4044"><tspan
                 x="64.840553"
                 y="186.26568"
                 id="tspan29952">010100101001010101010</tspan><tspan
                 x="54.758835"
                 y="191.55733"
                 id="tspan29954">1010101110101001010101110101</tspan><tspan
                 x="47.377934"
                 y="196.84899"
                 id="tspan29956">0101010101011010101010101010101011</tspan><tspan
                 x="41.574326"
                 y="202.14065"
                 id="tspan29958">01010101010101010111010101000100110101</tspan><tspan
                 x="36.846039"
                 y="207.4323"
                 id="tspan29960">01001010101010101101010101101010111010010</tspan><tspan
                 x="32.929008"
                 y="212.72396"
                 id="tspan29962">10110010101101010101010101101010101010101010</tspan><tspan
                 x="29.703846"
                 y="218.01562"
                 id="tspan29964">10101010101010101000101001001000100100010001011</tspan><tspan
                 x="27.062189"
                 y="223.30727"
                 id="tspan29966">0101010101101010101010101011010110101110101010101</tspan><tspan
                 x="24.90744"
                 y="228.59893"
                 id="tspan29968">01010101010110101010010100101010101000100100010010</tspan><tspan
                 x="23.242849"
                 y="233.89059"
                 id="tspan29970">0001110111011011101110111011010101010101010101110010</tspan><tspan
                 x="21.994677"
                 y="239.18224"
                 id="tspan29972">11111100000101010100101010101010101010101010101010101</tspan><tspan
                 x="21.17004"
                 y="244.4739"
                 id="tspan29974">01010101010101010110101001000100010001000100010110100</tspan><tspan
                 x="20.718765"
                 y="249.76555"
                 id="tspan29976">01000101010101010101010101010101010101010101010101101</tspan><tspan
                 x="20.903559"
                 y="255.05721"
                 id="tspan29978">01010101010101010101010101010101011010010001001010101</tspan><tspan
                 x="21.521606"
                 y="260.34887"
                 id="tspan29980">01010010101011010100010100100100010010001000101101010</tspan><tspan
                 x="22.572279"
                 y="265.64052"
                 id="tspan29982">1010110101010101010101101011010111010101010101010101</tspan><tspan
                 x="24.012087"
                 y="270.93218"
                 id="tspan29984">010110101010010100101010101000100100010010000111011</tspan><tspan
                 x="25.927917"
                 y="276.22384"
                 id="tspan29986">10110111011101110110101010101010101011100101111110</tspan><tspan
                 x="28.318102"
                 y="281.51549"
                 id="tspan29988">000010101010010101010101010101010101010101010101</tspan><tspan
                 x="31.232857"
                 y="286.80715"
                 id="tspan29990">0101010101010101101010010001000100010001000101</tspan><tspan
                 x="34.79604"
                 y="292.09881"
                 id="tspan29992">1010001000101010101010101010101010101010101</tspan><tspan
                 x="39.096111"
                 y="297.39046"
                 id="tspan29994">0101010101011010101010101010101010101010</tspan><tspan
                 x="44.312981"
                 y="302.68212"
                 id="tspan29996">101010101101001000100101010101010010</tspan><tspan
                 x="50.836834"
                 y="307.97378"
                 id="tspan29998">1010111010111010101101010101010</tspan><tspan
                 x="59.325283"
                 y="313.26543"
                 id="tspan30000">1010101110101101101010110</tspan><tspan
                 x="72.090477"
                 y="318.55709"
                 id="tspan30002">101010101010101</tspan><tspan
                 x="20.630859"
                 y="326.4955"
                 id="tspan30006"><tspan
                   dx="0 2.6933734"
                   id="tspan30004">01</tspan></tspan></text>
          </g>
          <path
             fill="#000000"
             d="m 102.52943,103.31947 c -11.036019,0 -21.490774,2.47021 -30.861788,6.86734 0.0069,-0.036 0.02297,-0.0673 0.02607,-0.10503 -0.945805,0.43989 -1.881753,0.89945 -2.809498,1.38036 0.04779,0.0149 0.103456,0.0198 0.154345,0.031 -0.17079,0.0903 -0.346485,0.17401 -0.5156,0.26588 -0.01675,-0.0279 -0.03909,-0.044 -0.05275,-0.0722 -0.536948,0.28232 -1.072239,0.56297 -1.599326,0.85842 0.05275,0.01 0.100165,0.0248 0.151055,0.0347 -0.561586,0.31346 -1.11986,0.63191 -1.671578,0.96018 -0.02979,-0.0229 -0.05896,-0.036 -0.08701,-0.0608 0.313654,-0.18381 0.622325,-0.37419 0.935955,-0.55316 -0.316882,0.18381 -0.638747,0.366 -0.954015,0.55316 0.0016,0.002 0.0049,0.003 0.0069,0.005 -0.131382,0.0788 -0.264378,0.15757 -0.395698,0.23635 0.06082,-0.007 0.09358,0.0161 0.146152,0.0211 -0.284051,0.17072 -0.559911,0.35124 -0.840717,0.52525 0.01986,-0.0577 0.03104,-0.10831 0.05276,-0.16743 0,0 -0.0016,0 -0.0033,0.002 0,-0.002 0.0016,-0.003 0.0016,-0.005 -0.05089,0.0329 -0.103455,0.0673 -0.159247,0.10012 0.03103,-0.0198 0.06082,-0.036 0.09358,-0.054 -0.111647,0.0706 -0.226583,0.14113 -0.339906,0.21173 0.03476,-0.023 0.06733,-0.044 0.101779,-0.0656 -0.318557,0.19696 -0.64039,0.39559 -0.955659,0.59907 0.210199,-0.13462 0.423626,-0.26427 0.635464,-0.39392 -0.211813,0.13461 -0.420337,0.27245 -0.632181,0.41035 0,0.0397 0.0081,0.087 0.0099,0.12804 -0.01986,0.013 -0.0391,0.0261 -0.06082,0.0397 -0.01986,-0.031 -0.03289,-0.0673 -0.05771,-0.0952 0.03476,-0.023 0.06733,-0.0459 0.101779,-0.0689 0.0033,-0.007 0,-0.013 0,-0.018 -0.03786,0.0248 -0.0772,0.0509 -0.116612,0.0771 0.0049,0.002 0.0069,0.008 0.0081,0.013 -2.001623,1.29666 -3.939206,2.68195 -5.799617,4.16571 0.01489,0.0428 0.03972,0.0821 0.05586,0.12146 -16.651738,13.33419 -27.328154,33.82131 -27.328154,56.8131 0,40.1831 32.576051,72.76028 72.759597,72.76028 40.18355,0 72.76124,-32.57718 72.76124,-72.76028 0,-40.18475 -32.57769,-72.76029 -72.76124,-72.76029 z m 52.23597,24.26875 c 0.0739,0.12307 0.16093,0.23306 0.22826,0.35943 -1.90146,0.55477 -1.74218,-0.94541 -3.36122,-0.66967 0.6798,1.17355 1.1642,3.59781 2.68799,2.01392 0.13467,0.89617 0.92118,0.28561 1.63546,-0.38406 10.3201,11.67973 16.87833,26.75865 17.75681,43.35089 -0.8719,0 -1.74218,0 -2.60753,0 4.23641,6.58338 -4.80126,9.42124 -8.72898,12.08513 1.19703,2.77877 3.84232,-0.85021 5.37105,0.66966 -0.66009,6.72947 -5.41702,9.35068 -8.72899,13.42939 0.1675,5.1029 0.35635,6.47505 0,11.41219 -6.82751,4.66138 -7.27087,19.03946 -18.13283,17.45229 -1.79966,-4.91416 -1.87027,-11.55991 -4.03116,-16.11133 4.4745,-6.44059 -1.821,-10.74909 -1.34318,-18.79489 -0.90147,-1.11283 -3.52378,-0.50063 -3.35794,-2.68687 -4.18879,1.44602 -7.20026,0.85514 -11.41696,1.34261 -3.0246,-1.67581 -4.23642,-5.16364 -6.71587,-7.38271 2.26435,-6.50461 -1.42692,-13.39984 6.04592,-16.11296 -0.35958,-7.98509 12.348,-9.25056 17.45962,-7.38272 0,0.89453 0,1.78905 0,2.68357 2.63543,0.50224 3.88666,2.38486 6.04592,3.35653 -0.11165,-1.68072 1.03611,-2.10255 2.01804,-2.68686 2.04924,1.30158 1.54186,3.14808 4.7011,2.0172 1.18061,0.38405 3.94414,-0.81246 4.02789,0.6713 0.99669,-0.56953 0.97207,-2.16163 1.34316,-3.35817 -0.61576,-2.29129 -4.1346,-1.68564 -6.0492,-2.68357 -0.91789,-0.85678 -0.91789,-3.17106 0,-4.02947 -4.27582,-0.31185 -0.68965,3.24163 -3.35465,4.02947 -0.44827,0 -0.8949,0 -1.34317,0 0.57797,-2.14358 -1.05582,-2.07629 -1.34317,-3.35653 -1.99835,-0.16575 -2.55007,4.54813 -4.69783,2.01392 4.77828,-0.7862 -2.70604,-6.75901 -3.35793,-4.02783 -0.11494,-1.0045 0.23973,-2.47677 -0.67323,-2.68522 -2.38586,0.74352 -3.93264,2.33397 -6.04592,3.35652 0,0.89453 0,1.7907 0,2.68522 -0.59274,0.30037 -1.19868,0.59088 -1.33989,1.34097 -2.01804,0 -4.03116,0 -6.04921,0 -0.0329,-0.85677 -0.85549,-0.929 -0.66995,-2.01719 0.9885,-1.47392 -0.0772,-5.00115 2.01805,-5.3688 1.93102,-0.93557 3.41212,1.83008 4.02788,0 0.22826,0 0.44497,0 0.67323,0 0.29882,-2.53259 -1.3284,-3.15136 -2.01804,-4.6975 0.0739,-1.26711 2.2233,-0.46613 2.01804,-2.01556 5.72409,-0.31675 5.89157,-6.19439 9.40386,-8.72532 -0.56488,0.77963 -0.88834,1.7989 -0.66995,3.35488 2.47289,0.61712 1.21838,-3.54035 0.66995,-4.02783 -1.55828,-0.2134 -2.57798,0.1067 -3.35794,0.67295 -0.93266,-0.86006 -0.41053,-3.16942 -1.34317,-4.03112 4.24627,-3.80953 5.51883,-10.5948 12.76015,-11.41054 2.16089,0.53014 4.10832,1.27367 5.77991,2.29622 1.40556,1.29173 2.76024,2.64747 4.06564,4.05245 z m -30.00628,7.74709 c 3.49914,0.75337 2.53035,5.97773 5.37433,7.38436 0,0.44478 0,0.89452 0,1.34261 -1.61575,-0.27414 -1.45976,1.22771 -3.35794,0.67294 -1.26927,-0.15099 -1.48109,0.75337 -2.6847,0.66967 2.71755,-3.57154 -0.77503,-6.5243 0.66831,-10.06958 z m -0.66666,8.05402 c -1.12314,0 -2.23808,0 -3.36122,0 -0.26599,-2.50303 0.53856,-3.9392 2.68799,-4.02783 0.77503,0.79441 0.76026,2.37501 0.67323,4.02783 z m -10.74703,-14.09577 c -0.59275,-1.41811 -2.04596,-1.98437 -2.01805,-4.02783 2.68799,0.65818 4.03445,0.65818 6.71915,0 0.1281,0.5433 0.67651,0.66967 0.66995,1.34097 -0.092,2.59331 -2.62231,2.75087 -5.37105,2.68686 z m -4.03117,4.02784 c -1.02954,2.77385 -4.30537,3.30235 -6.71421,4.69749 -0.76191,-0.12475 -0.37603,-0.67295 0,-0.66967 -0.10178,-1.24084 -2.27421,-0.41364 -2.687999,-1.34261 -0.67487,-8.20502 10.136199,-10.10897 9.402209,-2.68521 z m 51.04387,83.91641 c -1.68307,-5.15871 2.03283,-7.21365 4.02788,-11.41218 1.9852,1.59373 -0.80788,4.0623 -0.66995,6.0401 -0.72413,1.24414 -1.62888,2.31429 -1.98519,3.93264 -0.0261,0.0347 -0.0478,0.0739 -0.0739,0.11159 -0.71593,0.15757 -1.00985,0.7386 -1.29884,1.32784 z M 113.47022,105.62554 c -0.044,0.0577 -0.064,0.10174 -0.12152,0.16415 0.42363,0.087 0.9261,0.0919 1.45319,0.0739 1.12643,0.19528 2.24137,0.41526 3.34809,0.66309 -1.08373,0.49405 -1.37602,1.78085 -2.77995,1.94827 -0.48767,2.05166 0.68309,2.44722 0.66666,4.02783 -1.15434,0.26426 -1.72248,-0.99465 -2.01476,0 2.3054,2.97081 -3.29717,5.55591 0,8.05566 -4.89158,2.49646 -11.78314,2.99215 -14.776539,7.38436 -1.45155,1.67908 -2.11822,4.14765 -4.02953,5.3688 -4.791414,-1.37872 -5.717514,-9.28339 -4.27582,-12.31657 0.13796,-0.10012 0.23645,-0.23964 0.23974,-0.4317 -0.087,0.12965 -0.16583,0.27413 -0.23974,0.43003 -0.353002,0.24782 -0.978641,0.16904 -1.096866,-0.4366 3.149386,-8.9108 -7.684665,-6.2978 -9.403863,-11.41219 1.11986,-0.89453 4.275823,0.24454 4.029522,-2.01391 -0.09526,0.013 -0.178982,0.0378 -0.275859,0.049 5.850531,-1.55272 11.993336,-2.39144 18.331535,-2.39144 3.72411,0 7.37595,0.28722 10.94571,0.83708 z m -44.442948,7.52223 c 1.359594,0.44318 2.486019,0.70085 4.019668,-0.63683 -0.876836,-0.0527 -1.922806,0.0623 -2.804569,0.0149 3.167456,-1.61179 6.467922,-2.99379 9.886607,-4.12467 -2.604245,1.34754 -4.326725,3.57647 -5.732293,6.12053 -3.137904,0.30527 -5.582876,0.61551 -7.564795,-0.13952 0.727419,-0.42344 1.454832,-0.84036 2.195382,-1.23428 z m -3.223286,1.82352 c 0.151055,0.32333 0.436782,0.5121 1.203604,0.2183 -0.71428,1.52151 -2.03611,2.43902 -4.029523,2.68522 0.499154,-0.65653 0.715925,-1.1752 0.827579,-1.63969 0.661734,-0.42842 1.321829,-0.85842 1.99834,-1.26383 z m -7.766758,5.42461 c 0.08043,0.0558 0.157634,0.1165 0.23974,0.16575 -0.159248,1.85143 -2.495868,1.53301 -3.35629,2.68687 4.504064,1.3344 4.689613,-4.02291 7.38745,-0.67295 0.27586,-1.61507 -1.226584,-1.45915 -0.669944,-3.35324 0.857139,-0.036 0.929383,-0.8617 2.016407,-0.67131 0.328424,3.82595 2.505722,2.10091 3.356288,4.6975 0.142864,-0.75338 0.745479,-1.04717 1.343172,-1.34098 0.714281,-2.50303 -2.5205,-1.06194 -2.014761,-3.35652 0.09358,-3.71269 5.669903,-1.94005 8.059039,-3.35653 0.01117,1.10955 1.862055,0.37587 2.014762,1.34262 -0.881764,-0.087 -4.85874,-0.10174 -2.686345,0.6713 6.855436,-0.53834 6.748704,4.56126 10.745384,8.0573 -1.320184,-0.20186 -1.333323,0.90602 -2.018044,1.33933 -0.89162,0.10174 -2.024611,-2.7279 -2.684707,-0.66802 1.469616,0.0985 1.443339,1.69057 1.341535,3.35652 -3.330019,-1.09477 -0.379315,0.0805 -2.0164,1.34097 -2.507368,-1.29829 -4.438385,-3.1727 -7.389095,-4.02947 1.648585,-0.58759 3.871882,-0.60235 4.031162,-2.68358 0.499153,-2.06808 -1.847273,-1.28845 -1.343173,-3.35653 -0.985212,0.007 -5.497486,-0.25279 -3.357933,0.67295 0.551718,3.01021 -1.927735,2.99707 -2.68799,4.69914 0.985213,0.58269 2.129698,1.00614 2.0164,2.68522 -0.540237,-0.35453 -1.0903,-0.69921 -2.0164,-0.67131 -0.845644,0.16743 -0.676516,1.33605 0,1.34261 -0.121514,1.13416 -3.19045,-0.31023 -2.687989,-2.01391 -3.182239,1.06687 -4.747086,3.75701 -6.714222,6.04175 0.576357,2.55719 3.131332,3.13659 5.37105,4.02782 0.541851,0.35615 1.093583,0.70085 2.018045,0.66967 -0.486059,2.05331 0.686359,2.44558 0.669944,4.02783 2.290615,-5.3967 4.26104,-4.00649 4.031162,-12.7548 0.571454,0.12147 0.633819,-0.26259 0.669944,-0.6713 0.660089,-0.0577 1.596044,1.77264 4.031162,1.34097 1.706059,0.53182 0.362867,4.11318 2.684705,4.02947 2.174034,0.83051 0.512311,-2.17148 2.687983,-1.34425 2.103434,6.26661 5.756931,9.45736 6.715873,15.44166 -2.052531,0.48585 -2.446616,-0.68608 -4.027884,-0.66967 -2.348089,0.59907 -1.147768,-2.18953 -0.673227,-2.68686 0.965508,-0.37587 1.638736,-1.04881 2.016405,-2.01555 -2.531999,0.63683 -4.550044,4.1657 -6.715867,1.34261 0.555009,1.89574 -0.945804,1.73981 -0.671589,3.35652 -0.124803,0.57122 0.261089,0.63356 0.671589,0.6713 0.520503,0.14938 1.326751,0.0168 1.341528,0.66967 0,0.22649 0,0.44646 0,0.67295 -3.193728,2.06479 -11.52206,4.44637 -12.760145,12.08349 -1.968781,0.0428 -2.49423,1.53464 -3.356289,2.68522 -1.423634,0.59907 1.328395,4.69585 -0.673228,6.04339 -1.623959,-0.84037 -2.17075,-2.75416 -2.687989,-4.69914 -6.10668,-3.542 -17.18047,7.65025 -6.715867,10.07122 0.22497,0 0.448264,0 0.673228,0 -0.24303,-2.12881 3.684695,-3.00692 4.026233,-0.67131 -0.995062,0.57122 -1.443331,1.68729 -1.341528,3.35325 -0.113322,1.45914 2.382571,0.30856 3.357934,0.67294 -0.188851,2.9741 -1.425278,5.54607 2.014762,6.0401 0.522178,0.151 1.328389,0.0199 1.34481,0.67295 2.637086,-0.27245 2.86861,-2.94947 5.372695,-3.35652 1.504089,1.39513 4.33658,1.96795 8.728984,2.01391 0.942521,4.2051 6.04264,4.25433 8.728984,6.71634 0,1.1161 0,2.23384 0,3.35652 4.79799,1.24742 8.33819,3.75045 12.76015,5.36717 -0.63218,6.30927 -4.78977,9.08805 -4.69782,16.1146 -1.80623,0.88467 -3.57304,1.80218 -5.374341,2.68357 -0.622326,4.41355 -3.523779,9.74788 -7.389095,8.72533 -0.274183,1.61835 1.22823,1.45914 0.669944,3.35981 -6.878428,1.94334 -5.348062,6.12545 -6.449855,11.58618 -1.748758,-0.7025 -3.464666,-1.46572 -5.144455,-2.29788 -2.665002,-5.2342 1.793087,-14.89016 0.183885,-24.43452 -1.252862,-7.43687 -11.837329,-11.72404 -9.958858,-20.57739 1.197038,-1.45915 2.589467,-2.72133 3.318525,-4.64826 -4.832464,-7.11353 -14.320064,-9.58209 -21.247751,-14.60129 0.193754,-3.73403 -1.165833,-5.91536 -3.320169,-7.30064 0.111647,1.88096 1.218381,2.76564 1.331685,4.64496 -4.674836,-4.5629 -6.375974,-11.76014 -6.574655,-18.59137 4.320159,-13.56234 12.589373,-25.35531 23.451344,-34.04617 z m 13.668184,55.21936 c 0.231549,2.88054 -2.446609,1.81367 -4.027878,1.34261 0.615766,-1.17355 2.096862,-1.48376 4.027878,-1.34261 z M 59.616851,172.9284 c 1.819363,-2.93306 6.405526,1.17355 8.060683,2.6885 -3.65678,0.0706 -4.200289,-2.96917 -8.060683,-2.6885 z"
             id="path864"
             style="fill:#2357aa;fill-opacity:1;stroke-width:1.64167" />
        </g>
      </g>
      <text
         xml:space="preserve"
         style="font-style:normal;font-weight:normal;font-size:50.8px;line-height:1.25;font-family:sans-serif;fill:#000000;fill-opacity:1;stroke:none;stroke-width:0.264583;filter:url(#filter29518)"
         x="19.610516"
         y="237.22694"
         id="text22362"><tspan
           sodipodi:role="line"
           id="tspan22360"
           style="font-size:50.8px;stroke-width:0.264583"
           x="19.610516"
           y="237.22694">SEPwC</tspan></text>
    </g>
  </g>
</svg>
