<?xml version="1.0" encoding="UTF-8" standalone="no"?>
<!-- Created with Inkscape (http://www.inkscape.org/) -->

<svg
   xmlns:dc="http://purl.org/dc/elements/1.1/"
   xmlns:cc="http://creativecommons.org/ns#"
   xmlns:rdf="http://www.w3.org/1999/02/22-rdf-syntax-ns#"
   xmlns:svg="http://www.w3.org/2000/svg"
   xmlns="http://www.w3.org/2000/svg"
   xmlns:sodipodi="http://sodipodi.sourceforge.net/DTD/sodipodi-0.dtd"
   xmlns:inkscape="http://www.inkscape.org/namespaces/inkscape"
   id="svg2403"
   xml:space="preserve"
   height="268.91519"
   width="286.4375"
   version="1.0"
   sodipodi:docname="sepwc_logo.svg"
   inkscape:version="0.92.3 (2405546, 2018-03-11)"><sodipodi:namedview
   pagecolor="#ffffff"
   bordercolor="#666666"
   borderopacity="1"
   objecttolerance="10"
   gridtolerance="10"
   guidetolerance="10"
   inkscape:pageopacity="0"
   inkscape:pageshadow="2"
   inkscape:window-width="1920"
   inkscape:window-height="1026"
   id="namedview521"
   showgrid="false"
   inkscape:zoom="1.4182101"
   inkscape:cx="115.12512"
   inkscape:cy="174.26371"
   inkscape:window-x="0"
   inkscape:window-y="0"
   inkscape:window-maximized="1"
   inkscape:current-layer="svg2403"
   fit-margin-top="2"
   fit-margin-left="2"
   fit-margin-right="2"
   fit-margin-bottom="2" /><metadata
   id="metadata2408"><rdf:RDF><cc:Work
       rdf:about=""><dc:format>image/svg+xml</dc:format><dc:type
         rdf:resource="http://purl.org/dc/dcmitype/StillImage" /><dc:title></dc:title></cc:Work></rdf:RDF></metadata><defs
   id="defs2406"><clipPath
     id="clipPath2462"
     clipPathUnits="userSpaceOnUse"><path
       id="path2464"
       d="M 0,0 Z"
       inkscape:connector-curvature="0" /></clipPath><clipPath
     id="clipPath2556"
     clipPathUnits="userSpaceOnUse"><path
       id="path2558"
       d="M 0,0 Z"
       inkscape:connector-curvature="0" /></clipPath><clipPath
     id="clipPath8976"
     clipPathUnits="userSpaceOnUse"><path
       id="path8978"
       d="M 0,0 Z"
       inkscape:connector-curvature="0" /></clipPath><radialGradient
     id="radialGradient10980"
     gradientUnits="userSpaceOnUse"
     cy="440.66"
     cx="-64.642998"
     gradientTransform="matrix(3.1101,0,0,-3.1112,198.81,1487.9)"
     r="97.987999"><stop
       id="stop11850"
       stop-color="#fff"
       offset="0" /><stop
       id="stop11852"
       stop-color="#94caff"
       offset="1" /></radialGradient><radialGradient
     id="radialGradient12103"
     gradientUnits="userSpaceOnUse"
     cy="807.87"
     cx="1009.6"
     gradientTransform="matrix(0.33078,-1.6666,1.1545,0.22916,-165.22,2298.8)"
     r="269.54999"><stop
       id="stop12107"
       stop-color="#6a0000"
       offset="0" /><stop
       id="stop12109"
       stop-color="#569b0f"
       offset=".57333" /><stop
       id="stop12111"
       stop-color="#4ce72c"
       offset="1" /></radialGradient><filter
     id="filter13813"
     height="2.4914"
     width="1.4287"
     y="-0.7457"
     x="-0.21435"><feGaussianBlur
       id="feGaussianBlur13815"
       stdDeviation="44.120537" /></filter><radialGradient
     id="radialGradient4615"
     gradientUnits="userSpaceOnUse"
     cy="139.37"
     cx="99.958"
     gradientTransform="matrix(-0.53750631,3.4527421,-3.1281084,-0.48694254,636.7546,-163.96012)"
     r="45.07"><stop
       id="stop4611"
       stop-opacity="0"
       offset="0" /><stop
       id="stop4623"
       stop-opacity=".023529"
       offset=".49270" /><stop
       id="stop4621"
       stop-opacity=".035294"
       offset=".57087" /><stop
       id="stop4619"
       stop-opacity=".066667"
       offset=".63646" /><stop
       id="stop4617"
       stop-opacity=".14894"
       offset=".69579" /><stop
       id="stop4625"
       stop-opacity=".21277"
       offset=".73030" /><stop
       id="stop4613"
       stop-opacity=".54610"
       offset="1" /></radialGradient><filter
     style="color-interpolation-filters:sRGB"
     inkscape:label="Blur"
     id="filter1562"><feGaussianBlur
       stdDeviation="3 3"
       result="blur"
       id="feGaussianBlur1560" /></filter><filter
     style="color-interpolation-filters:sRGB"
     inkscape:label="Blur"
     id="filter1596"><feGaussianBlur
       stdDeviation="3 3"
       result="blur"
       id="feGaussianBlur1594" /></filter><filter
     style="color-interpolation-filters:sRGB"
     inkscape:label="Blur"
     id="filter1153"><feGaussianBlur
       stdDeviation="2 2"
       result="blur"
       id="feGaussianBlur1151" /></filter><filter
     inkscape:collect="always"
     style="color-interpolation-filters:sRGB"
     id="filter1155"
     x="-0.19872166"
     width="1.3974433"
     y="-0.20956638"
     height="1.4191328"><feGaussianBlur
       inkscape:collect="always"
       stdDeviation="5.3599223"
       id="feGaussianBlur1157" /></filter><filter
     inkscape:collect="always"
     style="color-interpolation-filters:sRGB"
     id="filter1353"
     x="-0.19871536"
     width="1.3974307"
     y="-0.2095734"
     height="1.4191468"><feGaussianBlur
       inkscape:collect="always"
       stdDeviation="5.3548059"
       id="feGaussianBlur1355" /></filter><filter
     inkscape:collect="always"
     style="color-interpolation-filters:sRGB"
     id="filter1387"
     x="-0.20433697"
     width="1.4086739"
     y="-0.20366414"
     height="1.4073282"><feGaussianBlur
       inkscape:collect="always"
       stdDeviation="5.1983159"
       id="feGaussianBlur1389" /></filter><filter
     inkscape:collect="always"
     style="color-interpolation-filters:sRGB"
     id="filter1445"
     x="-0.21509901"
     width="1.430198"
     y="-0.19399019"
     height="1.3879803"><feGaussianBlur
       inkscape:collect="always"
       stdDeviation="4.9566109"
       id="feGaussianBlur1447" /></filter></defs><path
   style="fill:none;fill-opacity:1;stroke:#ffff9c;stroke-width:1.70183825;stroke-miterlimit:4;stroke-dasharray:none;stroke-dashoffset:0;stroke-opacity:1"
   id="path595"
   sodipodi:type="arc"
   sodipodi:cx="143.53258"
   sodipodi:cy="115.55806"
   sodipodi:rx="112.64908"
   sodipodi:ry="112.64908"
   sodipodi:start="3.1415927"
   sodipodi:end="0"
   d="M 30.883499,115.55805 A 112.64908,112.64908 0 0 1 143.53258,2.9089813 112.64908,112.64908 0 0 1 256.18166,115.55806"
   sodipodi:open="true" /><g
   transform="matrix(0.522275,0,0,-0.522275,-252.34125,266.16934)"
   id="g2456"><g
     id="g2458"><g
       clip-path="url(#clipPath2462)"
       id="g2460"><text
   transform="matrix(1,0,0,-1,47.37,20.402)"
   id="text2466"><tspan
     style="font-size:7.92000008px;font-family:Times;fill:#ffffff"
     x="0 3.96 7.9200001 11.88 15.84 17.82 20.900881 24.86088 28.820881 30.80088 34.76088 38.720879 40.700878 44.660881 48.62088 50.822639 54.782639 58.742641 60.944401 64.904404"
     y="0"
     font-size="7.92px"
     id="tspan2468">2008 Jun 12 04:45:24</tspan></text>



</g></g></g><g
   transform="matrix(0.522275,0,0,-0.522275,-252.34125,266.16934)"
   id="g2550"><g
     id="g2552"><g
       clip-path="url(#clipPath2556)"
       id="g2554"><text
   transform="matrix(1,0,0,-1,134.16,20.88)"
   id="text2560"><tspan
     style="font-size:6.96000004px;font-family:Times;fill:#000000"
     x="0 5.0251198 11.21256 15.85488 17.594879 19.91256 21.652559 27.84 30.930241 33.247921 35.1828 37.11768 40.597679 42.337681 48.907921 51.998161 53.933041 57.41304 60.503281 62.43816"
     y="0"
     font-size="6.96px"
     id="tspan2562">OMC - Martin Weinelt</tspan></text>



</g></g></g><g
   transform="matrix(0.522275,0,0,-0.522275,-252.34125,266.16934)"
   id="g8970"><g
     id="g8972"><g
       clip-path="url(#clipPath8976)"
       id="g8974"><text
   transform="matrix(1,0,0,-1,408.32,40.076)"
   id="text8980"><tspan
     style="font-size:13.92000008px;font-family:Times;fill:#000000"
     x="0 6.96"
     y="0"
     font-size="13.92px"
     id="tspan8982">km</tspan></text>



</g></g></g><g
   id="g1631"
   transform="translate(-17.375074,-40.154366)"
   style="opacity:0.51799999"><g
     id="ce"
     transform="matrix(0.5743125,-0.1772375,0.1772375,0.5743125,94.4825,17.9925)"><path
       id="path10955"
       d="m 37.058,439.28 c 103.56,0 187.57,-84.39 187.57,-187.92 0,-102.87 -84.01,-187.27 -187.57,-187.27 -102.82,0.004 -187.55,84.4 -187.55,187.27 0,103.53 84.728,187.92 187.55,187.92 z"
       style="fill:url(#radialGradient10980)"
       inkscape:connector-curvature="0" /></g><g
     id="g2650"
     transform="matrix(0.522275,0,0,-0.522275,10.17,306.405)"><path
       id="path2652"
       d="m 946.25,360 -13.22,1.19 -2.09,0.31 h 2.4 l -7.22,1.81 -3,0.28 1.82,-0.28 h -2.69 l 3.28,-0.31 2.09,-0.31 0.63,-0.6 -2.13,0.32 1.5,-0.6 -4.5,0.88 h -0.59 l 0.31,0.31 h -2.4 l -0.91,0.31 h 2.09 l -1.78,0.6 v -0.32 l -0.59,0.32 h -0.63 l -2.09,0.28 0.91,-0.28 -1.82,0.28 h -0.59 l -2.41,0.31 h -1.78 l -6.31,1.19 -3,0.31 -0.59,0.31 -0.6,0.28 h -0.31 l 0.31,-0.28 -9.31,1.19 -1.19,0.59 1.28,-0.21 0.22,0.21 h -1.5 -0.31 l -2.09,0.32 2.68,0.28 h -3 l -1.78,0.31 -0.31,0.31 V 369 l -2.41,0.59 0.63,-0.28 -1.81,0.6 0.9,-0.6 -6.59,1.5 -1.22,0.6 h -1.5 l -1.5,0.28 -0.59,0.31 h -0.32 l -1.5,0.59 1.22,-0.59 h -0.31 l -2.69,0.91 0.91,-0.6 -3,0.88 -0.31,0.31 -0.6,0.31 -1.81,0.6 2.09,-0.91 -4.18,1.19 -0.91,0.31 -1.19,0.59 0.28,-0.28 -1.18,0.28 -1.13,0.38 -1.87,0.84 1.18,-0.62 -2.68,1.22 0.59,-0.32 -1.19,0.32 -1.81,0.59 -0.28,0.31 -1.22,0.28 h 0.31 l -0.59,0.32 -1.5,0.59 0.28,-0.31 h -0.28 l -1.81,0.9 -2.41,1.22 h -0.59 l -0.6,0.28 -0.31,0.32 -1.78,0.9 h -0.63 l -1.18,0.6 -0.32,0.28 -1.18,0.62 -1.22,0.6 h -0.6 l -0.9,0.28 -3,1.5 -0.88,0.31 -4.22,2.09 -0.87,0.32 -3,1.5 -0.63,0.59 -2.37,1.19 -0.91,0.31 -1.22,0.59 -0.59,0.6 -3,1.5 -0.59,0.62 -1.82,0.88 -0.59,0.62 -0.91,0.28 -1.78,0.91 -0.59,0.59 -1.22,0.6 -0.59,0.62 -1.82,0.88 -0.59,0.62 -0.59,0.28 -4.82,3.32 -4.78,3 -11.4,8.68 -0.13,0.07 -0.47,0.25 -0.31,0.28 -0.59,0.31 -0.6,0.59 -0.59,0.32 -0.31,0.59 -0.1,0.03 -0.5,0.28 h 0.19 l -1.09,0.88 -3.91,3.31 -0.91,0.59 -0.59,0.32 -1.19,1.18 -0.9,0.6 -2.41,2.4 -0.91,0.6 -4.18,4.22 -0.91,0.59 -0.91,0.91 -0.28,0.28 -1.43,1.47 -0.07,0.03 -1.22,1.22 -0.03,0.06 -1.12,1.09 -0.03,0.03 -1.19,1.22 -1.16,1.16 -0.06,0.03 -0.28,0.31 -0.63,0.6 -0.28,0.59 -3.31,3.31 -0.28,0.28 -0.31,0.6 -0.6,0.62 -0.06,0.03 -0.53,0.25 -0.31,0.6 -0.94,0.93 -0.03,0.04 -0.22,0.25 -0.31,0.59 -1.5,1.5 -0.32,0.59 -1.18,1.22 -0.32,0.6 -1.18,1.18 -0.32,0.6 -1.18,1.22 -0.32,0.59 -1.18,1.19 -0.32,0.62 -0.59,0.6 -0.28,0.59 -0.63,0.59 -0.28,0.6 h -0.31 l -0.28,0.62 -0.63,0.6 -0.28,0.59 -0.59,0.59 -0.63,1.22 -0.59,0.6 -0.28,0.59 -0.63,0.59 -0.28,0.6 -0.59,0.62 -0.63,1.19 -0.59,0.59 -0.34,0.69 -0.25,0.53 -0.1,0.1 -2.31,4.09 0.91,-0.91 -1.19,1.5 -0.63,1.22 -0.28,0.28 -0.9,1.82 0.31,-0.32 -1.22,2.41 -0.91,1.19 -0.59,1.22 -0.28,0.9 -0.31,0.28 -0.6,1.22 -0.31,0.6 -3.28,5.68 -2.13,2.72 v 0.6 l -0.87,0.9 -1.5,2.38 -0.31,0.9 -2.41,3.91 -1.19,3 -0.9,1.19 -0.32,1.22 -0.28,0.59 3.28,-4.81 7.82,-12.6 3.31,-4.5 1.78,-0.9 h 0.91 l 1.81,-0.28 1.5,2.4 0.59,-1.81 0.6,0.31 0.9,-1.81 -0.9,2.41 h 0.59 l 0.91,-1.22 -0.6,0.31 0.91,-0.91 v -1.5 l 0.87,0.32 -0.87,1.5 1.31,-1.53 1.06,-1.47 1.5,-3 -0.59,1.78 0.38,-0.63 0.84,-0.56 0.34,-0.53 0.53,-0.38 0.32,-0.59 1.5,-3 0.9,-0.59 -2.4,3.59 2.4,-2.41 1.5,-1.5 0.6,0.91 -2.1,0.59 -2.72,4.22 -2.37,1.78 3.59,-1.78 3.91,-4.81 -2.41,3.59 2.1,-0.59 2.4,-2.41 h 1.5 l 0.6,3.6 1.18,-1.19 -0.87,1.5 0.28,1.81 1.5,-1.22 -1.19,0.32 2.1,-3.32 4.5,-2.09 v 0.91 l 1.18,-0.91 -0.59,1.5 2.41,-1.19 -1.19,0.88 0.87,0.31 -0.59,1.19 1.5,0.9 1.5,-1.78 -0.59,2.1 3.59,1.78 -2.09,0.31 0.59,3 -1.5,-0.31 0.91,-1.78 -3,-0.91 -2.41,2.09 -0.91,2.41 3.91,-1.19 -0.28,1.78 0.87,-0.9 2.72,3.31 0.6,0.31 1.5,-3.62 -1.19,-2.1 1.5,-4.5 2.69,-2.09 -0.32,-1.19 2.72,-0.9 -0.9,-1.22 0.9,-1.19 0.28,-1.81 0.32,2.72 1.81,0.59 2.09,-2.41 v -3 l -2.09,-2.09 -6.63,-0.91 3.32,-0.28 1.81,-1.22 3.87,2.1 2.41,-0.6 1.22,-0.28 2.09,11.38 h 0.28 l 4.22,-0.6 1.5,2.41 3.28,0.31 0.91,-2.12 0.59,1.22 -0.28,-2.1 0.6,1.5 0.59,-1.5 2.09,-0.9 1.22,-2.1 -1.81,-0.62 2.09,-0.88 0.32,-2.4 -3.6,-1.22 -1.5,-0.6 1.78,0.6 0.32,-0.28 0.59,-0.32 0.31,-0.28 0.6,-0.31 0.31,-0.59 0.59,-0.32 0.28,-0.28 0.63,-0.31 0.28,-0.31 0.59,-0.28 0.32,-0.32 0.59,-0.28 0.31,-0.31 0.6,-0.31 -1.5,-0.28 3.31,-1.5 h -0.91 l 0.91,-0.6 v -2.12 h 1.19 v -0.88 l 0.31,0.28 0.28,-1.18 0.59,0.59 0.63,-1.81 -0.31,1.5 2.09,-0.6 0.91,-2.68 0.9,0.59 0.91,-1.81 0.87,-0.28 -0.87,-0.91 h 2.09 l -0.9,-0.91 h 1.81 l 1.5,-1.18 -0.63,-1.22 0.91,0.62 3,-3.62 h 1.22 l 0.28,-0.88 -2.69,0.28 -1.5,1.5 -0.59,-0.9 -0.63,1.22 -1.18,-0.6 -2.1,1.19 2.1,-1.81 h -3.32 l 2.13,-1.78 -2.41,0.28 3.28,-1.19 -0.28,-2.69 h 1.19 l -0.91,0.88 2.13,-0.6 v -0.59 l 2.69,-1.19 0.31,-1.81 v 1.81 l 4.19,-1.81 h -1.19 l 1.5,-3 1.78,-0.59 V 435 l 3.91,-3.31 -1.5,-0.6 2.68,-4.5 -1.18,-0.59 -3,2.09 -3,0.32 V 429 l -3.32,1.81 -5.09,0.28 -3,3.32 -6.59,3.59 -3.91,0.59 -1.5,-2.4 -2.09,2.12 -7.5,4.78 h -1.5 l -2.41,1.5 2.09,-1.78 -1.78,0.28 0.28,-0.59 0.91,-1.19 1.5,-0.9 5.41,-5.1 8.4,-3.9 2.1,-4.5 12.31,-11.1 0.28,-2.4 h 1.22 l 6,-2.41 1.19,-1.5 -1.5,0.31 3.31,-1.5 5.09,-1.22 3,0.91 1.19,-0.59 0.91,1.5 1.5,-0.91 -0.91,1.19 0.91,0.62 2.68,-1.5 v -0.9 h 0.63 l 2.09,-1.82 1.19,-0.28 -3.91,3 -1.5,1.19 2.13,0.31 -1.22,2.1 3.31,0.59 5.69,-5.09 -0.28,1.18 -4.5,3.32 2.69,0.9 2.09,-1.5 -3,3.6 3.59,-2.1 -0.59,1.19 -2.41,1.19 3.63,1.22 4.78,-2.41 0.31,1.19 1.5,-0.88 1.19,0.28 2.09,-2.09 0.32,0.59 1.81,-2.68 -5.13,1.5 0.63,-0.91 h -5.72 l -0.28,-0.91 8.09,-1.78 1.78,-1.22 -3.87,-0.28 5.69,-1.81 -0.32,1.19 2.41,-2.38 h 1.19 0.03 l 0.87,0.28 -0.9,0.6 9.31,-2.69 -3.31,-1.81 -1.19,0.9 -2.41,-0.28 h -0.59 l -3.91,2.69 0.32,-0.91 h -2.1 l 0.6,0.6 -2.1,0.31 -0.59,-1.5 -3.63,0.31 2.13,-1.22 3,0.32 -0.63,-0.6 0.91,0.28 1.5,-0.9 0.59,-1.19 -2.37,0.59 -0.31,0.6 h -1.82 l 3.32,-1.19 -1.19,-0.31 0.87,-0.88 2.13,-2.12 2.69,-0.88 1.81,-1.5 3.87,-0.9 0.32,-2.1 -1.5,0.88 -0.6,1.5 -0.31,-1.78 -3.28,0.59 h -1.22 l 1.5,-0.59 -3,0.59 4.22,-1.19 v 0.6 l 4.78,-1.82 0.91,-1.5 4.5,-2.4 h 1.5 l -1.22,1.22 3,-0.6 2.4,-1.5 5.41,-1.5 3.31,-0.9 2.1,-1.82 1.81,0.6 0.28,-0.28 -0.59,-0.91 3.59,-0.31 h 0.31 l 1.19,-0.6 2.41,-1.78 0.31,0.88 h 0.28 l 0.31,-0.28 h 0.28 l 2.13,-1.82 1.5,-0.59 1.5,0.31 1.19,-0.9 -2.1,-0.32 8.69,-0.9 4.81,-0.28 h 0.88 0.03 0.28 l 12.59,-1.5 2.1,0.28 -0.28,0.31 3,-0.31 1.5,0.62 1.18,-0.62 -0.31,0.62 h 1.22 l 2.09,-0.62 2.69,-0.28 0.31,-0.6 0.32,0.28 0.28,0.32 2.72,-0.6 0.87,-0.31 h 0.03 l 2.69,-1.19 h 3.91 l 1.5,-0.62 -4.5,-0.88 -0.6,-0.62 h -0.03 l -3.87,-0.28 -0.32,-0.6 h 0.26 L 949.53,366 h 5.09 l 0.91,0.59 7.5,-0.28 -3.59,-0.62 h 1.78 l -1.19,-0.6 -6.28,-0.59 h -0.03 v 0.31 l -0.6,-0.31 -2.09,0.31 h -2 v -0.03 l 1.41,-0.28 -1.5,-0.59 0.87,-0.32 h 0.03 l 2.41,0.32 2.37,-0.6 2.13,0.28 4.47,-0.9 -1.19,-0.28 h -0.91 l -3.87,-0.32 h 2.69 l -0.6,-0.59 h -4.81 l -1.5,-0.31 1.5,-0.28 -4.19,0.28 -0.9,-0.28 h -2.69 l -0.91,0.28 -0.9,-0.28 -3.32,0.28 1.82,-0.28 -0.6,-0.32 6.6,-0.28 V 360 Z m 4.13,6.31 1.56,0.6 -1.5,-0.6 z m -218.82,120.57 -2.22,3.03 2.69,-3.6 z m -3.22,-13.97 0.35,-0.63 -0.47,0.75 z m -0.12,0.12 -0.38,0.38 -0.59,1.18 z m 128.09,-97.06 0.81,-0.38 -1.18,0.47 -0.13,0.06 z m 91.41,-13.28 0.31,0.31 -0.59,0.31 V 363 Z m 24.31,3.31 1.81,0.59 h -2.4 l -0.6,0.32 -1.81,-0.32 0.31,0.32 -1.5,-0.32 -2.09,0.32 2.97,1.18 h 0.03 l 3.28,0.6 2.09,0.31 -0.28,-1.19 0.6,2.1 6,2.68 4.5,2.41 4.5,0.91 2.09,1.18 h 0.59 l 0.32,0.32 h 1.81 l -0.31,-1.22 1.81,0.31 2.09,1.5 -0.59,0.59 2.09,0.32 5.46,2.68 3,0.32 -1,1.18 h -0.3 l -0.9,1.22 2.7,2.1 4.5,2.09 0.6,3 -1.8,-0.91 v 1.5 l 1.2,0.6 4.2,0.9 -2.7,0.32 1.2,-0.6 -2.7,-0.31 2.7,4.19 0.9,-0.28 1.8,0.9 h 0.3 0.3 2.7 0.3 l 1,1.19 2,0.31 -0.9,1.5 2.1,1.78 -1.5,0.6 6.3,1.81 -4.5,1.81 -1.2,-0.9 -0.9,0.59 -0.9,-0.91 -2.1,0.6 0.9,1.81 -1.8,1.19 4.8,1.81 0.3,2.09 -1.4,1 -1,-0.4 -0.1,1.19 -4.7,3.31 -2.1,-1.78 -2.7,0.28 1.2,-0.6 -1.2,-0.59 -4.2,1.19 1.2,3 -1.8,-0.88 -1.2,1.78 -1.2,-1.5 -1.8,0.91 2.7,2.41 2.7,0.9 -0.3,0.88 -0.3,0.62 h 2.4 l -1.2,0.28 1.2,2.72 -1.2,-0.62 -0.9,1.81 0.9,0.59 0.4,-0.9 0.5,6 2.1,1.22 -1.5,0.28 4.9,1.22 -2.8,5.09 4.5,2.69 4.5,-0.25 -1.2,1.47 -2.4,0.28 -2.4,0.31 v 1.19 l 1.8,0.62 -1.8,1.19 5.8,0.59 -3,1.22 -7.3,-3.62 2.7,1.81 0.9,3.31 4.2,1.5 1.8,1.78 2.7,2.72 1.8,-2.12 3,-0.28 2.7,1.18 1.2,2.1 2.4,-0.28 -2.7,0.59 -4.8,-3 -1.2,2.09 3.9,3 2.4,6.91 -5.1,1.19 2.1,-3 -3.3,-6.28 -2.7,-0.6 -3.6,-3.31 -3,-2.41 -3,-0.9 -3.6,-4.19 -1.8,0.31 -2.1,1.19 3.6,4.5 v 2.69 l 3.6,3.31 1.5,1.19 1.5,-0.88 3.3,1.19 1.5,3.31 -6.3,-1.22 0.9,-0.28 -8.7,0.88 v 1.5 l 3.3,1.81 -1.2,1.19 v 0.03 l 0.6,1.19 -2.7,-1.5 -0.9,2.4 -2.6,1.19 v 1.81 l -2.5,0.6 -0.9,-2.41 0.9,-0.91 -0.9,0.32 -0.6,3.31 -0.86,-0.91 -3.91,4.19 1.5,0.91 -2.09,0.59 0.9,2.72 -2.4,1.19 -2.69,-1.82 2.09,-2.37 -0.9,-0.91 -6.32,-0.9 2.41,1.18 3.91,9 -4.19,-1.5 -1.81,2.72 -0.91,1.78 0.31,0.63 0.28,0.87 0.32,0.63 1.5,2.09 h -0.91 l -3.28,-0.31 -0.63,0.91 0.63,-1.22 -3.31,-0.6 -0.32,1.82 3.63,1.18 -0.63,2.41 -6,-2.09 -2.09,-3.32 0.59,-2.09 -3.87,-1.19 1.19,-0.9 -3.91,-2.41 14.09,2.09 1.22,-1.78 -0.31,-0.62 -0.28,-0.88 -0.31,-0.62 -1.19,-3.6 -0.91,-0.9 -8.72,-2.69 -2.68,0.31 -0.6,1.5 0.28,-2.12 -2.09,0.31 -0.59,-1.19 h 1.81 l -1.81,-0.9 -1.19,1.78 -1.81,-1.19 -0.91,1.19 -1.5,-1.19 -0.59,-0.91 2.68,0.32 1.22,-1.5 -3.59,-1.5 -1.5,2.09 0.87,-2.41 -1.5,-0.28 -0.59,2.38 -0.91,0.62 v -2.4 l -1.78,3.59 0.6,-3.31 -1.82,-0.28 -1.5,3.9 v 0.28 l -0.28,-0.28 h -0.59 l -0.63,0.28 h -1.18 l 0.59,0.91 -1.5,-0.91 -2.09,2.72 h -0.32 l 0.32,-0.62 V 480 l -0.6,1.19 v -1.5 l -1.22,0.9 0.91,1.5 -2.09,-0.9 -0.91,3 -2.09,0.62 2.4,0.28 -2.72,0.32 v 2.09 l -0.59,-1.81 -1.5,0.9 1.22,0.6 h -1.81 l 1.5,1.22 -2.69,1.18 1.78,0.6 -3.59,0.62 0.9,0.6 -2.09,2.4 2.09,-0.31 -3,0.59 0.91,1.22 -0.91,-0.62 -1.5,3 1.78,-0.28 -3.59,1.5 1.81,-0.32 -1.81,0.91 0.91,1.19 -1.5,0.31 -0.32,-1.19 -3.59,3.6 1.81,0.59 2.41,-2.09 -1.22,2.68 -2.41,0.32 -0.28,-1.22 -2.4,0.62 -0.32,2.38 -1.5,-0.88 1.22,1.5 -3,-1.5 2.1,1.5 -3.91,-0.31 1.5,2.41 -0.91,-1.22 -0.59,0.9 -1.19,-0.59 0.6,0.91 -2.41,-1.22 v 1.5 l -0.91,1.22 1.82,0.9 -2.1,-0.31 1.5,0.59 -1.22,0.91 h -0.59 l 1.22,0.91 -1.5,0.28 0.59,1.22 1.19,-0.6 -1.78,1.19 0.28,1.19 1.22,-1.19 -1.22,2.09 4.22,-2.09 -5.13,3.59 0.63,1.22 2.37,-0.9 -2.09,1.78 1.81,0.31 -0.9,0.91 -1.5,-1.22 -0.32,2.12 2.72,3 3,-0.31 3.91,-3.91 2.09,0.6 1.19,-3.6 0.31,6.6 h 1.19 l -0.59,2.12 1.18,-1.81 -0.87,2.69 2.37,5.12 -1.5,1.19 0.63,4.19 3.59,0.31 1.78,-3.59 3,0.59 2.41,-6 -0.28,-4.5 1.19,0.31 -1.82,-0.9 3.32,-0.6 0.31,-1.81 0.59,1.81 2.1,-2.12 -1.5,-0.6 2.4,-1.18 -2.4,-3.91 -2.1,-0.31 1.5,-9.88 1.19,1.19 3.91,-3.31 1.5,-1.19 1.81,-2.69 -0.91,-3.62 1.19,0.62 -0.28,-2.4 1.5,0.9 0.28,-1.5 h 3.59 l 2.13,3.28 -8.41,9.6 1.5,5.72 -0.59,3.59 2.69,1.81 1.18,-0.9 -0.28,2.4 12.91,-4.81 0.28,1.81 4.22,1.19 -5.13,1.19 -0.28,1.81 -5.4,-0.91 -5.1,2.41 0.91,3.59 h 2.09 l -0.31,4.82 -1.78,1.18 -2.72,-3.28 -2.41,0.88 -1.78,4.5 0.47,3.84 -1.37,2.78 -1.5,0.6 v 1.18 h 1.18 l -1.18,0.6 -1.82,1.5 1.5,-2.1 -3,1.5 -2.37,-2.4 -9,3.31 -0.31,1.81 -4.19,-3.9 -6,1.78 0.87,-2.1 -2.68,0.32 -1.5,-2.72 0.9,-3.6 4.19,-3 -2.09,-1.5 2.09,-4.18 -5.69,2.09 -2.72,10.19 1.22,-0.28 0.6,1.78 -1.19,0.62 3,3.88 -3,-2.1 -0.91,2.41 -1.22,-1.81 -2.37,0.31 0.59,1.81 -4.22,-1.5 -1.78,1.19 0.91,2.41 -1.81,1.18 -0.91,-3.28 -3,4.19 1.5,1.5 h -3.59 l 2.09,1.19 -7.78,0.9 -0.63,3 -1.18,0.6 -4.82,2.4 -4.78,-3 v 5.1 l -3.9,-0.28 -0.6,-2.1 -5.4,0.6 1.5,1.5 -1.5,-0.6 v 2.38 l 5.4,3 0.6,4.81 1.81,1.19 -1.22,2.72 0.31,0.9 -4.22,9.28 -16.78,-4.78 -1.5,-2.12 -6,1.81 1.19,3.91 -3.91,9.59 -4.18,5.41 1.81,-0.32 -1.5,2.1 1.78,0.62 h -0.59 l -2.41,6 7.22,0.88 2.69,7.22 5.09,-2.1 7.81,1.78 3.28,-3 2.72,0.32 1.5,-3.32 1.78,-0.9 1.19,-0.28 -0.59,-1.19 v -0.03 l -0.88,-0.88 0.91,-3 0.87,-0.62 4.5,-4.5 8.13,-2.38 v -4.5 l 1.78,-1.81 2.72,-0.91 6.59,3.6 9.6,-5.38 4.5,2.69 2.09,7.5 15.31,12.31 1.78,5.38 -2.37,3.9 1.5,0.6 2.09,-4.19 2.41,-0.91 -2.41,-3.59 1.5,-3 3.28,0.59 1.82,2.41 0.59,-1.5 -9,-6.59 0.91,-2.1 -4.82,-0.62 -3.28,-7.5 -3.9,-3.28 -0.32,-5.41 4.5,-1.5 0.91,4.81 2.41,-2.4 4.18,8.4 3,0.88 3,2.72 -2.37,-0.91 6,2.41 2.69,3.28 -1.19,6.62 2.69,3.28 2.68,3.6 1.5,-0.6 -1.5,1.22 1.5,2.1 7.82,0.59 -1.19,1.19 -5.72,-1.19 -0.91,1.81 2.13,4.78 1.78,-0.9 1.22,3 0.59,-2.1 2.1,1.82 -1.82,-5.41 3,0.59 -2.09,-2.09 2.09,-0.91 1.82,1.82 v -2.41 l -5.69,-3 1.78,-0.91 -0.28,-1.5 1.5,0.6 -3,-6 1.19,-0.6 3.9,3 -0.9,-1.78 2.4,0.88 -2.72,-2.69 5.13,-1.5 6,1.19 -2.13,3 4.5,-4.5 5.13,-0.6 -5.13,-6.28 -1.18,0.28 3.59,-5.68 0.31,-6.91 0.6,1.5 2.09,-1.19 -0.59,-4.5 0.47,0.94 -0.16,0.25 0.19,-0.22 0.09,0.22 0.38,-0.72 1.71,-1.97 0.63,-2.12 3.59,-2.1 1.78,1.82 -3.28,-0.32 1.78,0.6 -0.59,0.9 6,-0.28 0.31,1.5 -3.31,2.38 2.09,-0.28 1.22,3.9 2.1,0.6 7.86,-6 -3.68,0.9 h -1.78 l -2.09,-2.4 1.78,-3 -0.28,2.09 2.37,-3 9.68,-4.81 -1.3,3.31 -2.7,0.31 2.1,1.5 -1.5,4.5 -2.6,1.5 12.5,5.69 5.7,2.41 2.1,3.59 -0.9,2.41 -3.6,3 -0.3,0.28 -5.7,1.22 -6.8,-0.32 -5.46,-3.28 -5.72,1.19 -6.59,5.09 -7.19,0.32 0.6,1.78 2.4,0.31 -3.31,0.59 v 1.5 l -7.78,0.32 -2.13,2.4 -0.28,2.1 3.28,-0.6 -0.59,4.5 1.81,0.6 -1.81,0.9 -0.91,-1.81 -0.59,2.09 3.91,1.22 -0.91,1.5 2.41,1.78 -1.19,1.22 3.87,-0.62 -3.28,2.12 3.91,-1.22 4.78,3 2.72,-0.59 0.59,-3.31 h 2.1 l 6.31,3 4.19,-1.5 2.06,-3 2.8,0.62 2.6,-1.81 -0.6,6 1.8,4.81 -4.5,15.88 -8.07,2.72 -1.19,-2.41 -3.31,0.31 -7.5,4.5 -8.69,-2.4 h -6.9 l -1.19,-1.82 -6.63,-0.59 -0.87,-2.41 -5.41,-1.18 -6.59,3.59 v 6.31 h -0.31 l -4.19,2.69 -4.5,-3.31 -8.41,-2.38 -2.09,-4.81 -6.91,-2.69 h -4.22 l -7.78,-5.4 -0.59,-1.82 4.78,-4.5 -2.09,-4.5 2.4,-4.18 -2.4,1.5 -2.1,-3.32 -7.22,1.5 -5.37,-1.78 -4.22,1.5 -5.09,-2.12 h -10.5 l -4.5,2.4 -3.32,-0.28 -4.18,2.1 -3.32,-0.91 v -1.5 l -6.28,-0.59 -1.81,-3.91 h -1.78 l -5.13,7.19 -10.5,3.9 -3.28,4.5 -0.9,6.32 -0.32,0.28 -2.68,2.4 -5.69,3 -5.41,-0.28 -4.22,4.78 -3.28,0.91 -3.31,6 -4.5,2.41 0.91,-0.32 -6.91,7.5 -1.19,3.91 0.91,-0.91 1.5,5.1 -2.13,3 0.63,7.81 -3.63,8.09 -4.18,2.41 3,5.41 -0.32,2.09 3.63,0.91 h -3 l -1.22,-1.5 -0.91,3.59 2.13,0.91 -2.13,-0.32 2.72,1.5 -1.5,0.6 1.78,1.22 -0.28,0.9 3.91,0.6 h -2.41 l 1.78,1.18 -2.09,0.6 0.91,1.81 1.18,-0.31 -0.59,0.9 h 1.5 l 0.59,3.91 1.5,1.81 1.82,1.5 -0.91,0.88 1.5,1.22 0.31,3.59 1.19,0.31 h -1.78 l 3,3.88 -0.31,1.5 5.09,4.22 9.59,11.4 5.13,3.6 5.69,-0.91 9,1.19 8.68,4.5 9,-1.5 6,-1.19 11.13,0.31 -2.13,0.6 4.82,0.9 2.68,2.69 1.5,-0.59 -1.5,0.9 2.13,0.88 -1.5,-0.28 0.87,0.9 1.22,-0.31 -1.5,1.19 3,3.9 3.28,0.32 v -0.91 l 0.63,0.91 -0.31,-1.22 0.9,1.22 0.28,-1.22 1.22,1.22 4.5,0.28 -0.31,-1.78 1.5,2.09 1.22,-0.91 1.78,3.32 2.41,-0.32 0.31,1.22 h -1.22 l 2.09,3 -3,7.19 1.5,0.59 v 2.41 l -1.78,-0.59 3.28,1.78 -2.37,0.31 -0.63,-1.5 -1.18,4.19 -1.82,-0.6 4.22,6.91 9.91,8.41 2.09,4.78 2.41,1.22 -1.81,0.28 5.4,8.12 -1.81,2.1 1.81,3.28 2.41,3.31 -0.91,3.91 -5.09,3.28 -3,6.9 0.59,6.32 12.6,12.59 2.68,9 9.91,8.09 4.22,3 0.59,1.5 -1.81,0.6 2.09,2.4 1.5,-0.28 4.82,1.19 9.9,-1.5 h 9 l 8.69,-1.5 12.59,-5.09 3.91,-2.72 1.81,-1.19 5.1,-2.41 3.36,-5.68 -0.7,0.59 -1.16,-0.59 13.46,-6 0.9,-4.82 -3,-3.59 0.3,-2.41 0.9,0.32 6.6,-3.6 2.7,-3.31 13.5,-6.59 0.9,-0.6 4.2,-5.12 -1.2,-5.38 0.9,-0.9 -0.6,-4.22 1.5,-2.38 -2.7,-0.62 -1.2,-0.6 -1.5,-5.4 0.9,-1.78 -1.2,0.28 1.8,-3 -3.3,-2.69 2.1,-5.41 3.6,-6.28 0.9,-1.5 3.6,-2.72 -0.9,-0.9 2.4,-0.6 9.9,-12.28 10.2,-9.62 8.2,-10.5 10.1,-24 v -2.38 -1.5 l 1.9,-1.22 -1.6,0.6 0.6,-6.28 h -2 l -5.2,4.78 -8.4,3.31 -3.6,3 h -2.7 l -5.1,3.59 -6.3,-3.59 -2.7,0.91 3.3,-2.72 -0.3,-2.1 -9.9,-7.18 -4.5,-0.32 -0.9,-1.5 -0.6,-0.59 -0.6,1.81 -6.3,-12 -5.1,-2.72 -2.4,-10.18 0.9,0.59 -2.4,-4.19 -5.4,-3.31 -1.2,-4.19 1.2,-0.31 -3,-2.09 -8.1,-14.41 -4.47,-4.81 -0.91,-4.5 3.68,6 4.4,3.31 2.1,-8.69 -0.9,6.88 2.7,-0.28 9.7,11.68 1.4,3.6 4.6,2.12 3.5,5.69 0.9,5.69 3.9,2.4 3.7,2.41 9.5,11.41 0.3,6.59 4.8,10.19 6.6,-2.1 2.1,-3.28 12,-6.9 2.4,-3.32 10.5,-8.09 0.6,-3.91 9,-6.28 0.9,-3.9 3.3,-2.1 1,-4.22 3.2,-2.68 -1.2,-5.41 1,-2.09 1.1,0.28 2.4,-9.88 -4.8,-3.9 -6,0.59 -2.4,-1.5 -2.7,-4.5 v -3.59 l -6,13.18 -5.4,1.82 -1.5,2.09 -3.3,-0.91 -0.6,-7.5 -2.1,0.6 0.3,5.72 -3.9,-4.5 -0.3,-3.32 -5.7,-2.68 -4.8,-6.91 -1.2,0.31 1.5,-1.22 -1.2,-2.09 h -0.3 l 3.3,-0.91 v -1.78 l 2.4,0.88 1.8,-1.19 0.6,0.59 6.6,7.82 h 4.2 l 5.4,2.4 4.2,-0.62 5.4,-5.69 4,5.09 9.5,-2.09 6,-1.5 13.5,-10.81 1.8,3 1.8,-0.88 1.8,3.28 2.4,-1.78 0.6,1.78 0.9,-2.4 -0.6,2.12 3.3,1.5 3.3,-3 -0.3,2.38 -3,3.31 7.5,3 2.7,-4.5 -0.9,-5.09 1.5,-1.22 -0.6,2.12 0.6,1.19 0.9,-0.91 -0.3,2.41 1.6,1.5 0.5,4.5 6.6,13.81 10.9,15 1.7,3.6 1.5,3.59 3,1.19 1.2,-2.38 v -3 l 2.1,-3.31 h -0.9 l 0.3,-2.66 v -0.03 h 0.1 v -1.5 l 1.4,-1.5 -1.4,-5.12 v -4.5 -3.6 l -2.5,-6.28 -0.3,-3 1.5,-1.81 v -3 l 2.1,-3.59 -0.6,-1.82 2.1,-9.59 0.3,-6.31 1.5,-5.38 v -4.81 l -1.1,-2.09 0.8,-3.32 -0.3,-2.68 1.2,2.09 v -3 l 1.3,0.91 -0.7,-1.82 0.9,0.91 -0.2,-2.09 0.8,0.28 -0.8,-2.38 1.4,1.5 -0.9,-3.9 1.2,2.09 v -1.19 l -1.2,-1.81 1.2,-2.09 6,6.9 -0.3,-2.4 0.6,2.09 1.2,-1.19 1.2,1.5 -0.6,1.5 1.5,0.6 -0.6,-2.41 3,5.69 1.8,7.22 v -2.1 l 0.3,2.1 v -1.5 l 0.9,0.59 -0.3,-2.09 0.9,0.59 -0.6,-2.41 0.6,-2.4 -0.9,-0.88 0.9,0.28 v -2.4 l -0.9,-2.38 1.8,2.38 0.3,-1.19 2.1,6.31 1.8,4.19 -0.3,-1.81 1.9,3 0.5,4.22 0.6,-0.32 0.3,5.1 0.9,2.4 -0.3,-1.78 0.3,1.5 0.9,7.78 0.3,-1.5 2.1,2.72 0.3,0.28 1.2,7.5 1.2,3.6 h 1.5 l 0.3,-2.69 -0.6,-3.31 -0.6,-6.6 -0.3,-2.09 -1.8,-1.5 -0.9,2.09 -1.5,-5.09 -0.6,-1.81 -0.3,2.12 -0.6,-2.93 0.1,-0.07 -0.4,-1.22 -0.9,-9 -0.3,-0.59 v -0.59 l -0.3,-0.6 -0.9,-2.72 0.6,-3.28 0.9,3.6 0.6,-2.72 1.2,-0.28 1.5,3.59 -0.3,-2.41 0.6,2.41 V 606 l 1.2,-0.59 0.9,5.4 0.3,-1.22 -0.3,-4.78 -0.6,-1.5 h 0.6 l -0.6,-1.22 v -0.28 h 0.3 v -0.31 l -0.3,-0.31 0.3,-0.6 h -0.3 v -0.9 l -0.3,-0.88 0.3,-0.62 -0.6,-8.38 -1.2,-5.4 v -0.91 l -3,-8.09 -1.2,-1.82 -1.2,0.6 -3.3,-3.6 -1.5,-4.18 -0.3,-3.32 -0.9,-1.5 0.4,-0.59 -0.7,-0.59 v -1.82 l -0.6,-3 v -2.09 l -0.6,-1.19 h 0.9 l -0.6,-2.4 0.3,0.28 1.3,2.72 0.8,1.78 v -0.88 l -1.8,-4.5 0.3,0.6 -0.6,-4.22 -0.6,-1.19 v -1.19 l -0.3,-1.22 v -0.9 l -1.2,-2.38 0.9,1.19 -0.5,-1.5 h 0.2 l -1.8,-2.69 1.6,0.28 -0.7,-0.59 -0.6,-2.41 0.3,0.6 -0.9,-2.1 h 0.6 l -0.9,-3.28 -0.8,-1.5 h -0.4 l -0.6,-2.72 -0.6,-1.18 h 0.3 l -1.5,-3 h -0.2 l -0.7,-2.41 -0.6,-0.91 -0.3,-0.87 -0.6,-0.91 v -0.9 l -0.8,-1.5 h 0.2 l -1.5,-2.1 -0.9,-1.81 -0.6,-0.59 v -0.6 -0.31 l -3.3,-5.69 h -0.3 l -1.2,-3 -0.6,-0.62 -0.9,-1.5 h -0.3 l -0.6,-1.5 -0.6,-1.19 0.6,1.5 -1.5,-2.69 v 0.6 -0.6 l -0.3,0.6 1.2,3 -3.3,-6.32 h -1.2 l -0.6,-2.4 h -1.2 l -3.9,-3.6 -0.2,0.32 v 0.03 0.87 l -1,-0.9 -2.4,-3.91 -0.9,-1.19 -0.6,-0.31 -0.3,-1.19 -1.2,-1.5 -2.1,-3.62 v -0.88 l -1.8,-1.81 0.3,3.31 1.5,2.38 0.1,0.06 1.4,2.66 -2.7,-2.1 v 1.78 l -2.1,-1.78 -0.9,-3 -3,-4.5 -3,-3.9 -1.5,-2.41 1.5,0.59 3.9,4.82 -0.6,-1.5 2.7,3.59 -5.3,-8.41 -1.3,-3.28 2.7,3 0.3,-0.62 0.9,1.5 1.5,1.81 -0.6,-1.19 0.9,1.19 -0.9,-1.81 -0.3,-1.19 2.4,1.81 h -0.3 l 1.2,1.78 0.6,0.32 -0.9,-0.91 1.5,1.19 -0.6,-0.88 3.6,4.19 0.9,0.59 0.3,0.91 h 0.6 l -2.1,-2.69 0.6,0.6 -1.2,-1.5 0.3,0.28 -0.9,-1.19 -0.3,-0.59 -1.2,-1.82 -0.3,-0.59 -3,-3.59 -2.7,-2.1 -3,-1.81 -0.6,0.59 -1.5,-1.5 -5.6,-6.9 -2.8,-2.1 -2.7,-3 -1.2,-0.9 -0.3,-0.6 -3,-2.68 0.3,-1.22 -5.3,-5.38 -12.7,-10.22 -9.9,-6.9 v -0.03 l -1.8,-1.16 -3.3,-1.5 -2.4,-0.91 -6,-3.59 -2.1,0.31 -0.3,-0.62 -1.2,-0.88 -0.6,1.19 -0.3,0.31 1.6,1.5 1.1,0.28 3,2.41 -3,-1.5 3,2.09 -3,-1.18 1.5,1.78 -0.6,0.31 -8.7,-6 -6.3,-3.31 -8.7,-4.5 -5.1,-3.88 0.3,-0.31 -1.5,-0.59 -3,-2.72 -2.4,-0.6 -3,-3 2.4,1.5 0.6,-0.28 -7.5,-4.22 -0.6,0.32 1.5,0.9 -1.2,-0.31 -9,-2.69 -6.6,-2.72 -0.6,-0.28 1.8,0.28 h 1.6 l -1,-0.59 1.5,0.31 -6.5,-1.81 -1.9,-0.59 h -2.1 l -2.7,-0.91 -0.6,-0.59 2.4,0.9 h 4.2 l 4.5,1.5 6.9,1.78 6,1.82 3.3,1.5 4.8,1.5 4.8,1.18 9,1.5 -7.8,-3.28 -1.5,-0.31 -3.6,-1.81 h -0.9 l -0.3,-0.28 h -0.5 -0.7 v -0.32 l -6,-2.4 -3.3,-0.28 -2.7,-1.22 -1.2,0.31 -2.4,-0.59 2.4,1.18 -8.4,-1.78 -1.7,-0.62 v -0.28 l -4.6,-0.91 1.6,-0.31 -2.8,-0.28 -4.8,-1.82 -0.9,-0.59 -1.5,-0.31 -8.4,-1.5 -8.65,-1.5 -3.63,-0.88 h -1.5 v 1.5 h 0.32 l 0.59,0.6 3,0.59 h -0.59 l 2.09,0.59 -8.41,-2.09 h -1.18 -2.1 l -0.9,0.91 -1.82,-0.32 1.22,-0.9 -3.59,-0.6 h -0.03 l -1.19,-0.9 -3,-0.88 h -0.91 V 366 Z m -88.19,11.69 h 1.19 l -5.41,3.62 -0.28,0.28 -1.5,0.6 0.6,-0.88 h -0.32 l -0.28,-0.31 -2.12,1.19 -0.28,0.9 -2.72,-0.59 3,-1.5 h -1.5 l 0.31,-0.31 0.91,-0.88 0.9,0.6 0.91,-1.22 2.69,-0.88 -0.6,1.19 1.5,-0.59 -2.09,1.18 3.28,-1.18 z m 16.78,3.9 -1.18,0.6 h -4.5 l -1.82,1.81 0.91,0.59 v 0.32 l -0.31,3.59 4.22,-0.59 0.87,-0.91 1.5,-0.31 2.41,-0.28 2.72,-1.82 h -2.72 z m 109.18,0 1,0.6 -1,-0.28 z m 5.7,2.29 3,0.43 3.3,1.78 -3.3,-1.5 h -0.9 z m -133.47,1.03 -4.81,2.09 h -2.1 l -3.9,3.31 0.31,2.1 -3.59,0.9 -2.72,2.69 2.4,-0.31 -0.9,-0.6 2.72,-0.28 -1.5,0.6 0.59,0.9 -1.5,0.6 h 1.19 0.59 l 6.31,-2.72 h 7.19 l 3,-0.6 0.63,-1.18 -6,-0.32 6.87,-0.9 0.63,-0.28 -2.72,0.28 1.5,-0.6 -0.91,-0.28 1.22,-0.62 0.59,0.62 2.41,-0.62 0.28,-1.5 2.41,0.62 1.5,-3 -1.5,-0.9 -1.78,0.9 -0.32,-0.62 -3,2.12 2.1,-2.4 h -2.1 l -3.9,2.68 -3.91,1.5 5.72,-4.18 h -0.31 z m 131.97,5.4 5.8,1.5 h -0.4 z m -14.38,1.78 1.78,3 1.8,-0.9 -0.6,-1.19 z m 2.98,3.32 v 2.68 l 2.7,0.32 -0.6,0.28 -0.9,0.9 3.6,0.91 2.4,-0.91 -1.2,-1.18 -2.7,-2.1 -2.4,0.88 2.1,-0.88 z m 9,0.28 -0.9,1.22 3.3,1.18 h 0.3 l -1.5,-2.09 z m -131.66,0.31 -6,1.81 -1.82,0.6 -0.59,0.59 h 0.91 l -0.32,0.91 3.6,0.59 2.4,-1.5 1.82,1.19 2.37,-2.1 h -2.37 -0.32 l -0.59,-0.28 h -0.59 l 2.68,-1.5 z m -26.1,0.59 -1.5,1.5 -1.22,1.5 v -1.18 h 0.32 z m -6,1.22 -0.59,0.88 -2.41,3 v -1.5 l 2.1,-1.5 z m -8.72,1.5 h 1.22 l -1.5,0.28 -0.28,0.1 z m -9,1.78 h 0.91 1.5 l -0.28,0.91 -1.22,-0.59 -2.41,0.59 1.22,-0.59 z m 63,0 -3.59,0.6 -0.59,1.22 -6.32,0.59 -3,1.5 1.19,0.91 -2.37,0.59 -0.91,3 h 1.5 l -2.41,1.5 0.91,0.91 h 0.91 l 0.28,-0.32 0.9,0.32 0.32,-0.32 h 1.18 l 1.5,-1.18 -0.59,-3.32 2.09,-1.5 h -0.9 l 2.72,-0.59 -0.32,-0.91 0.91,0.6 1.19,-0.88 -0.91,1.5 1.81,-1.22 0.6,0.32 v -1.5 h 2.09 z m -21.31,0.32 0.91,1.18 1.81,-0.59 -1.22,1.81 3.91,1.19 3,-3.59 z m 207.89,0.9 0.9,0.88 h 1.2 l 2.4,1.5 3.6,1.5 3,0.62 3.6,1.5 12,6.28 -3,-2.09 -0.9,-1.19 -2.1,-0.31 -4.8,-2.69 -2.1,-1.81 0.6,-0.31 -3,-0.6 -3,-0.59 z m -20.4,2.1 5.4,1.4 -5.3,-1.12 z m 0.1,0.47 0.5,1.93 h -0.3 z m -171.09,0.12 -1.19,0.91 h 1.82 l -2.41,0.59 h 1.5 l -1.81,0.59 h 1.5 l -2.1,0.91 1.5,0.31 -1.5,0.88 1.82,-0.28 -2.1,0.9 2.1,-0.62 -3.6,1.5 0.6,0.62 h 0.9 l 0.28,-0.31 h 2.41 l 0.59,-1.19 2.41,-0.31 -1.19,1.19 h -0.03 l -0.87,0.9 h 2.68 l -0.28,1.5 1.19,-0.9 0.59,1.22 0.91,-1.22 v 1.22 l 2.69,-2.41 -0.6,2.09 1.82,-1.78 0.28,2.38 1.81,-0.88 -0.91,1.5 1.82,0.28 0.59,-0.9 v 0.9 l 1.5,-0.28 -0.91,0.6 5.1,1.5 -1.78,-2.1 2.09,0.88 0.91,-1.19 -0.32,1.5 2.1,1.19 h 1.81 l 1.78,-1.19 -1.19,-1.5 1.82,0.59 0.87,-3.9 -0.87,-0.88 -0.63,-0.9 -3.28,0.9 2.69,-1.81 -0.91,-0.59 -1.78,0.59 1.78,-1.19 -1.19,-1.5 -0.9,0.88 -0.88,-0.6 v 1.5 l -1.5,-1.18 V 408 l -0.62,-2.09 -1.78,0.9 1.5,2.1 -1.22,-1.22 -0.88,-0.28 0.88,1.18 -0.6,0.6 -0.9,-0.6 v 0.91 l 0.9,0.59 2.41,1.22 -2.41,-0.9 -0.31,1.18 -0.87,-1.5 -0.63,-1.5 -3.87,1.22 3.59,-1.5 0.91,-1.22 -6.32,1.5 V 408 l -0.31,1.5 -0.59,-0.91 -1.5,0.6 2.09,-1.5 -0.28,-0.88 -2.72,-0.31 0.91,0.91 h -1.5 l 2.09,0.59 h -4.78 l 1.78,1.19 -3,-0.88 3.63,-2.4 -3.32,0.9 z m -21.59,0.59 -2.41,2.72 -0.59,1.5 3.31,-1.22 3.28,-0.28 3.91,0.6 1.22,-1.22 -1.82,-1.78 z m -57.28,0.32 -0.32,0.9 1.82,-0.62 -1.5,0.62 v 0.28 l -0.32,-0.28 -0.28,0.28 h -0.31 l -0.28,0.32 -2.13,1.18 1.22,-0.9 z m 256.16,0.18 2.7,0.72 0.3,0.6 -0.6,-0.6 z m -257.07,0.1 -0.59,0.9 -1.19,0.6 -0.91,0.62 -4.22,1.5 3.91,-1.5 0.59,-0.31 1.5,-1.5 z m 56.41,0 -2.72,0.9 -1.78,0.91 0.59,1.19 -2.41,0.62 -0.31,0.28 v 0.6 l -0.28,0.31 -0.31,0.59 v 0.32 l -0.28,0.59 v 0.31 l -0.32,0.6 v 0.28 l -0.31,0.31 0.91,-0.31 -1.19,1.5 v 0.31 l -0.31,0.31 v 0.6 l 1.81,-0.91 h 1.19 l -3.28,1.81 -1.22,0.6 0.9,0.28 h -1.5 v 0.9 l -2.09,1.22 -2.09,-0.62 1.18,0.9 -2.4,1.82 0.62,0.28 -6,3.62 -2.12,-0.31 -0.6,1.19 0.32,-1.19 -2.41,-0.91 -3,2.1 -0.59,-2.38 1.18,-2.12 -4.18,0.62 -0.91,4.5 2.09,-0.9 -2.4,2.09 1.22,-0.31 -3.32,2.12 -1.18,2.1 -0.6,-0.91 -1.5,1.19 -4.5,9.31 7.19,-7.19 -1.5,2.38 1.5,-1.19 -4.19,6 4.78,-2.69 -2.09,2.1 3,-1.82 1.19,-1.78 0.62,0.6 1.78,-1.5 -1.18,-0.32 1.78,-1.18 -1.5,0.28 4.22,-2.1 -1.22,-0.59 2.72,-1.19 v 1.19 l 2.4,-1.81 v 1.5 l -2.12,1.5 1.5,0.31 -2.1,0.31 2.1,0.88 -3,-0.28 -3.28,3.9 4.5,-1.81 -1.22,1.5 2.4,-1.5 -0.28,1.5 1.19,-1.81 v 1.5 l 1.19,-1.19 0.62,0.91 1.19,-1.5 h -1.81 l 1.5,-0.6 -0.88,-0.9 h 0.28 l 1.5,-0.32 -1.18,-0.9 1.18,0.31 0.32,-1.19 V 435 l 2.09,-1.5 -0.91,-0.59 h -0.28 l 1.5,-0.91 -1.5,0.31 1.78,-0.62 h -1.18 l 1.5,-0.6 h -0.91 l 1.81,-1.18 -0.31,-0.6 0.91,0.88 1.5,-3.28 v 1.78 l 1.37,-1.1 0.41,0.22 0.59,-1.22 -0.59,2.41 1.22,-0.91 v -2.68 l 0.87,2.4 1.22,-0.31 0.28,-0.31 -0.28,-0.28 v -1.22 l -1.5,-0.6 1.5,0.32 0.91,0.28 -0.63,-1.19 2.13,1.19 1.18,-1.5 -1.5,-0.6 h 1.82 l -3.63,-0.28 2.13,-0.31 -0.32,-0.59 2.69,0.28 -1.78,-1.19 2.69,0.59 1.81,-1.78 -2.72,-0.31 3.31,-0.59 -2.4,-0.6 2.09,-0.31 v -0.59 l 1.81,0.59 -0.59,-1.5 2.41,0.31 1.78,-2.12 -1.5,-0.6 -1.5,1.5 0.9,-1.5 -2.4,1.22 3.59,-2.12 -0.28,-0.28 -2.09,-0.32 h 3.59 l 4.78,-1.78 -0.59,-2.4 -2.1,1.18 0.91,-1.5 -1.81,1.5 1.22,-1.5 -4.5,1.82 1.5,-1.22 -0.63,-0.6 -2.37,1.5 -2.72,0.32 1.22,-0.32 z m 193.46,0.62 h 0.4 l 2.3,4.19 0.9,0.06 -2.7,2.63 0.6,0.34 -2.4,1.16 -9.6,-0.6 -11.4,-4.18 10.5,3.59 9.6,0.91 4.2,-3 z m 30,1.19 h 0.6 0.6 l 1.8,1 -0.3,-0.09 -0.6,-0.32 -0.9,-0.28 -0.6,-0.31 -0.2,0.31 z m 3,0.31 1.5,1.5 2.1,1.5 4.5,3.6 1.2,0.59 0.3,0.31 0.8,0.57 -1.4,-0.57 -8.4,-6.62 -0.5,-0.16 -0.7,-0.44 1.2,0.6 z m -29.1,2.78 3,0.22 5.1,2.69 5.7,6.59 1.2,3.91 0.9,0.91 h 1.6 l -0.8,0.78 -2,-1.69 -0.9,-3.91 -8.3,-7.78 z m 42.6,0.5 2.1,1.82 1.5,1.18 -0.6,0.91 7.2,4.5 1.8,1.81 0.6,0.28 1.8,1.5 0.6,0.32 -1.2,-0.91 v -0.59 l -2.4,-1.82 -1.2,-1.5 -3.9,-2.68 -4.8,-3.91 z m 15,12.32 0.6,0.59 0.6,0.31 0.6,0.6 0.6,0.28 -2.7,-2.69 z m -21.9,-12 0.3,0.59 z m -37.7,2.37 2,1.22 -0.3,1.5 v -1.5 z m -168.05,0.31 -3.31,2.72 0.59,1.5 -1.5,0.6 v -1.82 l -0.59,1.82 -0.32,-3 -1.78,2.4 -1.22,-0.9 -1.5,1.18 -0.87,1.5 1.5,-0.9 -0.91,1.5 1.78,0.9 -0.59,1.82 -1.19,0.9 -4.81,4.78 h -2.09 l 0.9,0.6 -5.09,2.4 -2.13,2.1 -0.59,-1.19 v 0.91 l -1.59,0.47 -1.69,-0.19 -0.31,2.12 3.9,-1.5 -2.4,1.5 0.59,1.5 -1.78,-0.62 0.87,1.22 -1.78,-0.32 0.91,0.6 -0.91,-0.28 v 1.5 l -0.31,-0.91 -2.41,2.69 0.91,-3 -1.19,-1.5 -1.81,3.31 1.22,2.09 h -0.31 l -3.6,0.91 0.28,1.19 -1.18,0.31 0.59,-1.19 -2.41,1.78 -0.03,-0.28 -1.75,0.28 -0.59,1.5 -0.31,-3.59 -0.32,1.81 -0.28,-1.22 -2.72,0.6 3.32,1.22 -1.19,-0.32 1.5,1.82 -3.91,-2.72 0.91,2.72 -2.13,-2.1 -0.28,2.38 -1.5,-0.88 v 1.31 l 2.69,0.47 v 1.22 l -5.41,-1.5 1.22,1.78 -2.09,-0.9 -1.22,1.5 2.72,0.62 v 0.88 l -3,-1.19 0.59,0.59 -2.4,0.91 1.5,0.59 -1.82,-0.28 -2.09,1.5 h 3.31 l 1.5,-1.5 -2.4,3.6 V 456 l -2.1,-0.91 0.91,1.82 -1.5,-1.5 v 1.18 h -1.5 l 0.59,1.22 -1.22,-0.31 0.63,1.5 -0.91,-1.19 0.28,1.5 -2.09,0.88 h 1.5 l -2.41,0.9 -0.28,1.82 -1.5,0.28 1.19,0.62 h -1.5 l 1.22,0.28 -1.5,0.32 0.28,0.9 -0.91,-0.62 0.63,1.22 -1.22,-0.6 0.91,1.78 -1.82,1.5 3.63,2.1 h -2.72 l 1.81,0.31 -2.09,0.59 1.5,0.32 -1.5,1.18 1.78,-0.28 -2.69,0.88 2.41,-0.28 -2.41,1.5 1.78,-0.6 v 2.1 l 0.91,-2.72 1.22,1.81 0.28,-1.81 1.81,0.31 -0.59,-1.19 0.87,1.19 v -1.5 l 1.5,0.59 -0.28,-0.9 1.19,0.62 -0.28,-0.9 h 1.78 l 0.91,-2.41 0.31,1.19 0.28,-2.1 1.81,1.5 1.19,-1.78 v 1.5 l 0.91,-1.81 0.31,1.19 0.28,-0.88 1.22,0.6 v -1.5 l 0.59,1.5 1.5,-1.5 -0.59,-1.22 1.5,0.9 2.37,-3 0.32,1.22 2.4,-1.22 1.78,1.5 3.32,-2.09 0.31,1.19 -2.13,0.62 v 0.88 l 1.22,-1.19 -0.59,0.91 2.37,0.59 0.91,-1.19 0.91,1.5 6.31,-2.72 h 2.09 l 2.1,-2.4 -0.91,2.4 1.81,1.22 1.19,-0.9 -0.28,1.18 5.09,0.91 8.69,-1.81 -3,-1.5 -0.59,-0.6 -1.82,-0.9 h -0.28 l -0.31,-0.6 -0.59,-0.9 3.59,0.31 -3,-1.81 3.59,-1.19 0.63,1.5 h 2.37 l -2.09,-3 1.5,0.31 v -1.5 l 1.81,4.5 -1.5,3.28 2.41,-0.59 -1.22,1.19 1.22,0.62 0.59,-2.4 2.1,-0.91 -1.19,-0.59 1.78,-0.32 -1.78,-0.28 1.5,-0.62 -0.63,-2.69 -1.78,0.31 1.19,-0.62 -1.19,-0.6 2.1,0.6 0.31,-1.19 h -2.41 l 0.28,-1.5 3,0.59 -2.09,-1.5 1.5,0.32 v -1.22 l 0.31,1.5 h 2.1 l 0.59,-2.1 -0.28,2.1 1.19,-0.6 1.18,1.5 -1.5,-1.18 0.32,2.09 2.68,0.59 1.22,-1.18 -0.59,-1.5 -1.5,1.18 0.59,-1.5 2.1,-1.5 0.9,2.1 0.91,-0.88 -0.63,-0.9 1.5,-0.91 -1.18,-1.19 1.5,0.88 -0.6,-2.1 1.19,2.41 1.81,-1.81 -1.22,-1.5 2.13,0.31 h 0.28 l -1.5,-0.91 0.91,-1.78 2.4,0.88 0.28,-0.6 0.63,-0.28 0.59,-0.62 0.28,-0.6 -0.59,-0.59 h 1.22 l 0.59,-0.59 v -0.6 l -1.81,0.6 1.5,-1.5 3.59,-1.5 1.82,-1.82 0.9,-0.59 h -0.59 l 0.87,-0.91 h 0.63 l 0.59,-0.28 0.28,-0.62 0.32,-0.28 -0.6,-0.32 0.91,0.32 1.19,-1.22 0.9,-0.6 0.6,-0.59 -0.32,-0.59 -5.37,1.78 5.69,-3.6 -4.5,0.32 3,-0.91 -4.19,-2.09 2.09,-0.32 2.69,2.1 3.31,-0.28 -1.81,-1.5 1.81,-0.6 -5.72,-2.12 2.41,-0.28 3.59,1.78 -3.28,-3.6 -3.31,1.22 0.91,-2.12 h -1.82 l 0.32,1.81 -1.19,0.91 v -2.72 l -1.5,2.12 -0.31,-0.9 -2.1,0.9 1.78,-3.31 -3.87,1.81 1.19,-1.81 h -2.1 l 3.28,-1.19 -2.09,-1.22 -2.69,1.82 2.1,-1.5 -0.32,-0.32 -0.28,-0.59 -3.59,0.91 0.59,-0.91 -2.09,0.59 1.78,-0.9 -3.91,-0.88 -1.18,0.6 0.59,1.18 h -5.09 l -0.32,-1.5 z m -47.41,34.03 -0.09,-0.03 0.09,0.22 z m -0.09,-0.03 -0.5,-1 -0.56,0.82 z m -1.06,-0.18 -1.25,-0.22 1.18,0.31 z m 258.81,-31.72 0.2,0.28 1.3,0.94 h -0.2 l -1,-0.72 -0.1,-0.22 z m -104.66,1.81 1.5,1.19 -2.72,-0.6 6.28,2.72 -1.8,-3.31 z m -7.53,1.19 -3.28,0.31 3.59,3.31 1.82,-0.62 -0.32,-2.1 z m 116.49,0.09 0.8,0.53 6,5.69 1.9,1.56 1.1,2.03 -1.5,-2.09 z m -112.27,0.22 -1.5,0.31 0.91,0.6 -1.5,-0.32 1.78,3 3.31,-0.59 0.91,-2.09 -0.63,-0.32 h -0.87 L 995.12,420 Z m 23.37,2.09 1.2,2.72 1.2,0.88 -1.5,0.9 2.7,0.6 -1.7,-0.28 -0.4,0.28 -0.9,0.31 -0.3,-0.59 v -0.6 l -1.9,-0.22 -0.2,-0.09 h -0.6 l 2.7,-0.31 -0.3,-2.38 -1.5,-0.31 z m -25.18,0.6 -1.19,1.22 1.78,0.28 0.31,-0.88 z m 34.18,2.72 h 0.3 l 3,3.59 h 2.1 l -1.8,0.31 1.3,2.38 -0.4,-0.28 z m 52.6,1.21 2.9,3.29 -2.6,0.9 2.3,-0.9 z m 36.1,1.07 1.9,1.62 3,3.6 z m -332.85,1.9 0.28,0.32 h 0.59 l -1.18,1.18 h -0.32 l -1.5,0.6 z m -6.63,0.32 2.1,2.09 h 0.03 l -0.63,0.91 1.13,-0.57 -1.13,0.85 h 0.32 l 1.18,-0.6 -2.37,3.6 h -0.03 l -2.97,2.4 -1.22,2.1 -5.09,3.62 -4.5,8.1 -3,3.28 -0.32,0.31 -0.87,0.91 -0.91,0.28 h -0.03 l 0.91,-2.1 2.72,-3 -2.41,2.41 -3.91,2.09 -0.59,-0.59 3.59,-3 v -1.5 l 1.5,-0.31 3,-2.38 3,-3.9 -3,1.18 1.5,-1.18 h -0.9 l -5.41,3.59 -2.97,1.81 h -0.03 v -0.9 h 0.03 l 5.38,-4.5 4.22,-2.41 0.59,-0.91 2.69,-0.9 h 0.03 l -1.22,1.5 0.59,0.9 -1.74,3.25 1.74,-1.75 0.91,-1.18 0.91,-0.6 1.18,-3.9 1.82,-1.5 v -0.91 l 1.78,-1.19 -0.28,-2.12 0.87,-0.88 0.91,-0.62 z m 200.1,3.28 -1.19,0.62 0.59,0.28 0.32,0.32 0.28,0.59 z m 0,2.12 -1.78,0.28 1.5,0.91 z m -6.91,0.28 -0.87,3.32 1.78,-2.1 z m -22.19,5.1 v 1.22 h -1.5 l 0.6,1.5 h 1.22 l 1.5,-0.32 -1.5,1.22 3.28,0.88 2.4,-2.69 -1.81,-1.19 -1.5,0.88 -0.28,-1.5 -0.31,1.81 -1.78,-1.5 z m 45.91,0.31 -0.59,3.31 -3,1.78 v 1.22 l -1.5,4.5 2.37,1.19 -0.59,2.09 h 1.81 l -1.81,0.32 -0.6,1.78 2.69,-0.6 -0.87,1.82 3,-0.91 -1.82,-1.5 h 1.82 l -1.82,-0.59 h 1.5 l -1.5,-1.22 1.5,0.31 -1.81,-1.81 h 1.5 l -0.28,-1.5 -0.31,-2.38 2.72,-5.72 z m -48.59,1.19 v 3.9 l -1.5,-3 -0.63,1.82 -1.5,-1.22 1.5,-0.88 -2.69,0.88 1.19,4.81 2.41,-2.09 v 1.18 l 0.9,-0.9 0.91,1.22 -3.91,0.9 0.32,1.19 3,-0.59 -2.41,0.9 1.5,0.88 -2.41,-0.28 1.5,1.78 1.5,1.5 2.41,-6.28 0.91,-0.6 1.5,-0.62 -1.5,-1.5 -1.5,-1.5 -0.63,0.9 z m -92.69,1.5 2.31,2.09 -0.22,-1.47 z m 171.85,1.22 6.6,3.9 0.9,0.88 -1.5,-0.28 h -0.8 l -3,-2.41 1.1,1.81 -3.8,-3.87 z m 9.3,0.28 2.4,1.22 -2.1,-0.32 z m 85.9,0 1.1,0.62 -1.1,-0.59 z m 1.4,0.9 1.2,0.6 v 0.03 z m -171.26,1.22 -1.5,0.28 0.87,0.91 z m 1.18,1.19 -1.81,0.31 v 2.38 l 1.5,-0.6 0.31,1.5 1.19,-1.5 z m -173.68,0.31 -1.19,0.88 -0.31,0.31 -0.32,-0.59 0.91,-0.32 z m -12.6,3.28 v 0.91 0.59 l -0.9,0.91 0.59,-1.19 z m -9.9,4.22 -1.19,1.19 v -0.75 z m -1.44,0.53 -0.66,0.66 0.6,1.19 -0.91,3 0.59,-0.88 v 0.6 l 0.32,1.5 -1.19,0.9 -0.63,-0.9 -1.18,-1.82 2.09,-3.9 z m 241.44,0.97 -2.1,0.6 -1.5,0.9 1.19,0.88 -1.19,1.22 1.78,-0.6 -0.9,3.88 1.5,1.22 1.81,-1.22 2.69,2.4 4.48,-1.78 -5.98,-2.72 -1.78,-2.09 z m -217.5,4.5 -2.41,2.1 -1.19,0.9 1.19,-1.22 0.59,-0.9 z m 227.66,3.28 0.9,1.5 h 0.3 l 2.4,0.32 -0.6,-0.6 -0.3,-0.62 h -0.3 z m 23.4,4.5 v 1.82 l -2.4,0.9 0.7,2.1 2.3,4.18 4.8,3.6 1.5,3.62 10.2,2.38 8.4,-5.69 6.9,-2.09 0.9,0.28 -6,1.5 -8.4,6.31 2.1,0.59 2.7,3 -2.7,-2.68 -14.4,-3.6 -1.8,-3.9 -4.2,-3.32 -2.7,-3.9 -0.3,-2.38 z m -153.88,6 -0.9,2.72 -0.28,-2.12 -1.22,1.81 -0.88,-0.91 -0.31,0.91 -1.19,-0.31 3.88,2.4 -2.1,0.32 0.91,0.9 -3.91,-1.22 2.72,3.91 -3.62,0.91 2.72,0.9 1.18,1.78 1.19,2.1 3.91,-0.28 h 4.5 l 3.59,-1.82 -0.59,-0.59 1.5,0.31 -0.28,-5.12 1.78,-0.6 -2.1,0.32 -0.31,-1.82 -1.5,1.5 -2.37,-1.5 -1.22,1.82 0.31,-2.41 -2.09,1.19 -0.32,-1.19 -0.31,-0.59 -3.28,2.68 1.78,-3.28 z m 141.58,0.6 0.6,0.31 -0.6,-0.28 z m 1.2,1.5 0.6,0.31 -0.6,-0.28 z m 1.2,1.5 0.6,0.31 -0.6,-0.28 z m 43.5,1.59 4.2,1.41 1.2,-0.28 2.4,-0.6 7.9,0.88 3,0.9 -5.2,-0.9 -7.5,0.31 h -1.8 z m -39,4.13 0.7,0.28 v 0.03 z m 1.2,1.5 0.6,0.28 v 0.03 z m 87.6,3.59 1.9,0.59 0.2,2.1 -1.8,-0.6 z m 63,1.19 0.9,0.62 0.6,1.5 -0.3,-0.31 -0.6,-0.59 v -0.03 z m -196.78,9.9 2.69,1.5 h -1.5 l 0.63,2.41 z m -1.18,1.82 1.18,1.18 h -1.5 z m -14.1,0.9 5.1,4.78 -2.41,-1.5 0.28,2.1 3,0.31 -0.28,-1.81 1.5,0.62 v 2.38 l -3,2.4 1.5,0.32 -2.41,0.59 -1.5,-2.09 1.82,0.59 1.78,-1.5 -3.91,-2.41 0.63,-1.78 z m 217.86,1.07 0.8,1.34 1.3,1.78 v -0.91 l 0.8,1.5 h -0.8 l -1.3,-2.37 -0.3,0.59 -0.9,1.19 -0.3,-1.19 h 0.9 l 0.3,-0.31 -0.3,-0.59 v -0.6 z m -201.08,0.43 3,1.19 2.69,5.09 -0.87,1.5 -2.41,-0.28 1.5,-0.9 -3.59,-2.41 -1.5,-2.69 2.09,1.78 -1.22,-2.4 2.13,2.12 0.87,-0.9 z m -18.59,0.88 0.59,2.72 0.32,-1.82 1.15,0.91 -2.06,3 v 2.69 l 1.78,-0.6 -0.59,2.1 -2.1,-2.1 1.19,-3.59 -0.28,-2.41 -1.22,-0.59 z m 1.19,0.31 1.5,0.59 -0.6,0.88 z m 225.28,0.91 4.5,9 0.9,2.09 1.5,1.5 -6.6,-12.59 z m -230.97,2.68 h 2.41 v 1.22 l -2.13,0.6 v 1.78 l 2.13,-1.78 -1.47,2.34 1.15,0.94 -1.18,-0.88 0.03,-0.06 -0.66,-0.56 v 0.62 z m 16.19,0.91 5.4,3.91 -3,3.59 -4.5,-5.09 z m -53.97,0.59 1.19,1.22 0.9,-1.22 V 513 l -1.81,1.5 -0.59,-1.5 h -0.32 z m -29.72,6.32 -1.5,3.28 -1.78,-0.6 -0.31,3.32 -2.41,1.18 2.72,0.6 -4.22,5.4 2.09,-1.78 1.82,-1.22 0.31,1.5 -0.91,-0.28 -2.4,4.19 0.31,1.19 0.28,-0.88 4.81,0.6 -2.4,1.78 0.59,2.12 1.22,-0.62 -1.81,2.72 0.9,1.18 -4.22,-0.28 -2.09,1.5 2.09,-0.31 -0.28,1.81 -4.81,2.1 4.5,3.28 3.31,-1.19 -2.72,2.41 -3.28,-0.91 -5.72,3.91 6,0.9 1.22,-2.12 9.6,1.81 4.5,-0.91 0.28,-0.9 -3,-0.88 1.81,-0.31 3.28,-3.31 -0.59,-2.38 -3.28,-0.62 h -0.32 l 0.91,-2.69 -0.28,-0.59 -1.5,-0.6 2.09,0.28 0.28,-1.78 -2.37,-2.72 -0.31,-6 -3.91,-2.09 3.31,0.31 -1.81,-0.9 2.41,-0.32 3.31,-4.18 -6.31,-0.91 5.09,-3.91 z m 271.47,0.9 2.1,1.19 -1.2,0.91 -0.6,0.28 -0.3,-1.19 z m -457.16,0.88 -0.59,0.62 -0.31,0.88 -0.32,0.62 -0.59,0.88 -1.19,3.9 -1.81,4.5 -0.59,2.72 -0.6,1.19 -0.59,0.31 -1.22,6.88 0.31,0.9 1.19,-5.4 0.91,-1.5 0.9,-3.88 z m 228.6,2.12 2.37,0.28 -0.87,2.72 -3.91,1.19 0.59,-2.41 1.82,0.32 z m 180.56,1.19 2.4,1.81 h -2.1 z m -158.06,0.91 -0.91,0.28 0.91,0.9 1.5,-0.59 z m -1.5,2.09 0.59,2.41 v 0.28 l 3,-2.69 z m 154.76,0.31 -0.3,2.69 -6.3,3.31 -0.6,4.5 2.7,4.19 -3.6,-2.09 -0.3,-3.6 0.6,-3 6.9,-3.62 z m -161.67,2.38 -2.41,1.5 0.32,2.4 z m -69.91,1.22 -3,1.78 1.82,0.62 -1.82,1.5 -3.87,-1.22 h -0.03 l 0.59,2.1 -2.37,1.22 3,1.78 -3.91,2.12 3.28,0.6 -5.06,0.28 1.47,0.9 -2.1,0.6 2.1,0.62 -2.1,0.6 2.1,0.28 -1.47,0.9 5.37,-0.28 5.1,-0.31 h 0.03 l 2.69,-7.81 3,-1.19 -0.32,-3.59 h -3.28 l 1.47,-0.6 -0.87,-0.9 -1.5,1.5 z m 44.41,0.9 2.09,0.28 -1.81,0.6 0.31,1.5 -0.59,-1.19 -1.5,0.91 z m 7.78,5.1 -0.87,1.78 -0.63,-1.5 -2.37,0.9 2.09,5.72 v -2.12 l 2.41,-2.38 z m -6.28,1.78 -0.59,1.81 2.09,0.59 v -2.4 z m 29.31,0.87 0.41,3.35 h -1.81 z m -20.03,4.53 -1.5,0.6 1.5,0.62 z m 92.69,1.82 -1.8,3 0.6,2.59 -0.9,-2.31 z m -329.38,2.09 -0.59,2.69 -0.59,1.22 -0.91,3 0.91,-5.41 -0.32,0.31 -0.87,3 v 3.88 l -1.22,3.9 0.59,-0.59 0.63,-0.31 -0.31,6 0.59,-0.6 0.59,-5.09 0.63,0.59 v -1.5 l 0.59,-2.09 0.6,-8.41 z m 328.28,3.62 2.3,2.07 -1.8,1.22 v 0.28 0.03 l -0.6,7.19 0.3,-7.19 v -0.03 l 0.3,-2.1 z m 48.5,0.88 -0.3,3.91 0.9,1.78 3.9,1.22 -0.6,1.78 -0.3,3.9 1.8,1.5 -2.4,2.1 v 0.03 l -0.6,0.28 -1.5,-1.19 -3,1.5 -2.7,-4.5 -0.6,-4.81 2.1,-0.91 -1.2,-1.78 1.5,0.28 v -0.87 -0.03 l -0.3,-2.1 h 2.4 z m 130.8,0.91 v 4.78 l 0.9,3.9 1.5,2.1 0.3,-0.6 -0.6,-4.18 -1.5,-5.1 z m -189.6,4.5 -0.6,0.31 h -0.6 l -0.9,0.28 0.9,-0.31 h 0.6 z m 36,3.9 1.2,0.88 0.9,5.4 1.8,0.32 -5.4,1.78 -0.3,2.72 2.4,0.9 -3.9,0.6 0.3,1.5 h 2.1 l 3,4.18 5.1,0.32 v 3 l 3,4.18 -1.2,-4.18 1.8,-1.5 5.1,3.59 -2.1,3 -3.3,-1.19 0.6,3.88 1.8,2.12 -0.9,-1.22 2.1,-0.59 1.5,1.81 h -1.8 l 0.6,2.1 0.9,-1.22 1.8,1.5 3.6,9.31 -6.3,3.59 -10.2,-1.5 -3,-5.4 0.9,-2.69 -0.6,-3.91 2.4,-1.78 -3.3,-0.31 -8.4,-7.19 -1.8,-5.4 -0.3,1.78 -3.9,-4.19 0.3,-5.69 3.9,-1.5 0.3,-3.9 4.2,-4.22 z m -362.66,5.69 -0.32,0.59 v 0.82 l 0.32,-1.1 z m -0.32,1.41 -0.06,0.21 0.06,-0.12 z m -0.06,0.21 -0.22,0.47 v 0.32 z m -0.22,0.79 -0.09,0.5 0.09,-0.19 z m -0.09,0.5 -0.22,0.4 v 0.6 z m -0.81,4.9 -0.32,0.6 -0.28,0.59 v 0.59 l -0.59,2.13 v -0.31 l -0.31,3 0.31,-1.57 v 0.28 l -2.41,12.97 -0.31,2.41 v 0.91 l -0.28,1.78 0.28,-1.19 -0.28,2.69 v 0.62 l -0.22,0.19 -0.09,0.09 v 2.1 l -0.32,0.62 V 606 l -0.28,0.59 v 3.32 l -0.31,0.59 v 0.91 1.5 l -0.28,2.09 v 5.69 l -0.31,0.31 v 13.19 0.62 0.28 1.82 0.28 l 0.06,0.5 0.53,8.22 v 0.28 0.62 l 0.59,5.1 0.63,7.18 0.87,5.41 0.32,0.59 0.31,2.1 0.59,1.5 v -1.19 l -0.9,-8.69 -0.22,-1.69 0.22,1.38 1.5,11.09 0.31,0.91 1.19,3.31 0.59,-0.62 0.91,3 0.59,-0.6 0.53,1.22 -1.12,-0.31 -0.91,-3 -0.91,0.59 -0.87,-3.59 -0.31,-0.31 -1.19,-2.38 -0.31,-2.72 -0.6,-0.28 v -1.22 l -0.59,-3.9 v 2.4 l 0.28,0.91 v 1.5 l 0.31,0.59 v 1.5 l 0.28,0.91 v 1.5 l 0.32,0.91 v 0.59 l 0.31,0.91 v 1.5 l 0.28,0.59 v 0.91 l 0.31,0.59 v 0.91 l 0.28,0.9 v 1.5 l 0.32,0.6 v 0.9 l 0.31,0.6 v 0.9 l 0.28,0.6 v 0.9 l 0.31,0.88 v 0.62 l 0.28,0.88 v 0.62 l 0.32,0.88 0.31,0.62 v 0.88 l 0.28,0.62 v 0.88 l 0.31,0.9 0.28,0.6 v 0.9 l 0.32,0.6 0.31,0.9 v 0.32 0.28 l 0.28,0.9 0.31,0.6 v 0.03 0.87 l 0.28,0.63 v 0.59 l 0.32,0.6 v 0.9 l 0.31,0.6 v 0.59 l 0.28,0.59 v 0.32 l 0.31,0.59 v 0.59 l 0.28,0.6 v 0.62 l 0.32,0.28 v 0.6 l 0.31,0.62 v 0.6 l 0.28,0.28 v 0.62 l 0.31,0.6 V 708 l 0.28,0.31 v 0.6 l 0.32,0.59 v 0.59 l 0.31,0.32 0.28,0.59 v 0.59 l 0.31,0.6 v 0.31 l 0.28,0.59 v 0.6 l 0.32,0.62 v 0.28 l 0.59,1.22 v 0.6 l 0.31,0.28 v 0.62 l 0.6,1.19 v 0.31 l 0.31,0.6 V 720 l 0.28,0.59 0.31,0.32 v 0.59 l 0.6,1.19 V 723 l 0.31,0.59 v 0.6 l 0.28,0.31 0.31,0.59 v 0.6 l 0.28,0.62 0.32,0.28 v 0.6 l 0.59,1.22 v 0.28 l 0.59,1.22 v 0.28 l 0.91,1.81 v 0.31 l 0.59,1.19 v 0.31 l 0.63,1.19 v 0.59 l 0.28,0.32 0.59,1.18 v 0.32 l 0.63,1.18 0.28,0.32 v 0.59 l 0.59,1.19 0.32,0.31 v 0.59 l 0.31,0.6 0.28,0.31 0.59,1.19 V 744 l 0.63,1.19 0.28,0.31 0.31,0.59 v 0.6 l 0.28,0.62 0.32,0.28 0.59,1.22 v 0.28 l 0.59,1.22 0.32,0.28 0.59,1.22 v 0.28 l 0.59,1.22 0.32,0.28 0.59,1.22 0.31,0.28 v 0.6 l 0.28,0.62 0.32,0.28 0.59,1.22 0.31,0.28 0.6,1.22 0.31,0.28 v 0.29 l 0.94,1.65 -0.94,-1.53 v 0.19 l 0.28,0.62 0.31,0.28 0.28,0.6 0.32,0.31 0.59,1.19 0.19,0.19 0.4,0.71 0.57,0.85 -0.25,-0.25 0.31,0.65 v -0.31 l 0.59,0.88 1.5,3 0.6,0.59 1.18,2.41 0.63,0.59 0.87,1.81 0.63,0.6 0.28,0.59 0.03,0.03 0.03,0.06 1.16,1.41 -0.63,-0.91 0.63,0.6 1.5,1.81 0.28,-0.31 2.09,2.4 h 0.32 l 0.31,0.91 2.09,2.41 -0.59,-1.22 1.19,0.62 -0.91,-1.81 v -2.69 -0.31 l -1.19,-3.59 0.28,-0.91 -4.5,-15.31 0.32,-0.6 0.9,1.82 h 0.6 l 2.68,-4.82 2.13,-3.28 -0.31,-3.9 -1.82,-6.91 -1.18,-2.41 -3.91,-3.9 -3.91,-7.78 -3.59,-6.91 h -0.28 l -5.13,-5.41 -2.37,-4.78 -2.72,0.28 v -2.4 l 0.59,-0.28 -1.18,-0.91 0.9,-0.31 -0.59,-3.28 -0.91,0.59 -0.31,-2.09 h -0.28 l 0.28,-0.6 h -0.59 l -0.6,-2.12 -0.31,0.31 v -1.5 l -0.28,0.31 -1.81,-4.22 -0.32,0.6 -1.18,-2.38 -0.6,1.78 0.6,1.5 -0.6,-0.28 -0.31,-1.81 -1.19,1.5 0.28,-1.81 -2.09,-2.1 2.72,2.1 0.59,-3 -3.31,-6 -0.59,2.4 v -1.78 l -0.6,0.6 v -2.1 l -0.59,0.88 0.28,-2.38 2.41,-1.22 -0.32,-0.9 0.32,-1.19 -1.19,-3.91 -0.31,-9.59 -0.32,-1.19 -0.28,1.19 -0.59,-5.09 -2.13,-8.72 -3.59,-7.78 -0.59,-7.19 -0.6,0.87 0.6,-3 v -3.87 l -0.6,-4.81 v -1.22 l -0.59,-1.5 0.59,-3 v -3.88 l -0.59,-1.81 v -1.19 l 0.28,-2.4 0.91,1.5 -1.5,-6.32 v 2.41 l -0.91,-2.09 V 605.09 600 l -0.28,-4.81 0.28,-3.28 0.31,-4.22 0.13,-0.85 -0.13,0.57 v -1.5 l -0.56,-1.13 0.84,-3.97 0.32,0.6 0.59,-3 h -0.91 l 0.32,-2.72 -0.32,0.9 z m -0.47,12.03 0.15,-0.65 v -0.35 z m 0.15,-1 0.32,-2.03 -0.32,1.5 z m 36.97,189.75 0.53,1.1 0.32,0.31 z m 0.85,1.41 0.44,0.59 -0.13,-0.28 z m 0.44,0.59 0.46,0.91 0.6,0.59 -0.6,-0.9 z m 1.06,1.5 0.59,1.22 0.44,0.44 z m 1.03,1.66 0.47,0.75 -0.32,-0.59 z m 0.47,0.75 0.31,0.59 0.44,0.44 z m 0.75,1.03 0.25,0.35 -0.1,-0.19 z m 0.25,0.35 0.5,1.03 0.59,0.59 0.31,0.59 v -0.28 z m 1.4,2.21 0.28,0.6 0.63,0.62 z M 710.75,760 v -0.12 l -0.31,-0.57 -0.32,-0.31 z m -31.5,-100.31 -0.31,-2.1 -0.03,-0.09 0.03,0.41 v 1.18 z m -0.34,-2.19 -0.29,-3.81 -0.28,-3 v 3 l 0.28,0.62 v 2.38 z m -0.57,-6.81 -0.31,-3.6 v 0.32 0.59 l -0.25,-2.56 -0.03,-0.13 0.28,3 v 1.5 z m -0.56,-5.25 0.13,0.37 0.12,1.28 -0.09,-1.25 -0.03,-0.15 -0.16,-1.88 v 0.28 l 0.13,1.5 -0.13,-0.59 z m 4.16,24.15 -0.6,-2.4 v 0.31 z m -2.91,-69.09 0.22,-1.41 v -0.28 z m 3.5,-22.06 v 0.15 l -0.12,0.66 v 0.03 l -0.03,0.06 -0.04,0.04 z m -0.34,6.75 -0.57,3.72 -0.28,1.5 -0.31,1.18 V 591 l 0.59,-3.91 v -0.59 z m 228.93,9.72 -3.31,2.68 0.91,4.5 2.4,-2.68 z m -1.5,8.09 -3.9,1.19 -0.28,9.31 4.5,-0.91 1.18,-5.68 z m -21.9,3.31 -3.28,0.88 1.78,1.81 2.09,-1.5 z m 71.72,9.28 -1.5,0.6 5.68,3.9 -0.9,-3 z m -28.22,3.32 -11.69,0.59 0.59,2.09 8.41,4.5 z m 71.38,8.4 -8.07,3.88 3,2.12 3.87,-2.4 -0.9,-1.22 z m -41.38,4.19 v 1.81 l 4.5,0.88 5.4,-0.28 0.6,-1.5 -2.1,1.18 z m 248.68,12.59 -2.7,4.82 0.9,3 h 1.8 l 1.2,3 0.9,-0.6 0.6,4.5 0.6,0.88 0.3,0.31 0.6,5.41 0.6,1.5 v 0.59 l 0.3,-1.5 v -0.59 l 0.3,-1.82 v 0.32 l 0.9,-10.82 0.3,-1.78 -0.3,1.5 -0.3,1.78 0.3,-2.4 -0.3,0.62 0.3,-3.31 -0.6,1.81 0.3,-5.12 h -0.3 l -0.3,3.31 v -2.69 l -0.3,1.19 -1.2,-2.09 V 648 l -0.9,-1.5 -0.3,-0.31 -1.5,0.62 v -1.5 z m -31.5,26.41 -0.6,0.59 v 0.32 h 1.2 l -0.9,0.28 v 1.5 l 0.6,5.4 -0.6,-0.59 1.2,3.31 v 0.28 l 0.3,0.6 0.9,3.31 2.4,-3.31 0.9,-4.78 -2.1,-4.5 z m -492.21,6.53 0.84,1.88 0.31,1.5 v 0.71 l -0.31,-0.71 -0.28,3.28 v -4.16 l -0.63,-1.53 0.63,1.19 z m 1.37,4.59 0.38,0.57 0.59,0.31 h -0.59 z m 187.56,54.88 2.72,2.41 -0.9,3.9 -0.32,0.6 -0.28,-0.6 -0.59,-1.81 1.78,-1.81 z m 163.18,2.41 -0.5,0.31 h -1.3 l -0.6,0.28 0.6,-0.31 h 1.3 z m -186.86,2.68 4.5,6.32 0.31,0.28 0.87,-4.78 -1.18,11.68 v -1.5 l -0.32,-0.28 -3,-2.12 3,1.81 v -1.5 l 0.32,-0.59 v -1.5 l -1.19,-0.32 h 1.19 l -3,-0.59 2.68,-0.31 -3,-2.1 -0.59,-2.4 -3.28,-0.6 3,0.32 z m -137.69,23.79 v 0.21 l 0.28,0.32 z m 225.28,13.71 -2.09,11.1 3.31,-5.69 7.19,-3 0.9,-0.59 9.94,-0.57 -10.84,2.07 -3.32,0.59 -4.18,2.41 0.31,3.28 -10.5,7.81 -0.31,3.31 -0.32,-3.31 7.5,-6.31 z m 20.09,1.22 9.91,5.38 -10.44,-5.35 z m 117.58,30.28 -2.7,2.41 v 2.69 l -2.4,2.12 h -1.5 l 0.3,1.78 -1.2,0.32 -1.4,2.87 0.2,-1.09 -2.1,1.81 0.6,0.91 -1.5,0.59 0.6,-1.19 -2.1,1.5 -0.3,1.5 -1.2,-0.62 -7.2,3.62 -3,4.19 0.9,6.31 -5.1,4.78 -1.8,2.72 1.2,6 h 3.3 l 8.7,-3.62 14.4,-20.69 0.9,-2.69 1.8,-1.81 v -3.59 l 0.9,-0.6 0.9,1.19 1.5,-2.09 -0.9,-6.6 -2.4,-1.5 0.7,-1.22 z m -64.8,7.22 2.1,1.5 1.8,4.5 -1.5,3 1.8,5.69 -3,-0.31 -1.8,-5.38 1.5,-2.12 -1.2,-5.1 -0.3,-0.9 h 0.3 z"
       transform="matrix(0.8,0,0,-0.8,-469.94,792)"
       style="fill:url(#radialGradient12103);fill-rule:evenodd"
       inkscape:connector-curvature="0" /></g><path
     id="path4571"
     d="m 273.34459,155.79371 a 112.75202,112.68467 0 1 1 -225.501537,0 112.75202,112.68467 0 1 1 225.501537,0 z"
     style="fill:url(#radialGradient4615);fill-rule:evenodd;stroke:#b7b7b7;stroke-width:0.84760296;stroke-linecap:round;stroke-linejoin:round"
     inkscape:connector-curvature="0" /></g><g
   id="g1463"
   transform="translate(-405.09622,-64.957726)"><path
     transform="matrix(1.6110422,0,0,1.6110422,-127.57998,45.272525)"
     inkscape:connector-curvature="0"
     id="path229-6"
     d="m 344.33893,97.651355 c -8.27161,-8.550519 -9.48645,-10.796605 -9.13386,-16.887346 0.36032,-6.224455 4.01543,-11.860021 9.41054,-14.509521 2.24979,-1.104855 3.08333,-1.257082 6.88329,-1.257082 3.73455,0 4.67668,0.165542 6.91604,1.21522 5.65558,2.651005 9.03837,7.819936 9.38204,14.335867 0.3351,6.353524 -0.83009,8.54317 -9.10108,17.102862 -5.06148,5.238155 -5.20823,5.347515 -7.17552,5.347515 -1.96696,0 -2.11502,-0.1103 -7.18145,-5.347515 z m 14.02159,-8.725801 c 0.73167,-0.731675 1.33031,-1.771418 1.33031,-2.310551 0,-0.539119 -0.59864,-1.578875 -1.33031,-2.310538 l -1.33032,-1.330318 h -6.80589 c -5.49447,0 -6.91506,0.131541 -7.37245,0.682665 -0.45201,0.544629 -0.45201,0.82069 0,1.365318 0.45715,0.550834 1.87409,0.682665 7.33744,0.682665 6.46748,0 6.77089,0.04077 6.77089,0.910208 0,0.500624 -0.28212,0.910221 -0.62694,0.910221 -0.34481,0 -0.88188,0.307191 -1.19349,0.682652 -0.45201,0.544641 -0.45201,0.82069 0,1.365331 0.84276,1.015464 1.73758,0.835526 3.22076,-0.647653 z m -1.07839,-9.250935 c 2.76084,-2.763706 0.86825,-7.374808 -3.02693,-7.374808 -1.96447,0 -4.12162,1.553454 -4.12162,2.968151 0,1.254087 1.38882,1.471269 2.53324,0.396144 1.16035,-1.090097 2.36318,-1.03504 3.10449,0.1421 0.36534,0.580125 0.36534,1.01275 10e-6,1.592875 -0.42858,0.680576 -1.36516,0.814867 -6.43793,0.923111 -4.55386,0.09717 -6.06583,0.282654 -6.49223,0.796438 -0.43939,0.529432 -0.43142,0.819705 0.038,1.385376 0.49912,0.601401 1.59609,0.692194 6.87329,0.568885 6.15645,-0.143854 6.30386,-0.171229 7.52964,-1.398272 z"
     style="fill:#419416;fill-opacity:1;stroke:none;stroke-width:0.45510733;stroke-opacity:1;filter:url(#filter1596)" /><path
     inkscape:connector-curvature="0"
     id="path229"
     d="m 427.16456,202.59298 c -13.32592,-13.77525 -15.28307,-17.3938 -14.71504,-27.20624 0.58049,-10.02785 6.46903,-19.10699 15.16078,-23.37544 3.62451,-1.77996 4.96738,-2.02521 11.08927,-2.02521 6.01652,0 7.53433,0.26669 11.14203,1.95777 9.11138,4.27087 14.5612,12.59825 15.11487,23.09569 0.53986,10.23579 -1.33731,13.76341 -14.66223,27.55343 -8.15426,8.43888 -8.39068,8.61507 -11.56006,8.61507 -3.16886,0 -3.40739,-0.1777 -11.56962,-8.61507 z m 22.58937,-14.05763 c 1.17875,-1.17877 2.14319,-2.85384 2.14319,-3.7224 0,-0.86854 -0.96444,-2.54364 -2.14319,-3.72238 l -2.1432,-2.1432 h -10.96458 c -8.85182,0 -11.14045,0.21192 -11.87733,1.09981 -0.7282,0.87741 -0.7282,1.32217 0,2.19958 0.73649,0.88742 3.01924,1.09981 11.82093,1.09981 10.41938,0 10.90819,0.0657 10.90819,1.46638 0,0.80652 -0.45451,1.4664 -1.01003,1.4664 -0.5555,0 -1.42074,0.4949 -1.92276,1.09978 -0.72821,0.87744 -0.72821,1.32217 0,2.19961 1.35772,1.63595 2.79931,1.34607 5.18878,-1.04339 z m -1.73733,-14.90366 c 4.44783,-4.45244 1.39879,-11.88113 -4.87651,-11.88113 -3.16485,0 -6.64011,2.50269 -6.64011,4.78183 0,2.02038 2.23745,2.37026 4.08116,0.6382 1.86937,-1.7562 3.80718,-1.66749 5.00146,0.22893 0.58858,0.9346 0.58858,1.63158 2e-5,2.56618 -0.69046,1.09644 -2.19933,1.31279 -10.37178,1.48719 -7.33646,0.15659 -9.7723,0.45536 -10.45925,1.28308 -0.70788,0.85295 -0.69504,1.32058 0.0612,2.2319 0.8041,0.96888 2.57136,1.11515 11.07316,0.91649 9.9183,-0.23175 10.15578,-0.27584 12.13056,-2.25267 z"
     style="fill:#7bd467;fill-opacity:1;stroke:#000000;stroke-width:0.1;stroke-miterlimit:4;stroke-dasharray:none;stroke-opacity:1" /></g><text
   xml:space="preserve"
   style="font-style:normal;font-weight:normal;font-size:40px;line-height:1.25;font-family:sans-serif;letter-spacing:0px;word-spacing:0px;fill:#419416;fill-opacity:1;stroke:#000000;stroke-width:0.40000001;stroke-miterlimit:4;stroke-dasharray:none;stroke-opacity:1"
   id="text1635"
   x="-4.1999969"
   y="60.625107"><tspan
   id="tspan1633"
   style="font-style:normal;font-variant:normal;font-weight:bold;font-stretch:normal;font-size:53.33333206px;font-family:'Linux Biolinum Keyboard O';-inkscape-font-specification:'Linux Biolinum Keyboard O Bold';text-align:center;text-anchor:middle;fill:#419416;fill-opacity:1;stroke:#000000;stroke-width:0.40000001;stroke-miterlimit:4;stroke-dasharray:none;stroke-opacity:1">SEPwC</tspan></text>


<g
   id="g1467"
   transform="translate(-509.55312,-63.205222)"><path
     inkscape:connector-curvature="0"
     id="path231-3"
     d="m 546.70568,284.29023 -2.28874,-2.38891 v -26.02849 -26.02849 l 2.24552,-2.24551 c 2.22055,-2.22054 2.38345,-2.24552 14.64605,-2.24552 12.29695,0 12.42047,0.0191 14.78943,2.28872 l 2.38893,2.28873 v 26.08546 26.08547 l -2.38893,2.28873 c -2.36817,2.26884 -2.49618,2.28872 -14.74623,2.28872 h -12.35733 z m 16.81477,-7.46702 c 0.73615,-0.73616 1.33845,-1.66701 1.33845,-2.06854 0,-0.94621 -2.46079,-3.40699 -3.40699,-3.40699 -0.94621,0 -3.40699,2.46078 -3.40699,3.40699 0,0.9462 2.46078,3.40699 3.40699,3.40699 0.40154,0 1.33239,-0.6023 2.06854,-1.33845 z m 7.13033,-20.1256 c 1.41614,-1.41612 1.41614,-22.09208 0,-23.50822 -1.39216,-1.39216 -17.00561,-1.39216 -18.39775,0 -1.41614,1.41614 -1.41614,22.0921 0,23.50822 1.39214,1.39217 17.00559,1.39217 18.39775,0 z m -14.30936,-6.64362 v -2.55524 h 5.11049 5.11049 v 2.55524 2.55524 h -5.11049 -5.11049 z m 0,-10.22097 v -2.55524 h 5.11049 5.11049 v 2.55524 2.55525 h -5.11049 -5.11049 z m 23.65921,44.32485 c 0.94862,-1.6669 2.14484,-2.58034 3.38379,-2.58382 1.73115,-0.005 1.91643,-0.41709 1.91643,-4.26413 0,-3.69092 -0.2272,-4.25874 -1.70351,-4.25874 -1.65674,0 -1.70348,-0.56784 -1.70348,-20.68774 0,-18.61324 -0.16152,-21.0047 -1.61169,-23.84892 l -1.61168,-3.16121 h 12.95092 12.95091 l 2.28874,2.38892 2.2887,2.38891 v 19.17129 19.17131 l -2.3889,2.28871 c -2.19535,2.10329 -2.95448,2.28873 -9.36922,2.28873 h -6.98032 v 4.20732 4.20731 l 3.19406,0.26436 c 2.76867,0.22913 3.19406,0.54794 3.19406,2.39373 0,2.12393 -0.0242,2.12999 -9.13308,2.37088 l -9.13309,0.24153 z"
     style="fill:#419416;fill-opacity:1;stroke:none;stroke-width:0.1;stroke-miterlimit:4;stroke-dasharray:none;stroke-opacity:1;filter:url(#filter1155)" /><path
     inkscape:connector-curvature="0"
     id="path231"
     d="m 546.70568,284.28907 -2.28874,-2.38891 v -26.02849 -26.02849 l 2.24552,-2.24551 c 2.22055,-2.22054 2.38345,-2.24552 14.64605,-2.24552 12.29695,0 12.42047,0.0191 14.78943,2.28872 l 2.38893,2.28873 v 26.08546 26.08547 l -2.38893,2.28873 c -2.36817,2.26884 -2.49618,2.28872 -14.74623,2.28872 h -12.35733 z m 16.81477,-7.46702 c 0.73615,-0.73616 1.33845,-1.66701 1.33845,-2.06854 0,-0.94621 -2.46079,-3.40699 -3.40699,-3.40699 -0.94621,0 -3.40699,2.46078 -3.40699,3.40699 0,0.9462 2.46078,3.40699 3.40699,3.40699 0.40154,0 1.33239,-0.6023 2.06854,-1.33845 z m 7.13033,-20.1256 c 1.41614,-1.41612 1.41614,-22.09208 0,-23.50822 -1.39216,-1.39216 -17.00561,-1.39216 -18.39775,0 -1.41614,1.41614 -1.41614,22.0921 0,23.50822 1.39214,1.39217 17.00559,1.39217 18.39775,0 z m -14.30936,-6.64362 v -2.55524 h 5.11049 5.11049 v 2.55524 2.55524 h -5.11049 -5.11049 z m 0,-10.22097 v -2.55524 h 5.11049 5.11049 v 2.55524 2.55525 h -5.11049 -5.11049 z m 23.65921,44.32485 c 0.94862,-1.6669 2.14484,-2.58034 3.38379,-2.58382 1.73115,-0.005 1.91643,-0.41709 1.91643,-4.26413 0,-3.69092 -0.2272,-4.25874 -1.70351,-4.25874 -1.65674,0 -1.70348,-0.56784 -1.70348,-20.68774 0,-18.61324 -0.16152,-21.0047 -1.61169,-23.84892 l -1.61168,-3.16121 h 12.95092 12.95091 l 2.28874,2.38892 2.2887,2.38891 v 19.17129 19.17131 l -2.3889,2.28871 c -2.19535,2.10329 -2.95448,2.28873 -9.36922,2.28873 h -6.98032 v 4.20732 4.20731 l 3.19406,0.26436 c 2.76867,0.22913 3.19406,0.54794 3.19406,2.39373 0,2.12393 -0.0242,2.12999 -9.13308,2.37088 l -9.13309,0.24153 z"
     style="fill:#7bd467;fill-opacity:1;stroke:#000000;stroke-width:0.1;stroke-miterlimit:4;stroke-dasharray:none;stroke-opacity:1" /></g><g
   id="g1459"
   transform="translate(-106.5133,-199.33602)"><path
     inkscape:connector-curvature="0"
     id="path227-6"
     d="m 306.65887,421.71358 c -0.9612,-2.50484 0.33448,-3.65281 4.12283,-3.65281 h 3.66322 v -4.04207 -4.04207 h -8.33708 c -8.07917,0 -8.4043,-0.0701 -10.50938,-2.26737 l -2.17228,-2.26737 v -19.85376 -19.85376 l 2.13127,-2.13128 2.13127,-2.13127 h 28.033 28.03298 l 2.17229,2.26737 2.17227,2.26738 v 19.71765 19.71767 l -2.17227,2.26737 c -2.10508,2.19723 -2.43023,2.26737 -10.50938,2.26737 h -8.3371 v 3.99778 3.99777 l 3.83997,0.2464 c 3.4913,0.22402 3.83996,0.42989 3.83996,2.26743 v 2.02104 l -18.81525,0.21705 c -16.2153,0.18706 -18.88035,0.0474 -19.28632,-1.01051 z m 25.57115,-7.69488 v -4.04207 h -6.4673 -6.46731 v 4.04207 4.04207 h 6.46731 6.4673 z m -7.47383,-16.37037 c 0.44454,-0.55579 1.93014,-5.92163 3.30133,-11.92411 2.18693,-9.5734 2.348,-11.05894 1.31175,-12.09733 -1.03725,-1.03938 -1.31854,-1.03938 -2.30662,0 -1.74017,1.83053 -6.26743,22.70425 -5.20256,23.98733 1.08872,1.31184 1.86678,1.32101 2.8961,0.0341 z m -8.0477,-4.81006 c 1.35761,-1.3576 1.24801,-1.80924 -1.1228,-4.62677 l -2.09289,-2.48728 2.09289,-2.48726 c 2.44872,-2.91014 2.53181,-3.4178 0.79529,-4.85899 -1.12493,-0.93361 -1.7704,-0.57653 -4.85049,2.6834 -1.95407,2.06818 -3.55287,4.15342 -3.55287,4.63386 0,0.96855 6.35543,8.11313 7.21701,8.11313 0.29907,0 0.98031,-0.43654 1.51386,-0.97009 z m 23.50271,-2.6497 c 1.83514,-1.99089 3.33661,-4.01289 3.33661,-4.49334 0,-0.48044 -1.59878,-2.56568 -3.55286,-4.63386 -3.0801,-3.25993 -3.72554,-3.61701 -4.85049,-2.6834 -1.7365,1.44119 -1.65343,1.94885 0.79528,4.85899 l 2.09291,2.48726 -2.09291,2.48728 c -2.37078,2.81753 -2.48039,3.26917 -1.12279,4.62677 1.44446,1.44446 1.76595,1.28654 5.39425,-2.6497 z"
     style="fill:#419416;fill-opacity:1;stroke:none;stroke-width:0.1;stroke-miterlimit:4;stroke-dasharray:none;stroke-opacity:1;filter:url(#filter1353)" /><path
     inkscape:connector-curvature="0"
     id="path227"
     d="m 306.65887,421.71357 c -0.9612,-2.50484 0.33448,-3.65281 4.12283,-3.65281 h 3.66322 v -4.04207 -4.04207 h -8.33708 c -8.07917,0 -8.4043,-0.0701 -10.50938,-2.26737 l -2.17228,-2.26737 v -19.85376 -19.85376 l 2.13127,-2.13128 2.13127,-2.13127 h 28.033 28.03298 l 2.17229,2.26737 2.17227,2.26738 v 19.71765 19.71767 l -2.17227,2.26737 c -2.10508,2.19723 -2.43023,2.26737 -10.50938,2.26737 h -8.3371 v 3.99778 3.99777 l 3.83997,0.2464 c 3.4913,0.22402 3.83996,0.42989 3.83996,2.26743 v 2.02104 l -18.81525,0.21705 c -16.2153,0.18706 -18.88035,0.0474 -19.28632,-1.01051 z m 25.57115,-7.69488 v -4.04207 h -6.4673 -6.46731 v 4.04207 4.04207 h 6.46731 6.4673 z m -7.47383,-16.37037 c 0.44454,-0.55579 1.93014,-5.92163 3.30133,-11.92411 2.18693,-9.5734 2.348,-11.05894 1.31175,-12.09733 -1.03725,-1.03938 -1.31854,-1.03938 -2.30662,0 -1.74017,1.83053 -6.26743,22.70425 -5.20256,23.98733 1.08872,1.31184 1.86678,1.32101 2.8961,0.0341 z m -8.0477,-4.81006 c 1.35761,-1.3576 1.24801,-1.80924 -1.1228,-4.62677 l -2.09289,-2.48728 2.09289,-2.48726 c 2.44872,-2.91014 2.53181,-3.4178 0.79529,-4.85899 -1.12493,-0.93361 -1.7704,-0.57653 -4.85049,2.6834 -1.95407,2.06818 -3.55287,4.15342 -3.55287,4.63386 0,0.96855 6.35543,8.11313 7.21701,8.11313 0.29907,0 0.98031,-0.43654 1.51386,-0.97009 z m 23.50271,-2.6497 c 1.83514,-1.99089 3.33661,-4.01289 3.33661,-4.49334 0,-0.48044 -1.59878,-2.56568 -3.55286,-4.63386 -3.0801,-3.25993 -3.72554,-3.61701 -4.85049,-2.6834 -1.7365,1.44119 -1.65343,1.94885 0.79528,4.85899 l 2.09291,2.48726 -2.09291,2.48728 c -2.37078,2.81753 -2.48039,3.26917 -1.12279,4.62677 1.44446,1.44446 1.76595,1.28654 5.39425,-2.6497 z"
     style="fill:#7bd467;fill-opacity:1;stroke:#000000;stroke-width:0.1;stroke-miterlimit:4;stroke-dasharray:none;stroke-opacity:1" /></g><g
   id="g1455"
   transform="translate(277.39446,-272.96809)"><path
     inkscape:connector-curvature="0"
     id="path225-7"
     d="m -61.329082,418.67077 c -0.94593,-0.39777 -2.49382,-1.58346 -3.43976,-2.63487 -1.63883,-1.82158 -1.71988,-3.12218 -1.71988,-27.60006 v -25.6884 l 2.38438,-2.38439 2.38438,-2.38437 h 25.75915 25.75913 l 2.3843834,2.38437 2.38438,2.38439 v 25.75914 25.75913 l -2.383115,2.38439 -2.3831124,2.38438 -24.705026,0.17975 c -13.58776,0.0989 -25.47897,-0.1457 -26.42491,-0.54346 z m 10.52517,-12.32042 c 0.46554,-0.59121 1.09162,-2.95418 1.39129,-5.25105 0.29966,-2.29687 1.59775,-6.11065 2.88463,-8.47507 2.3176,-4.2582 9.02536,-10.99718 10.94622,-10.99718 1.03404,0 3.06072,1.69333 3.06072,2.55729 0,0.27139 -2.28008,2.85264 -5.06684,5.73611 -5.07886,5.25514 -7.21362,9.86805 -5.4041,11.67757 0.53105,0.53105 2.46297,0.64524 4.85295,0.28684 4.45622,-0.66825 9.15154,-4.20793 11.35639,-8.56128 0.74296,-1.46694 3.31152,-4.49938 5.70791,-6.73876 l 4.357059,-4.0716 -2.049539,-2.18164 c -2.62579,-2.79503 -9.72058,-6.23293 -14.33842,-6.94792 -5.05738,-0.78305 -11.92332,1.07292 -15.46149,4.17948 -4.97772,4.37049 -5.78256,6.77984 -5.95374,17.82296 -0.14053,9.06643 0.40793,12.03918 2.22117,12.03918 0.35715,0 1.03025,-0.48372 1.49579,-1.07493 z"
     style="fill:#419416;fill-opacity:1;stroke:none;stroke-width:0.1;stroke-miterlimit:4;stroke-dasharray:none;stroke-opacity:1;filter:url(#filter1387)" /><path
     inkscape:connector-curvature="0"
     id="path225"
     d="m -61.329084,418.67077 c -0.94593,-0.39777 -2.49382,-1.58346 -3.43976,-2.63487 -1.63883,-1.82158 -1.71988,-3.12218 -1.71988,-27.60006 v -25.6884 l 2.38438,-2.38439 2.38438,-2.38437 h 25.75915 25.759131 l 2.3843829,2.38437 2.38438,2.38439 v 25.75914 25.75913 l -2.383115,2.38439 -2.3831119,2.38438 -24.705027,0.17975 c -13.58776,0.0989 -25.47897,-0.1457 -26.42491,-0.54346 z m 10.52517,-12.32042 c 0.46554,-0.59121 1.09162,-2.95418 1.39129,-5.25105 0.29966,-2.29687 1.59775,-6.11065 2.88463,-8.47507 2.3176,-4.2582 9.02536,-10.99718 10.94622,-10.99718 1.03404,0 3.06072,1.69333 3.06072,2.55729 0,0.27139 -2.28008,2.85264 -5.06684,5.73611 -5.07886,5.25514 -7.21362,9.86805 -5.4041,11.67757 0.53105,0.53105 2.46297,0.64524 4.85295,0.28684 4.45622,-0.66825 9.15154,-4.20793 11.35639,-8.56128 0.74296,-1.46694 3.31152,-4.49938 5.70791,-6.73876 l 4.35706,-4.0716 -2.04954,-2.18164 c -2.62579,-2.79503 -9.72058,-6.23293 -14.33842,-6.94792 -5.05738,-0.78305 -11.92332,1.07292 -15.46149,4.17948 -4.97772,4.37049 -5.78256,6.77984 -5.95374,17.82296 -0.14053,9.06643 0.40793,12.03918 2.22117,12.03918 0.35715,0 1.03025,-0.48372 1.49579,-1.07493 z"
     style="fill:#7bd467;fill-opacity:1;stroke:#000000;stroke-width:0.1;stroke-miterlimit:4;stroke-dasharray:none;stroke-opacity:1" /></g><g
   id="g1451"
   transform="translate(274.36999,129.78349)"><path
     inkscape:connector-curvature="0"
     id="path239-5"
     d="m -139.65684,123.97746 c -0.38982,-1.01586 0.76131,-10.45472 1.65584,-13.57727 0.1942,-0.67792 1.81234,-2.04816 3.59585,-3.04497 l 3.24275,-1.81241 3.24275,1.81241 c 1.78351,0.99681 3.40164,2.36705 3.59585,3.04497 0.89453,3.12255 2.04566,12.56141 1.65584,13.57727 -0.64386,1.67785 -16.34502,1.67785 -16.98888,0 z m -17.57066,-14.57161 c -1.87779,-1.31526 -2.09016,-3.85571 -0.56832,-6.7986 1.63918,-3.16984 9.35087,-9.903311 14.023,-12.244223 l 4.23228,-2.120541 v -6.153912 c 0,-3.384671 0.46767,-7.765667 1.03926,-9.735576 1.35555,-4.671704 4.63181,-8.439148 7.33888,-8.439148 2.70706,0 5.98333,3.767444 7.33888,8.439148 0.57159,1.969909 1.03925,6.350905 1.03925,9.735576 v 6.153912 l 4.23229,2.120541 c 4.67213,2.340912 12.38382,9.074383 14.023,12.244223 3.44844,6.66854 -2.05898,9.74158 -12.11266,6.75866 -4.84519,-1.43756 -10.68134,-4.30029 -12.88156,-6.31863 l -1.6392,-1.5037 -1.6392,1.5037 c -3.81813,3.50251 -14.37456,7.49268 -19.82266,7.49268 -1.64123,0 -3.71269,-0.51033 -4.60324,-1.13411 z m 28.97923,-13.436543 c 0.80139,-0.801396 1.45707,-2.112755 1.45707,-2.91413 0,-1.876381 -2.49482,-4.371207 -4.3712,-4.371207 -0.80139,0 -2.11275,0.65568 -2.91413,1.457076 -0.80139,0.801375 -1.45707,2.112735 -1.45707,2.914131 0,0.801375 0.65568,2.112734 1.45707,2.91413 0.80138,0.801376 2.11274,1.457056 2.91413,1.457056 0.80139,0 2.11275,-0.65568 2.91413,-1.457056 z"
     style="fill:#419416;fill-opacity:1;stroke:none;stroke-width:0.1;stroke-miterlimit:4;stroke-dasharray:none;stroke-opacity:1;filter:url(#filter1445)" /><path
     inkscape:connector-curvature="0"
     id="path239"
     d="m -139.65686,123.97745 c -0.38982,-1.01586 0.76131,-10.45472 1.65584,-13.57726 0.1942,-0.67792 1.81234,-2.04816 3.59585,-3.04498 l 3.24275,-1.8124 3.24275,1.8124 c 1.78351,0.99682 3.40164,2.36706 3.59585,3.04498 0.89453,3.12254 2.04566,12.5614 1.65584,13.57726 -0.64386,1.67786 -16.34502,1.67786 -16.98888,0 z m -17.57066,-14.5716 c -1.87779,-1.31526 -2.09016,-3.85571 -0.56832,-6.79861 1.63918,-3.169831 9.35087,-9.903302 14.023,-12.244214 l 4.23228,-2.120541 v -6.153912 c 0,-3.384672 0.46767,-7.765667 1.03926,-9.735577 1.35555,-4.671704 4.63181,-8.439148 7.33888,-8.439148 2.70706,0 5.98333,3.767444 7.33888,8.439148 0.57159,1.96991 1.03925,6.350905 1.03925,9.735577 v 6.153912 l 4.23229,2.120541 c 4.67213,2.340912 12.38382,9.074383 14.023,12.244214 3.44844,6.66855 -2.05898,9.74159 -12.11266,6.75867 -4.84519,-1.43756 -10.68134,-4.30029 -12.88156,-6.31863 l -1.6392,-1.5037 -1.6392,1.5037 c -3.81813,3.50251 -14.37456,7.49268 -19.82266,7.49268 -1.64123,0 -3.71269,-0.51034 -4.60324,-1.13411 z m 28.97923,-13.436544 c 0.80139,-0.801396 1.45707,-2.112755 1.45707,-2.91413 0,-1.876381 -2.49482,-4.371207 -4.3712,-4.371207 -0.80139,0 -2.11275,0.65568 -2.91413,1.457076 -0.80139,0.801375 -1.45707,2.112735 -1.45707,2.914131 0,0.801375 0.65568,2.112734 1.45707,2.91413 0.80138,0.801376 2.11274,1.457056 2.91413,1.457056 0.80139,0 2.11275,-0.65568 2.91413,-1.457056 z"
     style="fill:#7bd467;fill-opacity:1;stroke:#000000;stroke-width:0.1;stroke-miterlimit:4;stroke-dasharray:none;stroke-opacity:1" /></g></svg>