<?xml version="1.0" encoding="UTF-8" standalone="no"?>
<!-- Created with Inkscape (http://www.inkscape.org/) -->

<svg
   xmlns:dc="http://purl.org/dc/elements/1.1/"
   xmlns:cc="http://creativecommons.org/ns#"
   xmlns:rdf="http://www.w3.org/1999/02/22-rdf-syntax-ns#"
   xmlns:svg="http://www.w3.org/2000/svg"
   xmlns="http://www.w3.org/2000/svg"
   xmlns:sodipodi="http://sodipodi.sourceforge.net/DTD/sodipodi-0.dtd"
   xmlns:inkscape="http://www.inkscape.org/namespaces/inkscape"
   width="1029.6555"
   height="830.86316"
   id="svg3007"
   version="1.1"
   inkscape:version="0.92.5 (2060ec1f9f, 2020-04-08)"
   sodipodi:docname="win_linux_mac_logo.svg"
   inkscape:export-filename="/home/jh1889/work/teaching/SEPwC/images/linux_mac_logo.png"
   inkscape:export-xdpi="5.2211637"
   inkscape:export-ydpi="5.2211637">
  <defs
     id="defs3009" />
  <sodipodi:namedview
     id="base"
     pagecolor="#ffffff"
     bordercolor="#666666"
     borderopacity="1.0"
     inkscape:pageopacity="0.0"
     inkscape:pageshadow="2"
     inkscape:zoom="0.35"
     inkscape:cx="-359.39805"
     inkscape:cy="629.13406"
     inkscape:document-units="px"
     inkscape:current-layer="layer1"
     showgrid="false"
     inkscape:window-width="1920"
     inkscape:window-height="1135"
     inkscape:window-x="0"
     inkscape:window-y="0"
     inkscape:window-maximized="1"
     units="cm"
     fit-margin-top="0"
     fit-margin-left="0"
     fit-margin-right="0"
     fit-margin-bottom="0" />
  <metadata
     id="metadata3012">
    <rdf:RDF>
      <cc:Work
         rdf:about="">
        <dc:format>image/svg+xml</dc:format>
        <dc:type
           rdf:resource="http://purl.org/dc/dcmitype/StillImage" />
        <dc:title></dc:title>
      </cc:Work>
    </rdf:RDF>
  </metadata>
  <g
     inkscape:label="Layer 1"
     inkscape:groupmode="layer"
     id="layer1"
     transform="translate(-61.147295,62.648146)"
     style="display:inline">
    <path
       inkscape:connector-curvature="0"
       style="fill:#0078d4;stroke-width:0.14794929"
       d="m -414.09077,-1.28582 h 341.91072 v 341.76284 h -341.91072 z m 379.34201,0 H 307.16196 V 340.47702 H -34.74876 Z m -379.34201,379.34201 h 341.91072 v 341.91072 h -341.91072 z m 379.34201,0 H 307.16196 V 719.96691 H -34.74876"
       id="path1107" />
    <g
       transform="matrix(0.91159133,0,0,0.91159133,-140.97298,1091.3033)"
       style="font-style:normal;font-weight:normal;font-size:429.75283813px;line-height:125%;font-family:Sans;letter-spacing:0px;word-spacing:0px;fill:#000000;fill-opacity:1;stroke:none"
       id="text2999" />
    <g
       inkscape:groupmode="layer"
       id="layer2"
       inkscape:label="Layer 2">
      <g
         id="g1185"
         transform="translate(589.37411,-862.25839)">
        <path
           id="path154-6"
           d="m -173.22267,813.59329 c -5.21516,-0.01 -10.65489,0.20931 -16.32753,0.66159 -143.36985,11.54642 -105.34717,163.00927 -107.47506,213.72932 -2.61821,37.0912 -10.13858,66.3216 -35.64845,102.5828 -29.97027,35.6399 -72.16502,93.3237 -92.15377,153.3705 -9.43377,28.3395 -13.92295,57.2251 -9.7771,84.5634 -1.2987,1.163 -2.53507,2.3815 -3.71069,3.6365 -8.79926,9.394 -15.30093,20.7762 -22.54542,28.4396 -6.76829,6.7516 -16.41138,9.3196 -27.00834,13.1215 -10.60101,3.8036 -22.24011,9.4113 -29.30512,22.9685 0,0 0,0.01 -0.005,0.01 -0.0115,0.023 -0.0241,0.044 -0.0361,0.067 v 0 c -6.3956,11.9455 -4.49429,25.7018 -2.54103,38.4467 1.95332,12.7447 3.93075,24.7881 1.30597,32.959 -8.38998,22.932 -9.46114,38.7945 -3.55487,50.3006 5.91887,11.53 18.08855,16.6192 31.84293,19.492 27.50883,5.7455 64.763,4.3177 94.1236,19.8791 l 2.52358,-4.7616 -2.49746,4.7758 c 31.43196,16.4335 63.29777,22.2705 88.72108,16.4636 18.43231,-4.21 33.39499,-15.1854 41.0793,-32.0739 19.88509,-0.098 41.70549,-8.5197 76.65906,-10.4442 23.71253,-1.9101 53.33366,8.4205 87.40527,6.5286 0.89062,3.6966 2.1796,7.2521 3.944,10.6307 0.018,0.035 0.035,0.069 0.0535,0.1034 13.20794,26.4114 37.74924,38.492 63.90275,36.428 26.188,-2.0667 54.03113,-17.5084 76.53804,-44.293 l -4.12607,-3.4676 4.15761,3.4294 c 21.45245,-26.0118 57.06,-36.7979 80.67066,-51.0383 11.80538,-7.1204 21.38456,-16.0362 22.12469,-28.9859 0.73973,-12.9431 -6.85904,-27.4479 -24.33217,-46.8437 0,0 -0.005,0 -0.005,0 -0.007,-0.01 -0.0137,-0.016 -0.0204,-0.024 -5.74108,-6.4879 -8.47992,-18.5124 -11.4232,-31.3174 -2.94127,-12.7973 -6.22443,-26.6019 -16.73081,-35.5481 v 0 c -0.021,-0.019 -0.0422,-0.035 -0.0633,-0.053 0,0 0,0 0,0 -4.18139,-3.6436 -8.52658,-6.1165 -12.90241,-7.7779 14.60718,-43.3213 8.87598,-86.4587 -5.86907,-125.44 -18.09629,-47.8408 -49.68978,-89.5268 -73.81825,-118.0436 -27.00789,-34.0663 -53.42398,-66.4095 -52.90361,-114.1793 0.80447,-72.9072 8.01953,-208.11136 -120.27511,-208.28646 z m 17.36858,112.32062 c 7.28001,0 13.49762,2.13385 19.88447,6.76955 6.48829,4.70921 11.16263,10.60443 14.93004,18.83689 3.69759,8.02315 5.47664,15.87178 5.65107,25.18569 0,0.24419 0,0.45344 0.0697,0.69763 0.0697,9.55796 -1.56972,17.68576 -5.19761,25.98803 -2.07006,4.7373 -4.44735,8.7133 -7.29275,12.1556 -0.96599,-0.4637 -1.96925,-0.9096 -3.00978,-1.3375 v 0 c -7.21244,-3.0891 -12.74525,-5.055 -17.35654,-6.6551 1.67157,-2.0093 3.06344,-4.3922 4.28736,-7.3712 1.84882,-4.49991 2.75578,-8.89529 2.93019,-14.12771 0,-0.20935 0.0698,-0.38379 0.0698,-0.62796 0.1046,-5.02309 -0.55814,-9.31379 -2.02322,-13.7091 -1.53486,-4.60454 -3.48834,-7.9184 -6.31386,-10.67418 -2.82554,-2.75589 -5.65107,-4.01158 -9.03478,-4.11634 -0.15864,-0.01 -0.3168,-0.01 -0.47306,-0.01 -3.18281,0.01 -5.94651,1.10101 -8.80584,3.49487 -2.99994,2.51169 -5.23246,5.72079 -7.08132,10.18588 -1.84879,4.465 -2.75577,8.89514 -2.93013,14.16257 -0.0351,0.20935 -0.0351,0.38379 -0.0351,0.59304 -0.0603,2.89536 0.12362,5.54776 0.57011,8.12338 -6.5125,-3.24509 -12.64971,-5.45748 -18.40956,-6.82838 -0.32833,-2.4907 -0.51826,-5.06094 -0.57889,-7.74834 V 978.169 c -0.10468,-9.52314 1.46509,-17.68575 5.12785,-25.98789 3.66275,-8.30224 8.19756,-14.26732 14.58117,-19.11607 6.38361,-4.84874 12.66256,-7.08124 20.09271,-7.15101 0.11611,0 0.2322,0 0.34774,0 z m -99.64166,7.88905 c 4.8294,0.0114 9.15083,1.62485 13.62079,5.19436 4.84876,3.87193 8.5115,8.82533 11.58123,15.80201 3.06971,6.97667 4.70922,13.95325 5.16268,22.18572 v 0.0693 c 0.21981,3.45756 0.19293,6.71217 -0.0796,9.8642 -0.95516,0.27148 -1.89117,0.56523 -2.80808,0.8809 -5.20733,1.79246 -9.7965,4.23523 -13.79631,6.87637 0.39112,-2.76279 0.44934,-5.56595 0.14934,-8.69145 -0.0352,-0.17444 -0.0352,-0.31394 -0.0352,-0.48829 -0.41861,-4.15112 -1.29067,-7.63942 -2.75577,-11.16265 -1.56971,-3.6626 -3.3139,-6.24404 -5.61621,-8.23244 -2.08641,-1.80185 -4.05777,-2.6293 -6.22663,-2.61291 -0.22438,0 -0.4513,0.0124 -0.6802,0.0314 -2.44184,0.20913 -4.46506,1.39515 -6.38366,3.7324 -1.91856,2.33715 -3.17433,5.23248 -4.0813,9.06954 -0.90697,3.83718 -1.15116,7.60458 -0.76745,11.93004 0,0.17434 0.0351,0.31403 0.0351,0.48836 0.41854,4.18604 1.25576,7.67427 2.75575,11.19759 1.53486,3.62779 3.31391,6.20919 5.61622,8.19749 0.38557,0.333 0.76701,0.6321 1.14674,0.8993 -2.39474,1.8431 -3.53823,2.6928 -5.50061,4.1347 -1.25862,0.9236 -2.75763,2.0232 -4.49991,3.3074 -3.79955,-3.5593 -6.76364,-8.0327 -9.35527,-13.9227 -3.06972,-6.97657 -4.70924,-13.95328 -5.19761,-22.18575 v -0.0693 c -0.45346,-8.23236 0.34884,-15.31369 2.61625,-22.63913 2.26741,-7.32552 5.30227,-12.62769 9.69751,-16.98822 4.39529,-4.36034 8.82549,-6.55795 14.16262,-6.83694 0.41695,-0.0229 0.83019,-0.0333 1.23941,-0.0314 z m 45.31655,57.11352 c 11.22472,-0.0433 24.73218,3.63666 41.08476,14.15062 10.0445,6.532 17.86033,7.0779 35.85774,14.7861 l 0.0216,0.01 0.022,0.01 c 8.6593,3.5529 13.74186,8.1838 16.22506,13.0604 2.48315,4.8766 2.54388,10.1649 0.46544,15.7279 -4.15672,11.1265 -17.425,22.8358 -36.04414,28.6501 l -0.0176,0.01 -0.0165,0.01 c -9.0786,2.9496 -16.99508,9.4634 -26.32808,14.8003 -9.33273,5.3366 -19.89342,9.6409 -34.25308,8.8102 0,-10e-5 0,0 0,0 -12.22465,-0.7125 -19.53208,-4.8626 -26.1395,-10.1729 -6.60761,-5.3103 -12.36554,-11.9816 -20.79693,-16.9325 l -0.0216,-0.013 -0.022,-0.013 c -13.58103,-7.6762 -20.99562,-16.5546 -23.32265,-24.2514 -2.32709,-7.6969 -0.14319,-14.2668 6.59509,-19.3167 7.57574,-5.6774 12.83828,-9.5394 16.3438,-12.112 3.48245,-2.5554 4.93131,-3.5136 6.04029,-4.5784 0.006,-0.01 0.0117,-0.012 0.0175,-0.017 0,0 0.005,-0.01 0.005,-0.01 5.69223,-5.3881 14.76608,-15.20455 28.44393,-19.91282 4.70763,-1.62055 9.96064,-2.66609 15.84025,-2.68932 z m 78.49149,46.42202 c -4.84383,0.2888 -9.9169,2.7827 -15.82383,6.0805 -5.90699,3.2978 -12.54959,7.5163 -19.74829,11.6706 -14.39737,8.3085 -30.97057,16.2545 -47.4411,16.2545 -16.49612,0 -29.67558,-7.6186 -39.56081,-15.4522 -4.94263,-3.9168 -9.02198,-7.862 -12.28106,-10.914 -1.62954,-1.5261 -3.04279,-2.8268 -4.3615,-3.8427 -1.31846,-1.0158 -2.39167,-2.0232 -4.59804,-2.0232 l -0.10573,4.6362 c -0.15798,1.5513 -0.32031,1.5035 -0.25617,1.5458 0.10291,0.068 0.61485,0.2441 1.2122,0.7042 0.96947,0.7468 2.31518,1.9643 3.91234,3.46 3.19434,2.9914 7.43893,7.1042 12.66482,11.2455 10.45166,8.2823 24.98691,16.7798 43.37395,16.7798 18.41261,0 35.83311,-8.6061 50.51087,-17.0764 7.33882,-4.2351 14.00414,-8.4627 19.67195,-11.627 5.66752,-3.1643 10.43602,-5.1485 13.19671,-5.3131 z m 16.36678,22.0341 c 12.22931,48.2075 40.67315,117.8375 58.95478,151.8182 9.71733,18.0285 29.04987,56.3327 37.40244,102.4824 5.29253,-0.1621 11.12018,0.6068 17.36092,2.2031 21.83839,-56.6152 -18.51868,-117.5974 -36.97294,-134.5804 -7.45053,-7.2296 -7.80865,-10.4687 -4.11511,-10.3156 20.02212,17.7062 46.30676,53.319 55.86978,93.5164 4.36058,18.3293 5.29026,37.5985 0.61156,56.6154 2.28908,0.9509 4.6139,1.9848 6.97007,3.1002 35.05467,17.0699 48.01909,31.9134 41.78569,52.1722 -2.05306,-0.072 -4.07258,-0.064 -6.04239,-0.016 -0.18384,0.01 -0.3663,0.01 -0.54946,0.014 5.07631,-16.0585 -6.16941,-27.9024 -36.13566,-41.4608 -31.08095,-13.6742 -55.84799,-12.3138 -60.03395,15.4183 -0.26791,1.4529 -0.4834,2.9334 -0.64754,4.4346 -2.32208,0.8063 -4.6568,1.8359 -6.99736,3.1166 -14.59457,7.9857 -22.56044,22.4756 -26.99089,40.2475 -4.42689,17.7576 -5.696,39.2254 -6.91777,63.3577 0,0.01 0,0.01 0,0.013 -0.74649,12.1345 -5.73541,28.5469 -10.79526,45.9303 -50.91537,36.3188 -121.58105,52.0541 -181.57889,11.1081 -4.06607,-6.4321 -8.73037,-12.8052 -13.53147,-19.0908 -3.06591,-4.014 -6.21536,-8.0035 -9.34651,-11.9367 6.15909,0.01 11.39435,-1.0039 15.6255,-2.9224 5.26169,-2.3859 8.95865,-6.2181 10.78763,-11.1376 3.65793,-9.8393 -0.016,-23.7194 -11.72621,-39.5697 -11.70948,-15.8492 -31.54117,-33.7365 -60.68259,-51.6085 0,0 -0.005,0 -0.005,0 -21.40893,-13.3193 -33.38207,-29.6448 -38.98627,-47.3702 -5.60474,-17.727 -4.81889,-36.8956 -0.49928,-55.8208 8.29109,-36.3262 29.59401,-71.6564 43.18646,-93.8281 3.65949,-2.6926 1.30747,4.9981 -13.76032,32.9788 -13.50408,25.5822 -38.75001,84.6203 -4.1838,130.7051 0.92373,-32.7963 8.75598,-66.2444 21.90444,-97.5312 19.15175,-43.4128 59.21029,-118.696 62.39188,-178.6978 1.64039,1.1911 7.27736,4.9945 9.78909,6.4229 0.005,0.01 0.0111,0.01 0.0161,0.01 7.34881,4.3276 12.86808,10.6536 20.01643,16.3985 7.16251,5.7562 16.11041,10.7281 29.62889,11.5158 v 0 c 15.77886,0.913 27.80467,-3.9742 37.65748,-9.6082 9.83799,-5.6255 17.69729,-11.8513 25.14318,-14.2814 0.0117,-0.01 0.0226,-0.01 0.0336,-0.011 15.73384,-4.9202 28.24389,-13.6288 35.36281,-23.786 z m 99.93381,275.987 c 6.37287,-0.03 14.09279,2.0952 22.54327,5.8757 22.74381,10.4998 29.85997,19.4997 23.65079,32.7204 -5.23245,9.9766 -27.62749,25.8485 -42.97609,21.6625 -15.66252,-4.0464 -23.30196,-26.6159 -20.75552,-43.6737 1.36405,-11.5835 7.91576,-16.5399 17.53755,-16.5849 z m -25.73289,31.1715 c 1.28565,20.8594 11.60602,42.1337 29.85781,46.738 19.97321,5.2625 48.77045,-11.8747 60.92896,-25.8528 2.42438,-0.097 4.79463,-0.2159 7.09654,-0.2714 10.66533,-0.2575 19.61062,0.3513 28.75032,8.3446 l 0.0316,0.027 0.0326,0.027 c 7.02363,5.9506 10.3622,17.196 13.2578,29.7936 2.89545,12.5976 5.2109,26.3179 13.89441,36.0921 l 0.0129,0.014 0.0121,0.014 c 16.69426,18.5255 22.06033,31.0474 21.60357,39.0397 -0.45681,7.9924 -6.2436,13.9258 -16.9292,20.3706 -21.36193,12.8843 -59.21225,24.0883 -83.38827,53.3724 -20.99241,24.9821 -46.59034,38.7027 -69.13412,40.482 -22.54377,1.7791 -41.99373,-7.5775 -53.4607,-30.5926 l -0.0261,-0.052 -0.0271,-0.051 c -7.11374,-13.5324 -4.15036,-34.8882 1.84224,-57.4144 5.99273,-22.5264 14.60269,-45.6561 15.75524,-64.4556 v -0.029 -0.029 c 1.21925,-24.0872 2.56746,-45.1225 6.61366,-61.3529 4.04615,-16.2304 10.41733,-27.2226 21.70607,-33.3995 0.52569,-0.2876 1.04754,-0.559 1.56645,-0.8154 z m -366.58959,1.5741 c 1.6849,0.01 3.46796,0.1475 5.36766,0.4349 12.77836,1.9357 23.92156,10.8702 34.65749,25.432 10.73602,14.562 20.72566,34.4401 30.99484,56.4901 l 0.0131,0.027 0.0121,0.026 c 8.25231,17.2238 25.66603,36.1625 40.42309,55.4828 14.757,19.3202 26.17797,38.7134 24.69071,53.5565 l -0.007,0.065 -0.005,0.064 c -1.92392,25.3158 -16.20438,39.0974 -38.12629,44.1045 -21.91538,5.0054 -51.62501,0.016 -81.29959,-15.4927 -0.009,0 -0.0176,-0.01 -0.0261,-0.014 -32.83022,-17.3885 -71.88647,-15.6614 -96.93988,-20.8939 -12.53011,-2.6171 -20.70605,-6.5516 -24.45856,-13.8619 -3.75276,-7.31 -3.83652,-20.0638 4.13797,-41.8095 l 0.0351,-0.096 0.0316,-0.097 c 3.94369,-12.1648 1.02517,-25.475 -0.88952,-37.9681 -1.9147,-12.4932 -2.85105,-23.8568 1.41495,-31.7774 l 0.0196,-0.036 0.0194,-0.037 c 5.4619,-10.5283 13.47335,-14.2919 23.41645,-17.8591 9.94304,-3.5674 21.73338,-6.369 31.04384,-15.6996 l 0.0481,-0.049 0.0481,-0.05 c 8.60716,-9.08 15.07246,-20.4617 22.63917,-28.5399 6.38442,-6.816 12.7735,-11.3334 22.40376,-11.4003 0.11143,0 0.22342,0 0.33575,0 z"
           style="color:#000000;font-style:normal;font-variant:normal;font-weight:normal;font-stretch:normal;font-size:medium;line-height:normal;font-family:'Bitstream Vera Sans';-inkscape-font-specification:'Bitstream Vera Sans';text-indent:0;text-align:start;text-decoration:none;text-decoration-line:none;letter-spacing:normal;word-spacing:normal;text-transform:none;writing-mode:lr-tb;direction:ltr;baseline-shift:baseline;text-anchor:start;display:inline;overflow:visible;visibility:visible;fill:#000000;fill-opacity:1;stroke:none;stroke-width:309;marker:none;enable-background:accumulate"
           inkscape:connector-curvature="0" />
        <path
           inkscape:connector-curvature="0"
           id="path4222-7"
           d="m -42.20136,1366.9012 c -10.0634,4.2311 -16.30301,14.3768 -19.90096,24.2911 -8.7247,25.3684 -7.45231,52.6495 -10.57254,78.888 -4.53879,27.6946 -16.08033,53.9422 -19.87578,81.8449 -0.3028,10.7699 -1.84176,22.3407 3.40479,32.2646 7.99417,15.9869 23.41995,29.5261 41.8312,30.7987 25.83787,2.6139 50.73511,-10.1543 69.13778,-27.4196 13.8228,-13.9952 26.76617,-29.4018 44.15466,-39.2056 19.15159,-11.7875 40.80437,-19.3093 59.31876,-32.2195 6.89217,-4.7159 11.49543,-13.3553 8.95729,-21.7249 -4.03232,-16.0513 -17.4286,-26.9705 -25.75184,-40.56 -9.35878,-17.2079 -8.04187,-38.5236 -19.13096,-54.9746 -8.70828,-11.6078 -24.81913,-13.904 -38.31079,-11.8048 -5.11651,1.8911 -8.14574,7.1211 -12.83008,9.8531 -14.45613,10.418 -32.42379,19.5393 -50.56161,15.2661 -15.31494,-4.6301 -23.47716,-20.4166 -26.63674,-35.0512 -1.43201,-3.17 0.046,-7.4231 -2.27564,-10.0931 -0.29074,-0.1562 -0.63369,-0.1899 -0.95754,-0.1532 z"
           style="fill:#ffd300;fill-opacity:1" />
        <path
           inkscape:connector-curvature="0"
           id="path4226-5"
           d="m -41.84883,1366.8566 c -21.09095,8.6449 -23.01046,35.1622 -26.41087,54.6409 -3.12231,32.5663 -6.38607,65.0473 -16.67735,96.2807 -5.4922,24.2641 -15.50134,53.6062 1.71992,75.573 11.01618,16.1874 31.04376,24.853 50.37115,21.069 37.22541,-2.2247 59.66084,-36.1902 86.76447,-57.0365 23.31522,-19.524 55.43994,-25.8259 77.10246,-47.3145 10.19686,-15.0425 -4.68408,-31.5592 -12.92152,-43.6545 -18.87061,-19.1303 -15.49403,-48.6687 -30.96087,-69.5573 -9.42916,-10.8023 -27.0736,-12.8026 -39.78813,-7.4825 -16.92271,14.1402 -39.23526,27.4605 -61.9815,21.5957 -15.54932,-8.2764 -24.57799,-26.3837 -25.64132,-43.4977 -0.38717,-0.4456 -0.99316,-0.6638 -1.57644,-0.6163 z"
           style="fill:#ffbb00;fill-opacity:1" />
        <path
           inkscape:connector-curvature="0"
           id="path4232-3"
           d="m -408.04655,1368.3312 c -21.98012,1.4902 -31.08312,25.7439 -45.45508,38.9514 -15.68046,16.3968 -45.99681,14.2844 -55.33956,37.2964 -6.07535,24.4518 8.51605,49.9546 -2.08074,73.816 -4.03453,14.1127 -8.70138,35.7121 7.85976,43.8151 34.02839,12.4852 72.27679,8.1596 105.58743,23.6503 25.89746,11.5431 53.61203,23.712 82.68807,18.4689 25.39148,-1.7467 46.3197,-25.8438 42.77663,-51.4097 -4.66389,-28.0145 -27.0576,-48.4968 -42.82894,-70.749 -27.46847,-31.4805 -35.90954,-76.0115 -67.89125,-103.9064 -7.05961,-5.907 -15.92173,-10.2624 -25.31632,-9.933 z"
           style="fill:#ffbb00;fill-opacity:1" />
        <path
           inkscape:connector-curvature="0"
           id="path4234-5"
           d="m -210.63695,989.99303 c -12.73508,-0.004 -24.93367,5.51551 -34.49226,13.72137 -6.22327,5.335 -12.05072,11.1614 -18.87454,15.7638 -5.7256,4.4038 -11.88061,8.3502 -17.06907,13.3967 -4.61812,4.9248 -5.28625,12.4681 -2.68244,18.5261 3.29555,8.4029 10.31667,14.7013 17.56655,19.7391 6.9479,4.2164 13.65983,8.8572 19.55314,14.4858 7.62375,6.9703 16.23378,13.8277 26.74087,15.4899 7.14697,1.2682 14.54646,0.9137 21.67537,-0.2946 12.86908,-2.6775 23.78031,-10.3761 34.77384,-17.1393 5.27183,-3.4711 11.28651,-5.404 17.1307,-7.6365 12.09605,-5.0775 23.92402,-13.0594 29.83709,-25.1523 3.37066,-6.6462 3.27213,-15.1974 -1.42461,-21.2012 -6.19133,-8.1974 -16.46837,-11.3661 -25.63733,-14.9604 -8.96525,-3.3554 -18.38296,-5.8921 -26.39991,-11.3223 -12.19032,-7.61137 -26.09058,-13.55236 -40.6974,-13.41617 z m 77.99647,48.43697 c 0.34876,1.3533 0.13429,2.8275 0.20273,4.2257 -7.77455,1.7382 -14.3439,6.5889 -21.21955,10.3601 -15.65318,9.1709 -31.53765,19.0988 -49.65812,22.4154 -5.9382,0.9673 -12.24954,0.9735 -18.34745,0.6483 -11.80751,-1.3855 -22.97401,-6.5789 -32.44474,-13.7092 -7.39356,-5.2579 -13.71146,-11.8109 -20.63688,-17.6246 0.35234,-1.4371 -0.0311,-3.4382 0.38698,-4.5255 4.53006,2.3125 7.68983,6.3554 11.59818,9.5619 8.95223,8.3584 19.0832,15.8021 30.83465,19.6516 5.68189,2.1254 11.75227,2.8642 17.79304,2.6064 10.41927,0.3873 20.52967,-3.0802 29.95933,-7.1807 15.02775,-6.6516 28.53143,-16.253 43.10549,-23.6922 2.66889,-1.2448 5.48031,-2.4083 8.42634,-2.7372 z"
           style="fill:#ffbb00;fill-opacity:1" />
        <path
           inkscape:connector-curvature="0"
           id="path4236-6"
           d="m -15.99717,1334.5654 c -7.04326,-0.1938 -14.03749,4.1216 -16.23409,10.9612 -3.04017,9.1989 -2.37642,19.3919 0.33527,28.5972 3.13795,9.7536 9.50196,20.0408 20.16303,22.495 11.12237,2.0208 22.16209,-3.2182 30.99838,-9.549 7.02429,-5.2805 14.55411,-12.2675 14.54543,-21.7612 -0.23409,-8.7734 -8.00373,-14.6241 -14.81167,-18.8209 -10.65877,-6.0947 -22.45797,-11.8679 -34.99635,-11.9223 z"
           style="fill:#000000;fill-opacity:1" />
        <path
           inkscape:connector-curvature="0"
           id="path4238-2"
           d="m -211.54907,989.22608 c -14.44311,-0.0653 -27.7466,7.56086 -38.04292,17.17932 -9.86264,9.0568 -21.21991,16.3478 -31.266,25.2032 -6.71264,5.8564 -6.57917,16.4055 -2.09475,23.5559 6.21297,10.9453 17.51102,17.2463 27.43444,24.3189 9.71919,7.3415 18.06413,17.1304 29.9781,21.0408 9.51121,3.2098 19.94303,2.6876 29.6434,0.6492 14.50233,-3.7911 26.36236,-13.5878 39.49304,-20.1612 10.33536,-4.1231 21.04987,-8.1521 29.51674,-15.675 5.81951,-5.2632 11.55339,-11.7164 13.004,-19.6696 0.63591,-5.4964 0.71001,-11.6336 -3.15911,-16.0635 -7.49882,-10.1872 -20.53383,-13.2908 -31.69686,-17.6985 -8.20119,-2.8553 -16.32083,-6.0747 -23.54368,-10.9765 -11.93666,-6.75752 -25.27817,-12.36274 -39.2664,-11.70302 z m 78.17729,50.28802 c 0.0251,1.1763 0.51188,2.9071 -1.2477,2.7373 -12.70626,5.0295 -23.96701,13.0826 -36.02169,19.3515 -13.25988,7.4128 -27.68839,13.7958 -43.12299,13.6109 -14.88236,0.9727 -29.07172,-5.5992 -40.76794,-14.3095 -6.54495,-5.1352 -12.70992,-10.7296 -18.97511,-16.1967 -0.14623,-1.7725 -0.30444,-3.9662 1.60539,-1.7081 11.48372,9.8128 22.485,21.0191 36.99389,26.2866 9.75837,4.2525 20.64035,4.0315 31.00423,2.8744 20.18345,-3.933 37.47906,-15.8379 55.13585,-25.6917 4.893,-2.6383 9.99507,-5.881 15.39607,-6.9547 z"
           style="fill:#ff9c00;fill-opacity:1" />
        <path
           transform="translate(61.147295,-62.648146)"
           inkscape:connector-curvature="0"
           id="path1175"
           d="m -291.68262,1599.5674 c -23.28298,-6.4889 -41.3654,-14.4451 -52.47612,-29.4539 -10.70031,-14.4545 -19.66241,-20.7376 -10.63215,-20.7376 6.39566,0 25.98493,-13.1758 25.90266,-21.0996 -0.20514,-19.7575 -39.37149,-58.8927 -75.27562,-83.3461 -29.35083,-19.9902 -27.86724,-21.6192 -36.77057,-38.4981 -10.14931,-19.241 -8.01551,-53.0759 1.51213,-83.5419 3.61486,-11.559 38.23339,-75.7 38.95435,-74.9791 0.27618,0.2763 -1.94164,11.4754 -9.43933,23.5408 -12.04953,19.3903 -20.85491,49.5986 -22.42606,56.2847 -5.68318,24.1852 -4.92432,50.2052 3.7091,68.572 3.39711,7.2271 8.63912,11.2002 9.79695,11.9158 1.15783,0.7156 1.62964,-11.2569 3.51773,-24.7536 3.83425,-27.4084 13.13328,-60.6783 23.21476,-80.6307 27.17045,-53.7734 57.53038,-132.9948 57.54782,-155.7076 0.009,-11.1433 2.45072,-10.3816 24.11691,7.5223 24.25307,20.0416 51.4639,21.2094 79.52597,3.4129 7.02313,-4.4539 19.02647,-10.8659 26.67409,-14.2488 7.64762,-3.3829 16.7743,-8.8465 20.28151,-12.1414 l 6.37675,-5.9906 2.94456,7.7448 c 1.6195,4.2596 2.94456,9.0482 2.94456,10.6413 0,7.732 31.86105,86.5398 52.96868,131.0172 13.05069,27.5 26.543202,60.2857 29.983373,72.8571 3.440172,12.5714 6.652629,24.3034 7.1388,26.071 0.486172,1.7676 4.953515,3.8111 9.927429,4.5411 7.625686,1.1192 9.543686,0.1675 12.234143,-6.071 5.380943,-12.477 3.598143,-50.9948 -3.242457,-70.0535 -7.470372,-20.8133 -5.663315,-24.7535 2.571143,-5.6063 10.597371,24.6415 14.896771,46.6438 13.467257,68.9187 -0.898372,13.9988 -0.308457,20.7803 1.809314,20.7986 1.728257,0.015 11.248629,5.1697 21.156371,11.4551 19.6518005,12.467 29.0805719,27.0519 23.58402907,36.4809 -2.42477147,4.1596 -2.86594287,3.7727 -2.93977147,-2.5779 -0.12,-10.3116 -8.4476286,-19.9502 -25.0388286,-28.9803 -33.065057,-17.9963 -62.100429,-18.8695 -70.757771,-2.1281 -2.359661,4.5631 -4.339801,9.9675 -4.400341,12.0098 -0.0606,2.0423 -4.19115,6.2848 -9.17912,9.4276 -19.42134,12.2372 -26.11897,30.5631 -30.80403,84.2857 -2.82805,32.4288 -8.869,58.8231 -14.77491,64.5549 -7.33466,7.1183 -44.89029,24.0274 -62.67995,28.2211 -21.66928,5.1082 -53.23799,5.2294 -71.02336,0.2726 z"
           style="fill:#ffffff;fill-opacity:1;stroke:#ffffe9;stroke-width:0;stroke-miterlimit:4;stroke-dasharray:none;stroke-opacity:1"
           sodipodi:nodetypes="ccsscsscsscssscscscccssssccsccccccscccscccc" />
      </g>
    </g>
    <g
       inkscape:groupmode="layer"
       id="layer3"
       inkscape:label="Layer 3" />
    <path
       inkscape:connector-curvature="0"
       d="m 1069.2604,219.806 c -4.8056,3.7285 -89.64964,51.53607 -89.64964,157.8396 0,122.95745 107.96064,166.45655 111.19204,167.53367 -0.4971,2.65137 -17.1511,59.57305 -56.9217,117.57185 -35.46214,51.03894 -72.49854,101.99501 -128.84024,101.99501 -56.34169,0 -70.84139,-32.72787 -135.88289,-32.72787 -63.3844,0 -85.9211,33.80499 -137.45711,33.80499 -51.53612,0 -87.49538,-47.22758 -128.84023,-105.22638 -47.89043,-68.10715 -86.58392,-173.91354 -86.58392,-274.33431 0,-161.07095 104.72925,-246.4949 207.80135,-246.4949 54.76751,0 100.42081,35.95925 134.80581,35.95925 32.7279,0 83.7669,-38.11349 146.07419,-38.11349 23.6138,0 108.45774,2.15424 164.30234,82.19258 z M 875.37866,69.423414 c 25.768,-30.57365 43.9962,-72.9956297 43.9962,-115.41762 0,-5.88273 -0.4971,-11.84832 -1.5743,-16.65394 -41.9248,1.57426 -91.80379,27.92228 -121.88029,62.80442029 -23.6138,26.84515971 -45.6533,69.26713971 -45.6533,112.26909571 0,6.46273 1.0771,12.92545 1.5742,14.99683 2.6514,0.49714 6.9599,1.07712 11.2684,1.07712 37.6163,0 84.9268,-25.18805 112.26909,-59.075906 z"
       id="path74"
       style="stroke-width:0.82855427" />
  </g>
</svg>
